SplineFontDB: 3.0
FontName: SlipstickSansMono-Italic
FullName: Slipstick Sans Mono Italic
FamilyName: Slipstick Sans Mono
Weight: Book
Copyright: Digitized data copyright (c) 2010-2011, Google Corporation.
Version: 1.10
ItalicAngle: -12
UnderlinePosition: -103
UnderlineWidth: 102
Ascent: 1638
Descent: 410
InvalidEm: 0
sfntRevision: 0x0001199a
LayerCount: 2
Layer: 0 1 "Back" 1
Layer: 1 1 "Fore" 0
XUID: [1021 376 -531563116 13096569]
FSType: 8
OS2Version: 3
OS2_WeightWidthSlopeOnly: 0
OS2_UseTypoMetrics: 1
CreationTime: 1295882304
ModificationTime: 1421506865
PfmFamily: 17
TTFWeight: 400
TTFWidth: 5
LineGap: 0
VLineGap: 0
Panose: 2 11 6 6 3 5 4 2 2 4
OS2TypoAscent: 1567
OS2TypoAOffset: 0
OS2TypoDescent: -492
OS2TypoDOffset: 0
OS2TypoLinegap: 132
OS2WinAscent: 2189
OS2WinAOffset: 0
OS2WinDescent: 600
OS2WinDOffset: 0
HheadAscent: 2189
HheadAOffset: 0
HheadDescent: -600
HheadDOffset: 0
OS2SubXSize: 1434
OS2SubYSize: 1331
OS2SubXOff: 0
OS2SubYOff: 287
OS2SupXSize: 1434
OS2SupYSize: 1331
OS2SupXOff: 0
OS2SupYOff: 977
OS2StrikeYSize: 102
OS2StrikeYPos: 512
OS2CapHeight: 0
OS2XHeight: 0
OS2Vendor: '1ASC'
OS2CodePages: 2000019f.00000000
OS2UnicodeRanges: e00002ef.4000205b.00000028.00000000
Lookup: 1 0 0 "'ss02' Style Set 2 in Latin lookup 0" { "'ss02' Style Set 2 in Latin lookup 0 subtable"  } ['salt' ('latn' <'MOL ' 'ROM ' 'dflt' > ) 'ss01' ('latn' <'MOL ' 'ROM ' 'dflt' > ) 'ss02' ('latn' <'MOL ' 'ROM ' 'dflt' > ) ]
Lookup: 1 0 0 "'ss03' Style Set 3 in Latin lookup 1" { "'ss03' Style Set 3 in Latin lookup 1 subtable"  } ['salt' ('latn' <'MOL ' 'ROM ' 'dflt' > ) 'ss01' ('latn' <'MOL ' 'ROM ' 'dflt' > ) 'ss03' ('latn' <'MOL ' 'ROM ' 'dflt' > ) ]
Lookup: 1 0 0 "'onum' Oldstyle Figures in Latin lookup 2" { "'onum' Oldstyle Figures in Latin lookup 2 subtable" ("oldstyle") } ['onum' ('latn' <'MOL ' 'ROM ' 'dflt' > ) ]

StartChar: .notdef
Encoding: 65536 -1 0
Width: 1229
GlyphClass: 2
Flags: W
LayerCount: 2
Back
Fore
SplineSet
193 1462 m 1,0,-1
 1034 1462 l 1,1,-1
 1034 0 l 1,2,-1
 193 0 l 1,3,-1
 193 1462 l 1,0,-1
297 104 m 1,4,-1
 930 104 l 1,5,-1
 930 1358 l 1,6,-1
 297 1358 l 1,7,-1
 297 104 l 1,4,-1
EndSplineSet
Validated: 1
EndChar

StartChar: two
Encoding: 50 50 4
Width: 1229
GlyphClass: 2
Flags: W
LayerCount: 2
Back
Fore
SplineSet
969 0 m 1,0,-1
 70 0 l 1,1,-1
 101 147 l 1,2,-1
 524 501 l 2,3,4
 548 521 548 521 700 664 c 0,5,6
 775 735 775 735 823.5 797.5 c 128,-1,7
 872 860 872 860 895.5 921.5 c 128,-1,8
 919 983 919 983 919 1058 c 0,9,10
 919 1157 919 1157 859 1215 c 128,-1,11
 799 1273 799 1273 696 1273 c 0,12,13
 619 1273 619 1273 545.5 1244.5 c 128,-1,14
 472 1216 472 1216 383 1148 c 1,15,-1
 301 1263 l 1,16,17
 492 1417 492 1417 714 1417 c 0,18,19
 890 1417 890 1417 992.5 1328.5 c 128,-1,20
 1095 1240 1095 1240 1095 1085 c 0,21,22
 1095 970 1095 970 1056 881 c 0,23,24
 1014 785 1014 785 924 684 c 0,25,26
 776 517 776 517 630 403 c 2,27,-1
 320 162 l 1,28,-1
 320 154 l 1,29,-1
 998 154 l 1,30,-1
 969 0 l 1,0,-1
EndSplineSet
Validated: 1
Substitution2: "'onum' Oldstyle Figures in Latin lookup 3 subtable" two.os
Substitution2: "'onum' Oldstyle Figures in Latin lookup 2 subtable" two.os
EndChar

StartChar: I.alt
Encoding: 65539 -1 5
Width: 1229
GlyphClass: 2
Flags: W
LayerCount: 2
Back
Fore
SplineSet
997 1559 m 1,0,1
 977 1241 977 1241 608 1241 c 0,2,3
 413 1241 413 1241 327 1315 c 128,-1,4
 241 1389 241 1389 231 1559 c 1,5,-1
 401 1559 l 1,6,7
 409 1457 409 1457 451 1414.5 c 128,-1,8
 493 1372 493 1372 612 1372 c 0,9,10
 806 1372 806 1372 823 1559 c 1,11,-1
 997 1559 l 1,0,1
EndSplineSet
Validated: 1
EndChar

StartChar: e
Encoding: 101 101 6
Width: 1229
GlyphClass: 2
Flags: W
LayerCount: 2
Back
Fore
SplineSet
606 -20 m 4,0,1
 422 -20 422 -20 317 89 c 132,-1,2
 212 198 212 198 212 391 c 4,3,4
 212 579 212 579 286.5 751.5 c 132,-1,5
 361 924 361 924 484 1020 c 132,-1,6
 607 1116 607 1116 755 1116 c 4,7,8
 908 1116 908 1116 985 1049.5 c 132,-1,9
 1062 983 1062 983 1062 864 c 4,10,11
 1062 684 1062 684 896 581.5 c 132,-1,12
 730 479 730 479 421 479 c 6,13,-1
 388 479 l 5,14,-1
 384 399 l 5,15,16
 384 268 384 268 445.5 194.5 c 132,-1,17
 507 121 507 121 636 121 c 4,18,19
 699 121 699 121 765.5 139 c 132,-1,20
 832 157 832 157 931 205 c 5,21,-1
 931 59 l 5,22,23
 837 15 837 15 765 -2.5 c 132,-1,24
 693 -20 693 -20 606 -20 c 4,0,1
745 973 m 4,25,26
 642 973 642 973 551.5 879 c 132,-1,27
 461 785 461 785 413 618 c 5,28,-1
 425 618 l 6,29,30
 653 618 653 618 774.5 677.5 c 132,-1,31
 896 737 896 737 896 850 c 4,32,33
 896 903 896 903 859.5 938 c 132,-1,34
 823 973 823 973 745 973 c 4,25,26
EndSplineSet
Validated: 1
EndChar

StartChar: r
Encoding: 114 114 7
Width: 1229
GlyphClass: 2
Flags: W
LayerCount: 2
Back
Fore
SplineSet
1059 1073 m 1,0,-1
 1010 907 l 1,1,2
 887 952 887 952 786 952 c 0,3,4
 623 952 623 952 534.5 859.5 c 128,-1,5
 446 767 446 767 446 592 c 2,6,-1
 446 0 l 1,7,-1
 264 0 l 1,8,-1
 264 1098 l 1,9,-1
 412 1098 l 1,10,-1
 434 897 l 1,11,-1
 442 897 l 1,12,13
 518 1016 518 1016 605 1067 c 128,-1,14
 692 1118 692 1118 819 1118 c 0,15,16
 937 1118 937 1118 1059 1073 c 1,0,-1
EndSplineSet
Validated: 1
EndChar

StartChar: Igrave.alt
Encoding: 65540 -1 8
Width: 1229
GlyphClass: 2
Flags: W
LayerCount: 2
Back
Fore
SplineSet
135 -457 m 1,0,-1
 135 -303 l 1,1,2
 269 -342 269 -342 424 -342 c 0,3,4
 541 -342 541 -342 606.5 -285 c 128,-1,5
 672 -228 672 -228 672 -127 c 2,6,-1
 672 954 l 1,7,-1
 252 975 l 1,8,-1
 252 1098 l 1,9,-1
 854 1098 l 1,10,-1
 854 -117 l 2,11,12
 854 -297 854 -297 741 -394.5 c 128,-1,13
 628 -492 628 -492 422 -492 c 0,14,15
 258 -492 258 -492 135 -457 c 1,0,-1
EndSplineSet
Validated: 1
EndChar

StartChar: Iacute.alt
Encoding: 65541 -1 9
Width: 1229
GlyphClass: 2
Flags: W
LayerCount: 2
Back
Fore
SplineSet
494 1255 m 1,0,-1
 520 1362 l 1,1,2
 546 1478 546 1478 555 1556 c 1,3,-1
 735 1556 l 1,4,-1
 735 1536 l 2,5,6
 735 1522 735 1522 693 1423 c 128,-1,7
 651 1324 651 1324 590 1229 c 1,8,-1
 494 1229 l 1,9,-1
 494 1255 l 1,0,-1
EndSplineSet
Validated: 1
EndChar

StartChar: Icircumflex.alt
Encoding: 65542 -1 10
Width: 1229
GlyphClass: 2
Flags: W
LayerCount: 2
Back
Fore
SplineSet
483 -426 m 1,0,1
 545 -286 545 -286 567 -125 c 1,2,-1
 745 -125 l 1,3,-1
 745 -145 l 2,4,5
 745 -167 745 -167 697 -269 c 128,-1,6
 649 -371 649 -371 582 -453 c 1,7,-1
 483 -453 l 1,8,-1
 483 -426 l 1,0,1
EndSplineSet
Validated: 1
EndChar

StartChar: Idieresis.alt
Encoding: 65543 -1 11
Width: 1229
GlyphClass: 2
Flags: W
LayerCount: 2
Back
Fore
SplineSet
745 1542 m 1,0,1
 682 1389 682 1389 662 1241 c 1,2,-1
 483 1241 l 1,3,-1
 483 1262 l 2,4,5
 483 1279 483 1279 528.5 1379.5 c 128,-1,6
 574 1480 574 1480 647 1569 c 1,7,-1
 745 1569 l 1,8,-1
 745 1542 l 1,0,1
EndSplineSet
Validated: 1
EndChar

StartChar: Itilde.alt
Encoding: 65544 -1 12
Width: 1229
GlyphClass: 2
Flags: W
LayerCount: 2
Back
Fore
SplineSet
612 569 m 0,0,1
 470 569 470 569 391.5 686 c 128,-1,2
 313 803 313 803 313 1026 c 0,3,4
 313 1479 313 1479 612 1479 c 0,5,6
 761 1479 761 1479 838 1361 c 128,-1,7
 915 1243 915 1243 915 1026 c 0,8,9
 915 569 915 569 612 569 c 0,0,1
612 700 m 0,10,11
 768 700 768 700 768 1026 c 0,12,13
 768 1350 768 1350 612 1350 c 0,14,15
 461 1350 461 1350 461 1026 c 0,16,17
 461 700 461 700 612 700 c 0,10,11
EndSplineSet
Validated: 1
EndChar

StartChar: Imacron.alt
Encoding: 65545 -1 13
Width: 1229
GlyphClass: 2
Flags: W
LayerCount: 2
Back
Fore
SplineSet
895 854 m 1,0,-1
 811 854 l 1,1,-1
 811 680 l 1,2,-1
 668 680 l 1,3,-1
 668 854 l 1,4,-1
 293 854 l 1,5,-1
 293 952 l 1,6,-1
 670 1475 l 1,7,-1
 811 1475 l 1,8,-1
 811 967 l 1,9,-1
 895 967 l 1,10,-1
 895 854 l 1,0,-1
668 967 m 1,11,-1
 668 1143 l 2,12,13
 668 1225 668 1225 674 1315 c 1,14,15
 634 1242 634 1242 594 1184 c 1,16,-1
 438 967 l 1,17,-1
 668 967 l 1,11,-1
EndSplineSet
Validated: 1
EndChar

StartChar: Ibreve.alt
Encoding: 65546 -1 14
Width: 1229
GlyphClass: 2
Flags: W
LayerCount: 2
Back
Fore
SplineSet
336 705 m 1,0,-1
 336 834 l 1,1,2
 438 766 438 766 543 766 c 0,3,4
 705 766 705 766 705 913 c 0,5,6
 705 1059 705 1059 539 1059 c 0,7,8
 487 1059 487 1059 414 1042 c 1,9,-1
 352 1081 l 1,10,-1
 383 1462 l 1,11,-1
 780 1462 l 1,12,-1
 780 1352 l 1,13,-1
 492 1352 l 1,14,-1
 475 1159 l 1,15,16
 510 1165 510 1165 571 1165 c 0,17,18
 689 1165 689 1165 762.5 1100 c 128,-1,19
 836 1035 836 1035 836 926 c 0,20,21
 836 799 836 799 761 728 c 128,-1,22
 686 657 686 657 541 657 c 0,23,24
 417 657 417 657 336 705 c 1,0,-1
EndSplineSet
Validated: 1
EndChar

StartChar: Iogonek.alt
Encoding: 65547 -1 15
Width: 1229
GlyphClass: 2
Flags: W
LayerCount: 2
Back
Fore
SplineSet
797 1493 m 1,0,-1
 842 1384 l 1,1,2
 513 1274 513 1274 461 1059 c 1,3,-1
 471 1059 l 1,4,5
 532 1151 532 1151 672 1151 c 0,6,7
 784 1151 784 1151 849.5 1074.5 c 128,-1,8
 915 998 915 998 915 870 c 0,9,10
 915 737 915 737 832.5 653 c 128,-1,11
 750 569 750 569 616 569 c 0,12,13
 481 569 481 569 397 662.5 c 128,-1,14
 313 756 313 756 313 913 c 0,15,16
 313 1320 313 1320 797 1493 c 1,0,-1
774 868 m 0,17,18
 774 1040 774 1040 627 1040 c 0,19,20
 553 1040 553 1040 504 996.5 c 128,-1,21
 455 953 455 953 455 889 c 0,22,23
 455 803 455 803 501.5 746.5 c 128,-1,24
 548 690 548 690 623 690 c 0,25,26
 691 690 691 690 732.5 736 c 128,-1,27
 774 782 774 782 774 868 c 0,17,18
EndSplineSet
Validated: 1
EndChar

StartChar: Idotaccent.alt
Encoding: 65548 -1 16
Width: 1229
GlyphClass: 2
Flags: W
LayerCount: 2
Back
Fore
SplineSet
451 672 m 1,0,-1
 760 1341 l 1,1,-1
 367 1341 l 1,2,-1
 367 1462 l 1,3,-1
 915 1462 l 1,4,-1
 915 1362 l 1,5,-1
 606 672 l 1,6,-1
 451 672 l 1,0,-1
EndSplineSet
Validated: 1
EndChar

StartChar: IJ.alt
Encoding: 65549 -1 17
Width: 1229
GlyphClass: 2
Flags: W
LayerCount: 2
Back
Fore
SplineSet
698 1090 m 1,0,1
 864 1005 864 1005 864 883 c 0,2,3
 864 780 864 780 788 717.5 c 128,-1,4
 712 655 712 655 588 655 c 0,5,6
 452 655 452 655 378.5 714 c 128,-1,7
 305 773 305 773 305 877 c 0,8,9
 305 1007 305 1007 444 1081 c 1,10,11
 330 1160 330 1160 330 1274 c 0,12,13
 330 1365 330 1365 402 1420 c 128,-1,14
 474 1475 474 1475 586 1475 c 0,15,16
 697 1475 697 1475 767.5 1421 c 128,-1,17
 838 1367 838 1367 838 1274 c 0,18,19
 838 1158 838 1158 698 1090 c 1,0,1
586 1139 m 1,20,21
 692 1188 692 1188 692 1272 c 0,22,23
 692 1368 692 1368 584 1368 c 0,24,25
 477 1368 477 1368 477 1272 c 0,26,27
 477 1191 477 1191 586 1139 c 1,20,21
569 1030 m 1,28,29
 451 967 451 967 451 877 c 0,30,31
 451 760 451 760 582 760 c 0,32,33
 717 760 717 760 717 877 c 0,34,35
 717 966 717 966 582 1024 c 1,36,-1
 569 1030 l 1,28,29
EndSplineSet
Validated: 1
EndChar

StartChar: Iotatonos.alt
Encoding: 65550 -1 18
Width: 1229
GlyphClass: 2
Flags: W
LayerCount: 2
Back
Fore
SplineSet
391 584 m 1,0,-1
 391 709 l 1,1,2
 430 686 430 686 492 686 c 0,3,4
 764 686 764 686 778 1001 c 1,5,-1
 770 1001 l 1,6,7
 699 903 699 903 573 903 c 0,8,9
 451 903 451 903 382 977.5 c 128,-1,10
 313 1052 313 1052 313 1178 c 0,11,12
 313 1311 313 1311 393 1396 c 128,-1,13
 473 1481 473 1481 604 1481 c 0,14,15
 746 1481 746 1481 830.5 1378.5 c 128,-1,16
 915 1276 915 1276 915 1090 c 0,17,18
 915 569 915 569 502 569 c 0,19,20
 440 569 440 569 391 584 c 1,0,-1
453 1180 m 0,21,22
 453 1016 453 1016 602 1016 c 0,23,24
 675 1016 675 1016 723.5 1059.5 c 128,-1,25
 772 1103 772 1103 772 1159 c 0,26,27
 772 1239 772 1239 727.5 1300.5 c 128,-1,28
 683 1362 683 1362 606 1362 c 0,29,30
 538 1362 538 1362 495.5 1315 c 128,-1,31
 453 1268 453 1268 453 1180 c 0,21,22
EndSplineSet
Validated: 1
EndChar

StartChar: Iota.alt
Encoding: 65551 -1 19
Width: 1229
GlyphClass: 2
Flags: W
LayerCount: 2
Back
Fore
SplineSet
301 1255 m 0,0,1
 301 1333 301 1333 361 1390.5 c 128,-1,2
 421 1448 421 1448 543 1479 c 1,3,-1
 543 1403 l 1,4,5
 483 1381 483 1381 454.5 1358 c 128,-1,6
 426 1335 426 1335 426 1311 c 0,7,8
 426 1292 426 1292 441.5 1283 c 128,-1,9
 457 1274 457 1274 475 1266 c 128,-1,10
 493 1258 493 1258 508.5 1245 c 128,-1,11
 524 1232 524 1232 524 1204 c 0,12,13
 524 1167 524 1167 499 1147.5 c 128,-1,14
 474 1128 474 1128 428 1128 c 0,15,16
 369 1128 369 1128 335 1163 c 128,-1,17
 301 1198 301 1198 301 1255 c 0,0,1
610 1161 m 1,18,19
 621 1191 621 1191 633.5 1228.5 c 128,-1,20
 646 1266 646 1266 658 1305.5 c 128,-1,21
 670 1345 670 1345 681 1385.5 c 128,-1,22
 692 1426 692 1426 700 1462 c 1,23,-1
 907 1462 l 1,24,-1
 907 1442 l 1,25,26
 889 1410 889 1410 865 1371.5 c 128,-1,27
 841 1333 841 1333 813 1293 c 128,-1,28
 785 1253 785 1253 754 1212.5 c 128,-1,29
 723 1172 723 1172 692 1135 c 1,30,-1
 610 1135 l 1,31,-1
 610 1161 l 1,18,19
EndSplineSet
Validated: 1
EndChar

StartChar: Iotadieresis.alt
Encoding: 65552 -1 20
Width: 1229
GlyphClass: 2
Flags: W
LayerCount: 2
Back
Fore
SplineSet
811 1241 m 1,0,-1
 711 1241 l 1,1,2
 660 1275 660 1275 606 1317 c 128,-1,3
 552 1359 552 1359 500 1407 c 1,4,5
 446 1359 446 1359 393 1317 c 128,-1,6
 340 1275 340 1275 289 1241 c 1,7,-1
 188 1241 l 1,8,-1
 188 1268 l 1,9,10
 239 1327 239 1327 297 1393 c 128,-1,11
 355 1459 355 1459 403 1528 c 1,12,-1
 596 1528 l 1,13,14
 644 1459 644 1459 702 1393 c 128,-1,15
 760 1327 760 1327 811 1268 c 1,16,-1
 811 1241 l 1,0,-1
733 1462 m 1,17,18
 753 1488 753 1488 769 1510 c 128,-1,19
 785 1532 785 1532 800 1555 c 128,-1,20
 815 1578 815 1578 829.5 1604 c 128,-1,21
 844 1630 844 1630 860 1663 c 1,22,-1
 1040 1663 l 1,23,-1
 1040 1642 l 1,24,25
 995 1582 995 1582 942 1530.5 c 128,-1,26
 889 1479 889 1479 834 1436 c 1,27,-1
 733 1436 l 1,28,-1
 733 1462 l 1,17,18
EndSplineSet
Validated: 1
EndChar

StartChar: pi
Encoding: 960 960 21
Width: 1229
GlyphClass: 2
Flags: W
HStem: -20 149<1019.24 1182.5> 0 21G<236 418> 944 154<152 236 418 821 1004 1214>
VStem: 236 182<0 944> 821 183<140.017 944>
LayerCount: 2
Back
Fore
SplineSet
999 117 m 0,0,1
 1043 117 1043 117 1083 133 c 1,2,-1
 1083 0 l 1,3,4
 1013 -20 1013 -20 950 -20 c 0,5,6
 859 -20 859 -20 811.5 26.5 c 128,-1,7
 764 73 764 73 764 154 c 0,8,9
 764 215 764 215 782 297 c 2,10,-1
 917 950 l 1,11,-1
 522 950 l 1,12,-1
 317 0 l 1,13,-1
 147 0 l 1,14,-1
 352 950 l 1,15,-1
 131 950 l 1,16,-1
 143 1016 l 1,17,-1
 340 1096 l 1,18,-1
 1325 1096 l 1,19,-1
 1294 950 l 1,20,-1
 1085 950 l 1,21,-1
 946 281 l 2,22,23
 934 223 934 223 934 182 c 0,24,25
 934 153 934 153 950.5 135 c 128,-1,26
 967 117 967 117 999 117 c 0,0,1
EndSplineSet
Validated: 1
EndChar

StartChar: phi
Encoding: 966 966 22
Width: 1229
GlyphClass: 2
Flags: W
LayerCount: 2
Back
Fore
SplineSet
469 307 m 5,0,1
 294 327 294 327 196 440.5 c 132,-1,2
 98 554 98 554 98 739 c 4,3,4
 98 937 98 937 177 1100 c 132,-1,5
 256 1263 256 1263 432 1429 c 5,6,-1
 539 1329 l 5,7,8
 393 1189 393 1189 328.5 1054 c 132,-1,9
 264 919 264 919 264 757 c 4,10,11
 264 474 264 474 500 444 c 5,12,-1
 635 1087 l 6,13,14
 674 1271 674 1271 760.5 1355 c 132,-1,15
 847 1439 847 1439 987 1439 c 4,16,17
 1130 1439 1130 1439 1202 1343 c 132,-1,18
 1274 1247 1274 1247 1274 1075 c 4,19,20
 1274 850 1274 850 1194 677 c 132,-1,21
 1114 504 1114 504 971.5 409.5 c 132,-1,22
 829 315 829 315 633 302 c 5,23,-1
 535 -167 l 5,24,-1
 369 -167 l 5,25,-1
 469 307 l 5,0,1
1106 1068 m 4,26,27
 1106 1298 1106 1298 977 1298 c 4,28,29
 906 1298 906 1298 866 1246 c 132,-1,30
 826 1194 826 1194 799 1064 c 6,31,-1
 666 444 l 5,32,33
 799 457 799 457 897 535 c 132,-1,34
 995 613 995 613 1050.5 755 c 132,-1,35
 1106 897 1106 897 1106 1068 c 4,26,27
EndSplineSet
Validated: 1
EndChar

StartChar: afii10055.alt
Encoding: 65553 -1 23
Width: 1229
GlyphClass: 2
Flags: W
LayerCount: 2
Back
Fore
SplineSet
418 1268 m 1,0,1
 469 1327 469 1327 527 1393 c 128,-1,2
 585 1459 585 1459 633 1528 c 1,3,-1
 825 1528 l 1,4,5
 873 1459 873 1459 931 1393 c 128,-1,6
 989 1327 989 1327 1040 1268 c 1,7,-1
 1040 1241 l 1,8,-1
 940 1241 l 1,9,10
 889 1275 889 1275 836 1317 c 128,-1,11
 783 1359 783 1359 729 1407 c 1,12,13
 676 1359 676 1359 622.5 1317 c 128,-1,14
 569 1275 569 1275 518 1241 c 1,15,-1
 418 1241 l 1,16,-1
 418 1268 l 1,0,1
496 1436 m 1,17,-1
 395 1436 l 1,18,19
 340 1479 340 1479 286.5 1530.5 c 128,-1,20
 233 1582 233 1582 188 1642 c 1,21,-1
 188 1663 l 1,22,-1
 369 1663 l 1,23,24
 385 1630 385 1630 399.5 1604 c 128,-1,25
 414 1578 414 1578 428.5 1555 c 128,-1,26
 443 1532 443 1532 459.5 1510 c 128,-1,27
 476 1488 476 1488 496 1462 c 1,28,-1
 496 1436 l 1,17,-1
EndSplineSet
Validated: 1
EndChar

StartChar: afii10056.alt
Encoding: 65554 -1 24
Width: 1229
GlyphClass: 2
Flags: W
LayerCount: 2
Back
Fore
SplineSet
844 1241 m 1,0,-1
 743 1241 l 1,1,2
 692 1275 692 1275 638.5 1317 c 128,-1,3
 585 1359 585 1359 532 1407 c 1,4,5
 478 1359 478 1359 425.5 1317 c 128,-1,6
 373 1275 373 1275 322 1241 c 1,7,-1
 221 1241 l 1,8,-1
 221 1268 l 1,9,10
 272 1327 272 1327 330 1393 c 128,-1,11
 388 1459 388 1459 436 1528 c 1,12,-1
 629 1528 l 1,13,14
 677 1459 677 1459 735 1393 c 128,-1,15
 793 1327 793 1327 844 1268 c 1,16,-1
 844 1241 l 1,0,-1
1008 1642 m 0,17,18
 1008 1613 1008 1613 998 1591.5 c 128,-1,19
 988 1570 988 1570 970.5 1555 c 128,-1,20
 953 1540 953 1540 930.5 1529.5 c 128,-1,21
 908 1519 908 1519 883 1513 c 1,22,-1
 877 1432 l 1,23,-1
 791 1432 l 1,24,-1
 780 1563 l 1,25,26
 836 1572 836 1572 868.5 1587.5 c 128,-1,27
 901 1603 901 1603 901 1640 c 0,28,29
 901 1659 901 1659 893.5 1671 c 128,-1,30
 886 1683 886 1683 872.5 1690 c 128,-1,31
 859 1697 859 1697 840.5 1699.5 c 128,-1,32
 822 1702 822 1702 801 1702 c 0,33,34
 779 1702 779 1702 759.5 1700.5 c 128,-1,35
 740 1699 740 1699 729 1696 c 1,36,-1
 729 1778 l 1,37,38
 750 1784 750 1784 809 1784 c 0,39,40
 908 1784 908 1784 958 1749.5 c 128,-1,41
 1008 1715 1008 1715 1008 1642 c 0,17,18
EndSplineSet
Validated: 1
EndChar

StartChar: Wgrave
Encoding: 7808 7808 25
Width: 1229
GlyphClass: 2
Flags: W
LayerCount: 2
Back
Fore
SplineSet
730 1579 m 1,0,-1
 609 1579 l 1,1,2
 443 1721 443 1721 337 1886 c 1,3,-1
 337 1907 l 1,4,-1
 556 1907 l 1,5,6
 642 1729 642 1729 730 1606 c 1,7,-1
 730 1579 l 1,0,-1
528 1008 m 1,8,-1
 705 1008 l 1,9,-1
 850 487 l 2,10,11
 911 268 911 268 922 180 c 1,12,13
 924 233 924 233 987 799 c 1,14,-1
 1057 1462 l 1,15,-1
 1227 1462 l 1,16,-1
 1040 0 l 1,17,-1
 850 0 l 1,18,-1
 682 580 l 2,19,20
 642 718 642 718 616 862 c 1,21,22
 584 689 584 689 551 578 c 1,23,-1
 395 0 l 1,24,-1
 205 0 l 1,25,-1
 2 1462 l 1,26,-1
 172 1462 l 1,27,-1
 260 799 l 2,28,29
 283 623 283 623 300 421 c 128,-1,30
 317 219 317 219 317 180 c 1,31,32
 341 331 341 331 387 492 c 1,33,-1
 528 1008 l 1,8,-1
EndSplineSet
Validated: 1
EndChar

StartChar: wgrave
Encoding: 7809 7809 26
Width: 1229
GlyphClass: 2
Flags: W
LayerCount: 2
Back
Fore
SplineSet
813 0 m 1,0,-1
 682 596 l 1,1,-1
 614 926 l 1,2,-1
 608 926 l 1,3,-1
 543 592 l 1,4,-1
 408 0 l 1,5,-1
 219 0 l 1,6,-1
 -4 1098 l 1,7,-1
 158 1098 l 1,8,-1
 256 555 l 2,9,10
 290 369 290 369 313 162 c 1,11,-1
 319 162 l 1,12,13
 350 347 350 347 387 520 c 1,14,-1
 520 1098 l 1,15,-1
 713 1098 l 1,16,-1
 840 520 l 2,17,18
 883 325 883 325 907 162 c 1,19,-1
 913 162 l 1,20,21
 944 404 944 404 973 555 c 2,22,-1
 1075 1098 l 1,23,-1
 1233 1098 l 1,24,-1
 1008 0 l 1,25,-1
 813 0 l 1,0,-1
697 1241 m 1,26,-1
 576 1241 l 1,27,28
 410 1383 410 1383 304 1548 c 1,29,-1
 304 1569 l 1,30,-1
 523 1569 l 1,31,32
 609 1391 609 1391 697 1268 c 1,33,-1
 697 1241 l 1,26,-1
EndSplineSet
Validated: 1
EndChar

StartChar: Wacute
Encoding: 7810 7810 27
Width: 1229
GlyphClass: 2
Flags: W
LayerCount: 2
Back
Fore
SplineSet
500 1606 m 1,0,1
 594 1739 594 1739 674 1907 c 1,2,-1
 893 1907 l 1,3,-1
 893 1886 l 1,4,5
 781 1713 781 1713 621 1579 c 1,6,-1
 500 1579 l 1,7,-1
 500 1606 l 1,0,1
528 1008 m 1,8,-1
 705 1008 l 1,9,-1
 850 487 l 2,10,11
 911 268 911 268 922 180 c 1,12,13
 924 233 924 233 987 799 c 1,14,-1
 1057 1462 l 1,15,-1
 1227 1462 l 1,16,-1
 1040 0 l 1,17,-1
 850 0 l 1,18,-1
 682 580 l 2,19,20
 642 718 642 718 616 862 c 1,21,22
 584 689 584 689 551 578 c 1,23,-1
 395 0 l 1,24,-1
 205 0 l 1,25,-1
 2 1462 l 1,26,-1
 172 1462 l 1,27,-1
 260 799 l 2,28,29
 283 623 283 623 300 421 c 128,-1,30
 317 219 317 219 317 180 c 1,31,32
 341 331 341 331 387 492 c 1,33,-1
 528 1008 l 1,8,-1
EndSplineSet
Validated: 1
EndChar

StartChar: wacute
Encoding: 7811 7811 28
Width: 1229
GlyphClass: 2
Flags: W
LayerCount: 2
Back
Fore
SplineSet
522 1268 m 1,0,1
 616 1401 616 1401 696 1569 c 1,2,-1
 915 1569 l 1,3,-1
 915 1548 l 1,4,5
 803 1375 803 1375 643 1241 c 1,6,-1
 522 1241 l 1,7,-1
 522 1268 l 1,0,1
813 0 m 1,8,-1
 682 596 l 1,9,-1
 614 926 l 1,10,-1
 608 926 l 1,11,-1
 543 592 l 1,12,-1
 408 0 l 1,13,-1
 219 0 l 1,14,-1
 -4 1098 l 1,15,-1
 158 1098 l 1,16,-1
 256 555 l 2,17,18
 290 369 290 369 313 162 c 1,19,-1
 319 162 l 1,20,21
 350 347 350 347 387 520 c 1,22,-1
 520 1098 l 1,23,-1
 713 1098 l 1,24,-1
 840 520 l 2,25,26
 883 325 883 325 907 162 c 1,27,-1
 913 162 l 1,28,29
 944 404 944 404 973 555 c 2,30,-1
 1075 1098 l 1,31,-1
 1233 1098 l 1,32,-1
 1008 0 l 1,33,-1
 813 0 l 1,8,-1
EndSplineSet
Validated: 1
EndChar

StartChar: Wdieresis
Encoding: 7812 7812 29
Width: 1229
GlyphClass: 2
Flags: W
LayerCount: 2
Back
Fore
SplineSet
430 1835 m 256,0,1
 526 1835 526 1835 526 1733 c 0,2,3
 526 1630 526 1630 430 1630 c 256,4,5
 334 1630 334 1630 334 1733 c 0,6,7
 334 1835 334 1835 430 1835 c 256,0,1
805 1835 m 256,8,9
 901 1835 901 1835 901 1733 c 0,10,11
 901 1630 901 1630 805 1630 c 256,12,13
 709 1630 709 1630 709 1733 c 0,14,15
 709 1835 709 1835 805 1835 c 256,8,9
528 1008 m 1,16,-1
 705 1008 l 1,17,-1
 850 487 l 2,18,19
 911 268 911 268 922 180 c 1,20,21
 924 233 924 233 987 799 c 1,22,-1
 1057 1462 l 1,23,-1
 1227 1462 l 1,24,-1
 1040 0 l 1,25,-1
 850 0 l 1,26,-1
 682 580 l 2,27,28
 642 718 642 718 616 862 c 1,29,30
 584 689 584 689 551 578 c 1,31,-1
 395 0 l 1,32,-1
 205 0 l 1,33,-1
 2 1462 l 1,34,-1
 172 1462 l 1,35,-1
 260 799 l 2,36,37
 283 623 283 623 300 421 c 128,-1,38
 317 219 317 219 317 180 c 1,39,40
 341 331 341 331 387 492 c 1,41,-1
 528 1008 l 1,16,-1
EndSplineSet
Validated: 1
EndChar

StartChar: wdieresis
Encoding: 7813 7813 30
Width: 1229
GlyphClass: 2
Flags: W
LayerCount: 2
Back
Fore
SplineSet
425 1497 m 256,0,1
 521 1497 521 1497 521 1395 c 0,2,3
 521 1292 521 1292 425 1292 c 256,4,5
 329 1292 329 1292 329 1395 c 0,6,7
 329 1497 329 1497 425 1497 c 256,0,1
800 1497 m 256,8,9
 896 1497 896 1497 896 1395 c 0,10,11
 896 1292 896 1292 800 1292 c 256,12,13
 704 1292 704 1292 704 1395 c 0,14,15
 704 1497 704 1497 800 1497 c 256,8,9
813 0 m 1,16,-1
 682 596 l 1,17,-1
 614 926 l 1,18,-1
 608 926 l 1,19,-1
 543 592 l 1,20,-1
 408 0 l 1,21,-1
 219 0 l 1,22,-1
 -4 1098 l 1,23,-1
 158 1098 l 1,24,-1
 256 555 l 2,25,26
 290 369 290 369 313 162 c 1,27,-1
 319 162 l 1,28,29
 350 347 350 347 387 520 c 1,30,-1
 520 1098 l 1,31,-1
 713 1098 l 1,32,-1
 840 520 l 2,33,34
 883 325 883 325 907 162 c 1,35,-1
 913 162 l 1,36,37
 944 404 944 404 973 555 c 2,38,-1
 1075 1098 l 1,39,-1
 1233 1098 l 1,40,-1
 1008 0 l 1,41,-1
 813 0 l 1,16,-1
EndSplineSet
Validated: 1
EndChar

StartChar: Ygrave
Encoding: 7922 7922 31
Width: 1229
GlyphClass: 2
Flags: W
LayerCount: 2
Back
Fore
SplineSet
697 1579 m 1,0,-1
 576 1579 l 1,1,2
 410 1721 410 1721 304 1886 c 1,3,-1
 304 1907 l 1,4,-1
 523 1907 l 1,5,6
 609 1729 609 1729 697 1606 c 1,7,-1
 697 1579 l 1,0,-1
612 723 m 1,8,-1
 993 1462 l 1,9,-1
 1194 1462 l 1,10,-1
 707 569 l 1,11,-1
 707 0 l 1,12,-1
 520 0 l 1,13,-1
 520 559 l 1,14,-1
 33 1462 l 1,15,-1
 236 1462 l 1,16,-1
 612 723 l 1,8,-1
EndSplineSet
Validated: 1
EndChar

StartChar: ygrave
Encoding: 7923 7923 32
Width: 1229
GlyphClass: 2
Flags: W
LayerCount: 2
Back
Fore
SplineSet
82 1098 m 1,0,-1
 270 1098 l 1,1,-1
 532 444 l 2,2,3
 614 239 614 239 621 154 c 1,4,-1
 627 154 l 1,5,6
 650 266 650 266 717 446 c 2,7,-1
 956 1098 l 1,8,-1
 1145 1098 l 1,9,-1
 670 -143 l 2,10,11
 603 -317 603 -317 514 -404.5 c 128,-1,12
 425 -492 425 -492 268 -492 c 0,13,14
 182 -492 182 -492 100 -475 c 1,15,-1
 100 -330 l 1,16,17
 162 -342 162 -342 236 -342 c 0,18,19
 332 -342 332 -342 385.5 -301 c 128,-1,20
 439 -260 439 -260 481 -160 c 1,21,-1
 539 -10 l 1,22,-1
 82 1098 l 1,0,-1
706 1241 m 1,23,-1
 585 1241 l 1,24,25
 419 1383 419 1383 313 1548 c 1,26,-1
 313 1569 l 1,27,-1
 532 1569 l 1,28,29
 618 1391 618 1391 706 1268 c 1,30,-1
 706 1241 l 1,23,-1
EndSplineSet
Validated: 1
EndChar

StartChar: endash
Encoding: 8211 8211 33
Width: 1229
GlyphClass: 2
Flags: W
LayerCount: 2
Back
Fore
SplineSet
184 465 m 1,0,-1
 184 633 l 1,1,-1
 1044 633 l 1,2,-1
 1044 465 l 1,3,-1
 184 465 l 1,0,-1
EndSplineSet
Validated: 1
EndChar

StartChar: emdash
Encoding: 8212 8212 34
Width: 1229
GlyphClass: 2
Flags: W
LayerCount: 2
Back
Fore
SplineSet
-6 465 m 1,0,-1
 -6 633 l 1,1,-1
 1235 633 l 1,2,-1
 1235 465 l 1,3,-1
 -6 465 l 1,0,-1
EndSplineSet
Validated: 1
EndChar

StartChar: afii00208
Encoding: 8213 8213 35
Width: 1229
GlyphClass: 2
Flags: W
LayerCount: 2
Back
Fore
SplineSet
-6 465 m 1,0,-1
 -6 633 l 1,1,-1
 1235 633 l 1,2,-1
 1235 465 l 1,3,-1
 -6 465 l 1,0,-1
EndSplineSet
Validated: 1
EndChar

StartChar: underscoredbl
Encoding: 8215 8215 36
Width: 1229
GlyphClass: 2
Flags: W
LayerCount: 2
Back
Fore
SplineSet
1249 -184 m 1,0,-1
 -20 -184 l 1,1,-1
 -20 -45 l 1,2,-1
 1249 -45 l 1,3,-1
 1249 -184 l 1,0,-1
1249 -463 m 1,4,-1
 -20 -463 l 1,5,-1
 -20 -324 l 1,6,-1
 1249 -324 l 1,7,-1
 1249 -463 l 1,4,-1
EndSplineSet
Validated: 1
EndChar

StartChar: quoteleft
Encoding: 8216 8216 37
Width: 1229
GlyphClass: 2
Flags: W
LayerCount: 2
Back
Fore
SplineSet
461 961 m 1,0,-1
 446 983 l 1,1,2
 500 1189 500 1189 623 1462 c 1,3,-1
 780 1462 l 1,4,5
 718 1207 718 1207 680 961 c 1,6,-1
 461 961 l 1,0,-1
EndSplineSet
Validated: 1
EndChar

StartChar: quoteright
Encoding: 8217 8217 38
Width: 1229
GlyphClass: 2
Flags: W
LayerCount: 2
Back
Fore
SplineSet
766 1462 m 1,0,-1
 780 1440 l 1,1,2
 725 1227 725 1227 604 961 c 1,3,-1
 446 961 l 1,4,5
 511 1227 511 1227 547 1462 c 1,6,-1
 766 1462 l 1,0,-1
EndSplineSet
Validated: 1
EndChar

StartChar: quotesinglbase
Encoding: 8218 8218 39
Width: 1229
GlyphClass: 2
Flags: W
LayerCount: 2
Back
Fore
SplineSet
756 238 m 1,0,-1
 770 215 l 1,1,2
 715 2 715 2 594 -264 c 1,3,-1
 457 -264 l 1,4,5
 528 28 528 28 557 238 c 1,6,-1
 756 238 l 1,0,-1
EndSplineSet
Validated: 1
EndChar

StartChar: quotereversed
Encoding: 8219 8219 40
Width: 1229
GlyphClass: 2
Flags: W
LayerCount: 2
Back
Fore
SplineSet
680 1462 m 1,0,1
 720 1203 720 1203 780 961 c 1,2,-1
 623 961 l 1,3,4
 499 1235 499 1235 446 1440 c 1,5,-1
 461 1462 l 1,6,-1
 680 1462 l 1,0,1
EndSplineSet
Validated: 1
EndChar

StartChar: quotedblleft
Encoding: 8220 8220 41
Width: 1229
GlyphClass: 2
Flags: W
LayerCount: 2
Back
Fore
SplineSet
674 961 m 1,0,-1
 659 983 l 1,1,2
 713 1189 713 1189 836 1462 c 1,3,-1
 993 1462 l 1,4,5
 931 1207 931 1207 893 961 c 1,6,-1
 674 961 l 1,0,-1
248 961 m 1,7,-1
 233 983 l 1,8,9
 287 1189 287 1189 410 1462 c 1,10,-1
 567 1462 l 1,11,12
 505 1207 505 1207 467 961 c 1,13,-1
 248 961 l 1,7,-1
EndSplineSet
Validated: 1
EndChar

StartChar: quotedblright
Encoding: 8221 8221 42
Width: 1229
GlyphClass: 2
Flags: W
LayerCount: 2
Back
Fore
SplineSet
553 1462 m 1,0,-1
 567 1440 l 1,1,2
 512 1227 512 1227 391 961 c 1,3,-1
 233 961 l 1,4,5
 298 1227 298 1227 334 1462 c 1,6,-1
 553 1462 l 1,0,-1
979 1462 m 1,7,-1
 993 1440 l 1,8,9
 938 1227 938 1227 817 961 c 1,10,-1
 659 961 l 1,11,12
 724 1227 724 1227 760 1462 c 1,13,-1
 979 1462 l 1,7,-1
EndSplineSet
Validated: 1
EndChar

StartChar: quotedblbase
Encoding: 8222 8222 43
Width: 1229
GlyphClass: 2
Flags: W
LayerCount: 2
Back
Fore
SplineSet
543 238 m 1,0,-1
 557 215 l 1,1,2
 502 2 502 2 381 -264 c 1,3,-1
 244 -264 l 1,4,5
 315 28 315 28 344 238 c 1,6,-1
 543 238 l 1,0,-1
969 238 m 1,7,-1
 983 215 l 1,8,9
 932 18 932 18 807 -264 c 1,10,-1
 670 -264 l 1,11,12
 741 28 741 28 770 238 c 1,13,-1
 969 238 l 1,7,-1
EndSplineSet
Validated: 1
EndChar

StartChar: dagger
Encoding: 8224 8224 44
Width: 1229
GlyphClass: 2
Flags: W
LayerCount: 2
Back
Fore
SplineSet
989 989 m 1,0,-1
 657 1020 l 1,1,-1
 713 0 l 1,2,-1
 496 0 l 1,3,-1
 551 1020 l 1,4,-1
 240 989 l 1,5,-1
 240 1169 l 1,6,-1
 551 1139 l 1,7,-1
 496 1556 l 1,8,-1
 713 1556 l 1,9,-1
 657 1139 l 1,10,-1
 989 1169 l 1,11,-1
 989 989 l 1,0,-1
EndSplineSet
Validated: 1
EndChar

StartChar: daggerdbl
Encoding: 8225 8225 45
Width: 1229
GlyphClass: 2
Flags: W
LayerCount: 2
Back
Fore
SplineSet
668 496 m 1,0,-1
 999 526 l 1,1,-1
 999 346 l 1,2,-1
 668 377 l 1,3,-1
 723 0 l 1,4,-1
 506 0 l 1,5,-1
 561 377 l 1,6,-1
 229 346 l 1,7,-1
 229 526 l 1,8,-1
 561 496 l 1,9,-1
 514 786 l 1,10,-1
 561 1061 l 1,11,-1
 229 1030 l 1,12,-1
 229 1210 l 1,13,-1
 561 1180 l 1,14,-1
 506 1556 l 1,15,-1
 723 1556 l 1,16,-1
 668 1180 l 1,17,-1
 999 1210 l 1,18,-1
 999 1030 l 1,19,-1
 668 1061 l 1,20,-1
 715 786 l 1,21,-1
 668 496 l 1,0,-1
EndSplineSet
Validated: 1
EndChar

StartChar: bullet
Encoding: 8226 8226 46
Width: 1229
GlyphClass: 2
Flags: W
LayerCount: 2
Back
Fore
SplineSet
614 1010 m 0,0,1
 850 1010 850 1010 850 748 c 0,2,3
 850 620 850 620 786.5 552.5 c 128,-1,4
 723 485 723 485 614 485 c 0,5,6
 503 485 503 485 441 552 c 128,-1,7
 379 619 379 619 379 748 c 0,8,9
 379 1010 379 1010 614 1010 c 0,0,1
EndSplineSet
Validated: 1
EndChar

StartChar: ellipsis
Encoding: 8230 8230 47
Width: 1229
GlyphClass: 2
Flags: W
LayerCount: 2
Back
Fore
SplineSet
205 250 m 256,0,1
 332 250 332 250 332 111 c 0,2,3
 332 -29 332 -29 205 -29 c 256,4,5
 78 -29 78 -29 78 111 c 0,6,7
 78 250 78 250 205 250 c 256,0,1
614 250 m 256,8,9
 741 250 741 250 741 111 c 0,10,11
 741 -29 741 -29 614 -29 c 256,12,13
 487 -29 487 -29 487 111 c 0,14,15
 487 250 487 250 614 250 c 256,8,9
1024 250 m 256,16,17
 1151 250 1151 250 1151 111 c 0,18,19
 1151 -29 1151 -29 1024 -29 c 256,20,21
 897 -29 897 -29 897 111 c 0,22,23
 897 250 897 250 1024 250 c 256,16,17
EndSplineSet
Validated: 1
EndChar

StartChar: perthousand
Encoding: 8240 8240 48
Width: 1229
GlyphClass: 2
Flags: W
LayerCount: 2
Back
Fore
SplineSet
260 860 m 0,0,1
 146 860 146 860 83 941.5 c 128,-1,2
 20 1023 20 1023 20 1171 c 0,3,4
 20 1481 20 1481 264 1481 c 0,5,6
 377 1481 377 1481 440.5 1400.5 c 128,-1,7
 504 1320 504 1320 504 1171 c 0,8,9
 504 860 504 860 260 860 c 0,0,1
262 967 m 256,10,11
 325 967 325 967 346 1017 c 128,-1,12
 367 1067 367 1067 367 1171 c 0,13,14
 367 1287 367 1287 343.5 1329.5 c 128,-1,15
 320 1372 320 1372 262 1372 c 0,16,17
 203 1372 203 1372 179.5 1327.5 c 128,-1,18
 156 1283 156 1283 156 1171 c 0,19,20
 156 1067 156 1067 177.5 1017 c 128,-1,21
 199 967 199 967 262 967 c 256,10,11
743 844 m 1,22,-1
 45 557 l 1,23,-1
 4 655 l 1,24,-1
 702 944 l 1,25,-1
 743 844 l 1,22,-1
434 0 m 0,26,27
 320 0 320 0 257.5 81.5 c 128,-1,28
 195 163 195 163 195 311 c 0,29,30
 195 621 195 621 438 621 c 0,31,32
 551 621 551 621 614.5 540.5 c 128,-1,33
 678 460 678 460 678 311 c 0,34,35
 678 0 678 0 434 0 c 0,26,27
436 106 m 256,36,37
 499 106 499 106 520 156.5 c 128,-1,38
 541 207 541 207 541 311 c 0,39,40
 541 427 541 427 517.5 469.5 c 128,-1,41
 494 512 494 512 436 512 c 0,42,43
 377 512 377 512 353.5 467.5 c 128,-1,44
 330 423 330 423 330 311 c 0,45,46
 330 207 330 207 351.5 156.5 c 128,-1,47
 373 106 373 106 436 106 c 256,36,37
965 0 m 0,48,49
 850 0 850 0 787.5 81.5 c 128,-1,50
 725 163 725 163 725 311 c 0,51,52
 725 621 725 621 969 621 c 0,53,54
 1081 621 1081 621 1144.5 540 c 128,-1,55
 1208 459 1208 459 1208 311 c 0,56,57
 1208 0 1208 0 965 0 c 0,48,49
967 106 m 256,58,59
 1030 106 1030 106 1050.5 156.5 c 128,-1,60
 1071 207 1071 207 1071 311 c 0,61,62
 1071 425 1071 425 1049 468.5 c 128,-1,63
 1027 512 1027 512 967 512 c 256,64,65
 907 512 907 512 883.5 468 c 128,-1,66
 860 424 860 424 860 311 c 0,67,68
 860 207 860 207 882 156.5 c 128,-1,69
 904 106 904 106 967 106 c 256,58,59
EndSplineSet
Validated: 1
EndChar

StartChar: minute
Encoding: 8242 8242 49
Width: 1229
GlyphClass: 2
Flags: W
LayerCount: 2
Back
Fore
SplineSet
733 1462 m 1,0,-1
 692 934 l 1,1,-1
 537 934 l 1,2,-1
 496 1462 l 1,3,-1
 733 1462 l 1,0,-1
EndSplineSet
Validated: 1
EndChar

StartChar: second
Encoding: 8243 8243 50
Width: 1229
GlyphClass: 2
Flags: W
LayerCount: 2
Back
Fore
SplineSet
522 1462 m 1,0,-1
 481 934 l 1,1,-1
 326 934 l 1,2,-1
 285 1462 l 1,3,-1
 522 1462 l 1,0,-1
944 1462 m 1,4,-1
 903 934 l 1,5,-1
 748 934 l 1,6,-1
 707 1462 l 1,7,-1
 944 1462 l 1,4,-1
EndSplineSet
Validated: 1
EndChar

StartChar: guilsinglleft
Encoding: 8249 8249 51
Width: 1229
GlyphClass: 2
Flags: W
LayerCount: 2
Back
Fore
SplineSet
401 553 m 1,0,-1
 711 967 l 1,1,-1
 827 889 l 1,2,-1
 590 541 l 1,3,-1
 827 193 l 1,4,-1
 711 115 l 1,5,-1
 401 526 l 1,6,-1
 401 553 l 1,0,-1
EndSplineSet
Validated: 1
EndChar

StartChar: guilsinglright
Encoding: 8250 8250 52
Width: 1229
GlyphClass: 2
Flags: W
LayerCount: 2
Back
Fore
SplineSet
827 526 m 1,0,-1
 518 115 l 1,1,-1
 401 193 l 1,2,-1
 639 541 l 1,3,-1
 401 889 l 1,4,-1
 518 967 l 1,5,-1
 827 553 l 1,6,-1
 827 526 l 1,0,-1
EndSplineSet
Validated: 1
EndChar

StartChar: exclamdbl
Encoding: 8252 8252 53
Width: 1229
GlyphClass: 2
Flags: W
LayerCount: 2
Back
Fore
SplineSet
444 414 m 1,0,-1
 323 414 l 1,1,-1
 272 1462 l 1,2,-1
 495 1462 l 1,3,-1
 444 414 l 1,0,-1
382 250 m 256,4,5
 509 250 509 250 509 111 c 0,6,7
 509 -29 509 -29 382 -29 c 256,8,9
 255 -29 255 -29 255 111 c 0,10,11
 255 250 255 250 382 250 c 256,4,5
907 414 m 1,12,-1
 786 414 l 1,13,-1
 735 1462 l 1,14,-1
 958 1462 l 1,15,-1
 907 414 l 1,12,-1
845 250 m 256,16,17
 972 250 972 250 972 111 c 0,18,19
 972 -29 972 -29 845 -29 c 256,20,21
 718 -29 718 -29 718 111 c 0,22,23
 718 250 718 250 845 250 c 256,16,17
EndSplineSet
Validated: 1
EndChar

StartChar: fraction
Encoding: 8260 8260 54
Width: 1229
GlyphClass: 2
Flags: W
LayerCount: 2
Back
Fore
SplineSet
1057 1462 m 1,0,-1
 328 0 l 1,1,-1
 170 0 l 1,2,-1
 899 1462 l 1,3,-1
 1057 1462 l 1,0,-1
EndSplineSet
Validated: 1
EndChar

StartChar: nsuperior
Encoding: 8319 8319 55
Width: 1229
GlyphClass: 2
Flags: W
LayerCount: 2
Back
Fore
SplineSet
764 797 m 5,0,-1
 764 1210 l 6,1,2
 764 1360 764 1360 637 1360 c 4,3,4
 537 1360 537 1360 501 1307 c 132,-1,5
 465 1254 465 1254 465 1135 c 6,6,-1
 465 797 l 5,7,-1
 317 797 l 5,8,-1
 317 1462 l 5,9,-1
 442 1462 l 5,10,-1
 459 1358 l 5,11,-1
 467 1358 l 5,12,13
 535 1479 535 1479 674 1479 c 4,14,15
 784 1479 784 1479 847.5 1414 c 132,-1,16
 911 1349 911 1349 911 1229 c 6,17,-1
 911 797 l 5,18,-1
 764 797 l 5,0,-1
EndSplineSet
Validated: 1
EndChar

StartChar: franc
Encoding: 8355 8355 56
Width: 1229
GlyphClass: 2
Flags: W
LayerCount: 2
Back
Fore
SplineSet
483 399 m 1,0,-1
 776 399 l 1,1,-1
 776 262 l 1,2,-1
 483 262 l 1,3,-1
 483 0 l 1,4,-1
 305 0 l 1,5,-1
 305 262 l 1,6,-1
 129 262 l 1,7,-1
 129 399 l 1,8,-1
 305 399 l 1,9,-1
 305 1462 l 1,10,-1
 1057 1462 l 1,11,-1
 1057 1298 l 1,12,-1
 483 1298 l 1,13,-1
 483 782 l 1,14,-1
 1018 782 l 1,15,-1
 1018 618 l 1,16,-1
 483 618 l 1,17,-1
 483 399 l 1,0,-1
EndSplineSet
Validated: 1
EndChar

StartChar: afii08941
Encoding: 8356 8356 57
Width: 1229
GlyphClass: 2
Flags: W
LayerCount: 2
Back
Fore
SplineSet
1063 1401 m 1,0,-1
 997 1257 l 1,1,2
 856 1329 856 1329 725 1329 c 0,3,4
 502 1329 502 1329 502 1083 c 2,5,-1
 502 891 l 1,6,-1
 879 891 l 1,7,-1
 879 754 l 1,8,-1
 502 754 l 1,9,-1
 502 596 l 1,10,-1
 879 596 l 1,11,-1
 879 459 l 1,12,-1
 502 459 l 1,13,-1
 502 440 l 2,14,15
 502 244 502 244 362 166 c 1,16,-1
 1110 166 l 1,17,-1
 1110 0 l 1,18,-1
 119 0 l 1,19,-1
 119 154 l 1,20,21
 319 203 319 203 319 438 c 2,22,-1
 319 459 l 1,23,-1
 121 459 l 1,24,-1
 121 596 l 1,25,-1
 319 596 l 1,26,-1
 319 754 l 1,27,-1
 121 754 l 1,28,-1
 121 891 l 1,29,-1
 319 891 l 1,30,-1
 319 1112 l 2,31,32
 319 1280 319 1280 427.5 1380.5 c 128,-1,33
 536 1481 536 1481 717 1481 c 0,34,35
 909 1481 909 1481 1063 1401 c 1,0,-1
EndSplineSet
Validated: 1
EndChar

StartChar: peseta
Encoding: 8359 8359 58
Width: 1229
GlyphClass: 2
Flags: W
LayerCount: 2
Back
Fore
SplineSet
240 569 m 1,0,-1
 240 0 l 1,1,-1
 82 0 l 1,2,-1
 82 1462 l 1,3,-1
 287 1462 l 2,4,5
 737 1462 737 1462 737 1034 c 0,6,7
 737 813 737 813 622 691 c 128,-1,8
 507 569 507 569 281 569 c 2,9,-1
 240 569 l 1,0,-1
240 715 m 1,10,-1
 281 715 l 2,11,12
 573 715 573 715 573 1024 c 0,13,14
 573 1315 573 1315 305 1315 c 2,15,-1
 240 1315 l 1,16,-1
 240 715 l 1,10,-1
1190 137 m 1,17,-1
 1190 12 l 1,18,19
 1126 -20 1126 -20 1024 -20 c 0,20,21
 803 -20 803 -20 803 262 c 2,22,-1
 803 618 l 1,23,-1
 688 618 l 1,24,-1
 688 688 l 1,25,-1
 803 739 l 1,26,-1
 868 954 l 1,27,-1
 954 954 l 1,28,-1
 954 743 l 1,29,-1
 1163 743 l 1,30,-1
 1163 618 l 1,31,-1
 954 618 l 1,32,-1
 954 270 l 2,33,34
 954 117 954 117 1067 117 c 0,35,36
 1129 117 1129 117 1190 137 c 1,17,-1
EndSplineSet
Validated: 1
EndChar

StartChar: Euro
Encoding: 8364 8364 59
Width: 1229
GlyphClass: 2
Flags: W
LayerCount: 2
Back
Fore
SplineSet
442 934 m 1,0,-1
 874 934 l 1,1,-1
 874 797 l 1,2,-1
 428 797 l 1,3,4
 428 782 428 782 427 768 c 2,5,-1
 426 743 l 1,6,-1
 426 681 l 2,7,8
 426 661 426 661 428 639 c 1,9,-1
 813 639 l 1,10,-1
 813 502 l 1,11,-1
 446 502 l 1,12,13
 519 143 519 143 815 143 c 0,14,15
 951 143 951 143 1083 201 c 1,16,-1
 1083 39 l 1,17,18
 961 -20 961 -20 801 -20 c 0,19,20
 354 -20 354 -20 260 502 c 1,21,-1
 96 502 l 1,22,-1
 96 639 l 1,23,-1
 244 639 l 1,24,-1
 242 677 l 1,25,-1
 244 797 l 1,26,-1
 96 797 l 1,27,-1
 96 934 l 1,28,-1
 256 934 l 1,29,30
 295 1196 295 1196 435.5 1339.5 c 128,-1,31
 576 1483 576 1483 795 1483 c 0,32,33
 986 1483 986 1483 1130 1391 c 1,34,-1
 1051 1245 l 1,35,36
 929 1319 929 1319 809 1319 c 0,37,38
 673 1319 673 1319 576 1219.5 c 128,-1,39
 479 1120 479 1120 442 934 c 1,0,-1
EndSplineSet
Validated: 1
EndChar

StartChar: afii61248
Encoding: 8453 8453 60
Width: 1229
GlyphClass: 2
Flags: W
LayerCount: 2
Back
Fore
SplineSet
532 1436 m 1,0,-1
 500 1329 l 1,1,2
 418 1362 418 1362 350 1362 c 0,3,4
 152 1362 152 1362 152 1128 c 0,5,6
 152 899 152 899 346 899 c 0,7,8
 449 899 449 899 522 932 c 1,9,-1
 522 825 l 1,10,11
 448 788 448 788 340 788 c 0,12,13
 184 788 184 788 96 875.5 c 128,-1,14
 8 963 8 963 8 1126 c 0,15,16
 8 1297 8 1297 98 1385 c 128,-1,17
 188 1473 188 1473 350 1473 c 0,18,19
 449 1473 449 1473 532 1436 c 1,0,-1
1042 1462 m 1,20,-1
 313 0 l 1,21,-1
 156 0 l 1,22,-1
 885 1462 l 1,23,-1
 1042 1462 l 1,20,-1
918 -8 m 0,24,25
 786 -8 786 -8 701 84.5 c 128,-1,26
 616 177 616 177 616 334 c 0,27,28
 616 495 616 495 699 585.5 c 128,-1,29
 782 676 782 676 922 676 c 0,30,31
 1053 676 1053 676 1138 582.5 c 128,-1,32
 1223 489 1223 489 1223 334 c 0,33,34
 1223 176 1223 176 1141 84 c 128,-1,35
 1059 -8 1059 -8 918 -8 c 0,24,25
920 100 m 0,36,37
 1075 100 1075 100 1075 334 c 0,38,39
 1075 565 1075 565 920 565 c 0,40,41
 762 565 762 565 762 334 c 0,42,43
 762 100 762 100 920 100 c 0,36,37
EndSplineSet
Validated: 1
EndChar

StartChar: afii61289
Encoding: 8467 8467 61
Width: 1229
GlyphClass: 2
Flags: W
LayerCount: 2
Back
Fore
SplineSet
885 332 m 1,0,-1
 999 332 l 1,1,2
 981 -20 981 -20 713 -20 c 0,3,4
 574 -20 574 -20 497 71.5 c 128,-1,5
 420 163 420 163 420 336 c 2,6,-1
 420 567 l 1,7,8
 334 536 334 536 227 510 c 1,9,-1
 227 631 l 1,10,11
 299 650 299 650 420 690 c 1,12,-1
 420 1184 l 2,13,14
 420 1324 420 1324 488.5 1403.5 c 128,-1,15
 557 1483 557 1483 690 1483 c 0,16,17
 800 1483 800 1483 863 1400.5 c 128,-1,18
 926 1318 926 1318 926 1182 c 0,19,20
 926 827 926 827 586 641 c 1,21,-1
 586 340 l 2,22,23
 586 119 586 119 731 119 c 0,24,25
 875 119 875 119 885 332 c 1,0,-1
586 770 m 1,26,27
 793 891 793 891 793 1176 c 0,28,29
 793 1364 793 1364 690 1364 c 0,30,31
 637 1364 637 1364 611.5 1323.5 c 128,-1,32
 586 1283 586 1283 586 1176 c 2,33,-1
 586 770 l 1,26,27
EndSplineSet
Validated: 1
EndChar

StartChar: afii61352
Encoding: 8470 8470 62
Width: 1229
GlyphClass: 2
Flags: W
LayerCount: 2
Back
Fore
SplineSet
649 0 m 1,0,-1
 475 0 l 1,1,-1
 150 1169 l 1,2,-1
 141 1169 l 1,3,4
 160 916 160 916 160 752 c 2,5,-1
 160 0 l 1,6,-1
 25 0 l 1,7,-1
 25 1462 l 1,8,-1
 201 1462 l 1,9,-1
 524 299 l 1,10,-1
 530 299 l 1,11,12
 516 602 516 602 516 702 c 2,13,-1
 516 1462 l 1,14,-1
 649 1462 l 1,15,-1
 649 0 l 1,0,-1
954 274 m 0,16,17
 840 274 840 274 772.5 367.5 c 128,-1,18
 705 461 705 461 705 623 c 0,19,20
 705 969 705 969 958 969 c 0,21,22
 1072 969 1072 969 1140 877.5 c 128,-1,23
 1208 786 1208 786 1208 623 c 0,24,25
 1208 455 1208 455 1142 364.5 c 128,-1,26
 1076 274 1076 274 954 274 c 0,16,17
956 395 m 0,27,28
 1019 395 1019 395 1043 452.5 c 128,-1,29
 1067 510 1067 510 1067 623 c 0,30,31
 1067 737 1067 737 1043 791.5 c 128,-1,32
 1019 846 1019 846 956 846 c 0,33,34
 892 846 892 846 868 791 c 128,-1,35
 844 736 844 736 844 623 c 0,36,37
 844 511 844 511 868 453 c 128,-1,38
 892 395 892 395 956 395 c 0,27,28
745 0 m 1,39,-1
 745 147 l 1,40,-1
 1159 147 l 1,41,-1
 1159 0 l 1,42,-1
 745 0 l 1,39,-1
EndSplineSet
Validated: 1
EndChar

StartChar: trademark
Encoding: 8482 8482 63
Width: 1229
GlyphClass: 2
Flags: W
LayerCount: 2
Back
Fore
SplineSet
303 741 m 1,0,-1
 176 741 l 1,1,-1
 176 1354 l 1,2,-1
 0 1354 l 1,3,-1
 0 1462 l 1,4,-1
 481 1462 l 1,5,-1
 481 1354 l 1,6,-1
 303 1354 l 1,7,-1
 303 741 l 1,0,-1
797 741 m 1,8,-1
 651 1290 l 1,9,-1
 639 1290 l 1,10,-1
 649 1110 l 1,11,-1
 649 741 l 1,12,-1
 526 741 l 1,13,-1
 526 1462 l 1,14,-1
 713 1462 l 1,15,-1
 852 928 l 1,16,-1
 1001 1462 l 1,17,-1
 1180 1462 l 1,18,-1
 1180 741 l 1,19,-1
 1053 741 l 1,20,-1
 1053 1083 l 2,21,22
 1053 1170 1053 1170 1063 1290 c 1,23,-1
 1051 1290 l 1,24,-1
 897 741 l 1,25,-1
 797 741 l 1,8,-1
EndSplineSet
Validated: 1
EndChar

StartChar: Omega
Encoding: 8486 8486 64
Width: 1229
GlyphClass: 2
Flags: W
LayerCount: 2
Back
Fore
SplineSet
541 147 m 1,0,-1
 541 0 l 1,1,-1
 74 0 l 1,2,-1
 74 164 l 1,3,-1
 340 164 l 1,4,5
 86 399 86 399 86 825 c 0,6,7
 86 1137 86 1137 226 1311 c 128,-1,8
 366 1485 366 1485 616 1485 c 256,9,10
 866 1485 866 1485 1006.5 1311 c 128,-1,11
 1147 1137 1147 1137 1147 825 c 0,12,13
 1147 396 1147 396 891 164 c 1,14,-1
 1159 164 l 1,15,-1
 1159 0 l 1,16,-1
 690 0 l 1,17,-1
 690 147 l 1,18,19
 950 378 950 378 950 821 c 0,20,21
 950 1321 950 1321 614 1321 c 0,22,23
 279 1321 279 1321 279 821 c 0,24,25
 279 378 279 378 541 147 c 1,0,-1
EndSplineSet
Validated: 1
EndChar

StartChar: estimated
Encoding: 8494 8494 65
Width: 1229
GlyphClass: 2
Flags: W
LayerCount: 2
Back
Fore
SplineSet
1143 530 m 1,0,-1
 315 530 l 1,1,-1
 315 174 l 1,2,3
 438 51 438 51 612 51 c 0,4,5
 866 51 866 51 1008 285 c 1,6,-1
 1079 244 l 1,7,8
 982 88 982 88 872.5 26.5 c 128,-1,9
 763 -35 763 -35 612 -35 c 0,10,11
 372 -35 372 -35 227 127 c 128,-1,12
 82 289 82 289 82 530 c 0,13,14
 82 791 82 791 235.5 943.5 c 128,-1,15
 389 1096 389 1096 612 1096 c 0,16,17
 843 1096 843 1096 993 941 c 128,-1,18
 1143 786 1143 786 1143 535 c 2,19,-1
 1143 530 l 1,0,-1
911 616 m 1,20,-1
 911 893 l 1,21,22
 790 1012 790 1012 610 1012 c 0,23,24
 439 1012 439 1012 315 895 c 1,25,-1
 315 616 l 1,26,-1
 911 616 l 1,20,-1
EndSplineSet
Validated: 1
EndChar

StartChar: oneeighth
Encoding: 8539 8539 66
Width: 1229
GlyphClass: 2
Flags: W
LayerCount: 2
Back
Fore
SplineSet
237 1460 m 5
 372 1460 l 5
 372 672 l 5
 226 672 l 5
 226 1137 l 6
 226 1206 226 1206 235 1337 c 5
 194 1293 194 1293 161 1272 c 5
 91 1221 l 5
 18 1309 l 5
 237 1460 l 5
EndSplineSet
Refer: 54 8260 N 1 0 0 1 -56 0 2
Refer: 86 8312 N 1 0 0 1 342 -665 2
Validated: 1
EndChar

StartChar: threeeighths
Encoding: 8540 8540 67
Width: 1229
GlyphClass: 2
Flags: W
LayerCount: 2
Back
Fore
SplineSet
339 1085 m 1
 515 1046 515 1046 515 899 c 0
 515 783 515 783 440.5 719 c 0
 366 655 366 655 226 655 c 0
 95 655 95 655 11 705 c 1
 11 829 l 1
 121 764 121 764 214 764 c 0
 363 764 363 764 363 901 c 0
 363 1026 363 1026 216 1026 c 2
 144 1026 l 1
 144 1130 l 1
 214 1130 l 2
 337 1130 337 1130 337 1257 c 0
 337 1368 337 1368 240 1368 c 0
 169 1368 169 1368 79 1298 c 1
 13 1384 l 1
 124 1477 124 1477 251 1477 c 0
 360 1477 360 1477 424 1422.5 c 0
 488 1368 488 1368 488 1274 c 0
 488 1135 488 1135 339 1085 c 1
EndSplineSet
Refer: 54 8260 N 1 0 0 1 -17 0 2
Refer: 86 8312 N 1 0 0 1 362 -665 2
Validated: 5
EndChar

StartChar: radical
Encoding: 8730 8730 70
Width: 1229
GlyphClass: 2
Flags: WO
LayerCount: 2
Back
Fore
SplineSet
684 -14 m 1,0,-1
 557 -14 l 1,1,-1
 279 768 l 1,2,-1
 98 768 l 1,3,-1
 98 903 l 1,4,-1
 391 903 l 1,5,-1
 625 227 l 1,6,-1
 1139 1688 l 1,7,-1
 2164 1688 l 5,8,-1
 2164 1553 l 5,9,-1
 1227 1553 l 1,10,-1
 684 -14 l 1,0,-1
EndSplineSet
EndChar

StartChar: notequal
Encoding: 8800 8800 71
Width: 1229
GlyphClass: 2
Flags: W
LayerCount: 2
Back
Fore
SplineSet
399 442 m 1,0,-1
 152 442 l 1,1,-1
 152 592 l 1,2,-1
 469 592 l 1,3,-1
 590 852 l 1,4,-1
 152 852 l 1,5,-1
 152 1001 l 1,6,-1
 659 1001 l 1,7,-1
 793 1284 l 1,8,-1
 930 1225 l 1,9,-1
 825 1001 l 1,10,-1
 1075 1001 l 1,11,-1
 1075 852 l 1,12,-1
 756 852 l 1,13,-1
 633 592 l 1,14,-1
 1075 592 l 1,15,-1
 1075 442 l 1,16,-1
 563 442 l 1,17,-1
 434 164 l 1,18,-1
 297 221 l 1,19,-1
 399 442 l 1,0,-1
EndSplineSet
Validated: 1
EndChar

StartChar: lessequal
Encoding: 8804 8804 72
Width: 1229
GlyphClass: 2
Flags: W
LayerCount: 2
Back
Fore
SplineSet
1075 221 m 1,0,-1
 152 672 l 1,1,-1
 152 774 l 1,2,-1
 1075 1225 l 1,3,-1
 1075 1065 l 1,4,-1
 360 723 l 1,5,-1
 1075 381 l 1,6,-1
 1075 221 l 1,0,-1
152 0 m 1,7,-1
 152 150 l 1,8,-1
 1075 150 l 1,9,-1
 1075 0 l 1,10,-1
 152 0 l 1,7,-1
EndSplineSet
Validated: 1
EndChar

StartChar: greaterequal
Encoding: 8805 8805 73
Width: 1229
GlyphClass: 2
Flags: W
LayerCount: 2
Back
Fore
SplineSet
152 381 m 1,0,-1
 866 723 l 1,1,-1
 152 1065 l 1,2,-1
 152 1225 l 1,3,-1
 1075 774 l 1,4,-1
 1075 672 l 1,5,-1
 152 221 l 1,6,-1
 152 381 l 1,0,-1
152 0 m 1,7,-1
 152 150 l 1,8,-1
 1075 150 l 1,9,-1
 1075 0 l 1,10,-1
 152 0 l 1,7,-1
EndSplineSet
Validated: 1
EndChar

StartChar: lozenge
Encoding: 9674 9674 74
Width: 1229
GlyphClass: 2
Flags: W
LayerCount: 2
Back
Fore
SplineSet
1104 737 m 1,0,-1
 651 0 l 1,1,-1
 575 0 l 1,2,-1
 125 735 l 1,3,-1
 575 1475 l 1,4,-1
 651 1475 l 1,5,-1
 1104 737 l 1,0,-1
920 737 m 1,6,-1
 614 1249 l 1,7,-1
 309 737 l 1,8,-1
 614 223 l 1,9,-1
 920 737 l 1,6,-1
EndSplineSet
Validated: 1
EndChar

StartChar: uniFB01
Encoding: 64257 64257 75
Width: 1229
GlyphClass: 2
Flags: W
LayerCount: 2
Back
Fore
SplineSet
672 961 m 1,0,-1
 426 961 l 1,1,-1
 426 0 l 1,2,-1
 244 0 l 1,3,-1
 244 961 l 1,4,-1
 49 961 l 1,5,-1
 49 1036 l 1,6,-1
 244 1104 l 1,7,-1
 244 1200 l 2,8,9
 244 1390 244 1390 320.5 1478.5 c 128,-1,10
 397 1567 397 1567 575 1567 c 0,11,12
 672 1567 672 1567 772 1530 c 1,13,-1
 725 1389 l 1,14,15
 646 1417 646 1417 582 1417 c 0,16,17
 490 1417 490 1417 458 1366.5 c 128,-1,18
 426 1316 426 1316 426 1202 c 2,19,-1
 426 1098 l 1,20,-1
 672 1098 l 1,21,-1
 672 961 l 1,0,-1
961 1509 m 0,22,23
 1067 1509 1067 1509 1067 1395 c 0,24,25
 1067 1337 1067 1337 1035.5 1308.5 c 128,-1,26
 1004 1280 1004 1280 961 1280 c 0,27,28
 854 1280 854 1280 854 1395 c 0,29,30
 854 1509 854 1509 961 1509 c 0,22,23
1051 0 m 1,31,-1
 868 0 l 1,32,-1
 868 1098 l 1,33,-1
 1051 1098 l 1,34,-1
 1051 0 l 1,31,-1
EndSplineSet
Validated: 1
Ligature2: "'liga' Standard Ligatures in Latin lookup 9 subtable" f i
EndChar

StartChar: uniFB02
Encoding: 64258 64258 76
Width: 1229
GlyphClass: 2
Flags: W
LayerCount: 2
Back
Fore
SplineSet
672 961 m 1,0,-1
 426 961 l 1,1,-1
 426 0 l 1,2,-1
 244 0 l 1,3,-1
 244 961 l 1,4,-1
 49 961 l 1,5,-1
 49 1036 l 1,6,-1
 244 1104 l 1,7,-1
 244 1200 l 2,8,9
 244 1390 244 1390 320.5 1478.5 c 128,-1,10
 397 1567 397 1567 575 1567 c 0,11,12
 672 1567 672 1567 772 1530 c 1,13,-1
 725 1389 l 1,14,15
 646 1417 646 1417 582 1417 c 0,16,17
 490 1417 490 1417 458 1366.5 c 128,-1,18
 426 1316 426 1316 426 1202 c 2,19,-1
 426 1098 l 1,20,-1
 672 1098 l 1,21,-1
 672 961 l 1,0,-1
1051 0 m 1,22,-1
 868 0 l 1,23,-1
 868 1556 l 1,24,-1
 1051 1556 l 1,25,-1
 1051 0 l 1,22,-1
EndSplineSet
Validated: 1
Ligature2: "'liga' Standard Ligatures in Latin lookup 9 subtable" f l
EndChar

StartChar: cyrillicbreve
Encoding: 65555 -1 77
Width: 1229
GlyphClass: 2
Flags: W
LayerCount: 2
Back
Fore
SplineSet
301 1268 m 1,0,1
 352 1327 352 1327 410 1393 c 128,-1,2
 468 1459 468 1459 516 1528 c 1,3,-1
 709 1528 l 1,4,5
 757 1459 757 1459 815 1393 c 128,-1,6
 873 1327 873 1327 924 1268 c 1,7,-1
 924 1241 l 1,8,-1
 823 1241 l 1,9,10
 772 1275 772 1275 719 1317 c 128,-1,11
 666 1359 666 1359 612 1407 c 1,12,13
 560 1359 560 1359 506 1317 c 128,-1,14
 452 1275 452 1275 401 1241 c 1,15,-1
 301 1241 l 1,16,-1
 301 1268 l 1,0,1
748 1587 m 0,17,18
 712 1587 712 1587 676 1601 c 128,-1,19
 640 1615 640 1615 605.5 1632 c 128,-1,20
 571 1649 571 1649 539.5 1663 c 128,-1,21
 508 1677 508 1677 479 1677 c 0,22,23
 439 1677 439 1677 418 1656 c 128,-1,24
 397 1635 397 1635 383 1585 c 1,25,-1
 291 1585 l 1,26,27
 296 1633 296 1633 310 1673.5 c 128,-1,28
 324 1714 324 1714 348 1743.5 c 128,-1,29
 372 1773 372 1773 405 1789.5 c 128,-1,30
 438 1806 438 1806 479 1806 c 0,31,32
 517 1806 517 1806 554 1792 c 128,-1,33
 591 1778 591 1778 625.5 1761 c 128,-1,34
 660 1744 660 1744 691 1730 c 128,-1,35
 722 1716 722 1716 748 1716 c 0,36,37
 788 1716 788 1716 809 1737.5 c 128,-1,38
 830 1759 830 1759 844 1808 c 1,39,-1
 936 1808 l 1,40,41
 932 1760 932 1760 917.5 1719.5 c 128,-1,42
 903 1679 903 1679 879 1649.5 c 128,-1,43
 855 1620 855 1620 822 1603.5 c 128,-1,44
 789 1587 789 1587 748 1587 c 0,17,18
EndSplineSet
Validated: 1
EndChar

StartChar: caroncommaaccent
Encoding: 65556 -1 78
Width: 1229
GlyphClass: 2
Flags: W
LayerCount: 2
Back
Fore
SplineSet
549 1528 m 1,0,1
 569 1553 569 1553 585 1575 c 128,-1,2
 601 1597 601 1597 616 1620 c 128,-1,3
 631 1643 631 1643 645.5 1669.5 c 128,-1,4
 660 1696 660 1696 676 1729 c 1,5,-1
 856 1729 l 1,6,-1
 856 1708 l 1,7,8
 811 1648 811 1648 758 1596.5 c 128,-1,9
 705 1545 705 1545 649 1501 c 1,10,-1
 549 1501 l 1,11,-1
 549 1528 l 1,0,1
915 1507 m 1,12,13
 911 1447 911 1447 889 1397.5 c 128,-1,14
 867 1348 867 1348 829 1313.5 c 128,-1,15
 791 1279 791 1279 736 1260 c 128,-1,16
 681 1241 681 1241 610 1241 c 0,17,18
 464 1241 464 1241 392 1310.5 c 128,-1,19
 320 1380 320 1380 313 1507 c 1,20,-1
 422 1507 l 1,21,22
 426 1464 426 1464 439.5 1439.5 c 128,-1,23
 453 1415 453 1415 477 1402 c 128,-1,24
 501 1389 501 1389 535 1385.5 c 128,-1,25
 569 1382 569 1382 612 1382 c 0,26,27
 648 1382 648 1382 681 1386.5 c 128,-1,28
 714 1391 714 1391 739.5 1404.5 c 128,-1,29
 765 1418 765 1418 782 1442.5 c 128,-1,30
 799 1467 799 1467 803 1507 c 1,31,-1
 915 1507 l 1,12,13
EndSplineSet
Validated: 1
EndChar

StartChar: commaaccent
Encoding: 65557 -1 79
Width: 1229
GlyphClass: 2
Flags: W
LayerCount: 2
Back
Fore
SplineSet
664 1501 m 1,0,-1
 563 1501 l 1,1,2
 507 1545 507 1545 454 1596.5 c 128,-1,3
 401 1648 401 1648 356 1708 c 1,4,-1
 356 1729 l 1,5,-1
 537 1729 l 1,6,7
 553 1696 553 1696 567.5 1669.5 c 128,-1,8
 582 1643 582 1643 596.5 1620 c 128,-1,9
 611 1597 611 1597 627.5 1575 c 128,-1,10
 644 1553 644 1553 664 1528 c 1,11,-1
 664 1501 l 1,0,-1
915 1507 m 1,12,13
 911 1447 911 1447 889 1397.5 c 128,-1,14
 867 1348 867 1348 829 1313.5 c 128,-1,15
 791 1279 791 1279 736 1260 c 128,-1,16
 681 1241 681 1241 610 1241 c 0,17,18
 464 1241 464 1241 392 1310.5 c 128,-1,19
 320 1380 320 1380 313 1507 c 1,20,-1
 422 1507 l 1,21,22
 426 1464 426 1464 439.5 1439.5 c 128,-1,23
 453 1415 453 1415 477 1402 c 128,-1,24
 501 1389 501 1389 535 1385.5 c 128,-1,25
 569 1382 569 1382 612 1382 c 0,26,27
 648 1382 648 1382 681 1386.5 c 128,-1,28
 714 1391 714 1391 739.5 1404.5 c 128,-1,29
 765 1418 765 1418 782 1442.5 c 128,-1,30
 799 1467 799 1467 803 1507 c 1,31,-1
 915 1507 l 1,12,13
EndSplineSet
Validated: 1
EndChar

StartChar: commaaccentrotate
Encoding: 65558 -1 80
Width: 1229
GlyphClass: 2
Flags: W
LayerCount: 2
Back
Fore
SplineSet
915 1507 m 1,0,1
 911 1447 911 1447 889 1397.5 c 128,-1,2
 867 1348 867 1348 829 1313.5 c 128,-1,3
 791 1279 791 1279 736 1260 c 128,-1,4
 681 1241 681 1241 610 1241 c 0,5,6
 464 1241 464 1241 392 1310.5 c 128,-1,7
 320 1380 320 1380 313 1507 c 1,8,-1
 422 1507 l 1,9,10
 426 1464 426 1464 439.5 1439.5 c 128,-1,11
 453 1415 453 1415 477 1402 c 128,-1,12
 501 1389 501 1389 535 1385.5 c 128,-1,13
 569 1382 569 1382 612 1382 c 0,14,15
 648 1382 648 1382 681 1386.5 c 128,-1,16
 714 1391 714 1391 739.5 1404.5 c 128,-1,17
 765 1418 765 1418 782 1442.5 c 128,-1,18
 799 1467 799 1467 803 1507 c 1,19,-1
 915 1507 l 1,0,1
760 1657 m 0,20,21
 760 1628 760 1628 750 1606.5 c 128,-1,22
 740 1585 740 1585 722.5 1569.5 c 128,-1,23
 705 1554 705 1554 682.5 1544 c 128,-1,24
 660 1534 660 1534 635 1528 c 1,25,-1
 629 1487 l 1,26,-1
 543 1487 l 1,27,-1
 532 1577 l 1,28,29
 588 1586 588 1586 620.5 1602 c 128,-1,30
 653 1618 653 1618 653 1655 c 256,31,32
 653 1692 653 1692 624.5 1704 c 128,-1,33
 596 1716 596 1716 553 1716 c 0,34,35
 531 1716 531 1716 511.5 1714.5 c 128,-1,36
 492 1713 492 1713 481 1710 c 1,37,-1
 481 1792 l 1,38,39
 492 1795 492 1795 511 1796.5 c 128,-1,40
 530 1798 530 1798 561 1798 c 0,41,42
 660 1798 660 1798 710 1763.5 c 128,-1,43
 760 1729 760 1729 760 1657 c 0,20,21
EndSplineSet
Validated: 1
EndChar

StartChar: zerosuperior
Encoding: 8304 8304 81
Width: 1229
GlyphClass: 2
Flags: W
LayerCount: 2
Back
Fore
SplineSet
611 672 m 0,0,1
 464 672 464 672 390 780 c 0,2,3
 315 889 315 889 315 1094 c 0,4,5
 315 1507 315 1507 611 1507 c 0,6,7
 759 1507 759 1507 834 1399 c 0,8,9
 910 1290 910 1290 910 1094 c 0,10,11
 909 672 909 672 611 672 c 0,0,1
611 779 m 128,-1,13
 694 779 694 779 739 858 c 0,14,15
 783 936 783 936 783 1086 c 0,16,17
 783 1090 783 1090 783 1094 c 0,18,19
 783 1241 783 1241 739 1320 c 128,-1,20
 695 1399 695 1399 613 1399 c 0,21,-1
 611 1399 l 0,22,23
 530 1398 530 1398 486 1320 c 0,24,25
 443 1244 443 1244 443 1090 c 128,-1,26
 443 936 443 936 486 857 c 0,27,12
 528 779 528 779 611 779 c 128,-1,13
EndSplineSet
Validated: 1
EndChar

StartChar: foursuperior
Encoding: 8308 8308 82
Width: 717
GlyphClass: 2
Flags: W
LayerCount: 2
Back
Fore
SplineSet
713 788 m 1,0,-1
 584 788 l 1,1,-1
 541 586 l 1,2,-1
 414 586 l 1,3,-1
 457 788 l 1,4,-1
 92 788 l 1,5,-1
 115 889 l 1,6,-1
 596 1468 l 1,7,-1
 729 1468 l 1,8,-1
 608 905 l 1,9,-1
 735 905 l 1,10,-1
 713 788 l 1,0,-1
481 905 m 1,11,12
 550 1227 550 1227 571 1300 c 1,13,14
 551 1264 551 1264 461 1151 c 2,15,-1
 256 905 l 1,16,-1
 481 905 l 1,11,12
EndSplineSet
Validated: 1
EndChar

StartChar: fivesuperior
Encoding: 8309 8309 83
Width: 717
GlyphClass: 2
Flags: W
LayerCount: 2
Back
Fore
SplineSet
457 1130 m 0,0,1
 569 1130 569 1130 633.5 1066.5 c 128,-1,2
 698 1003 698 1003 698 891 c 0,3,4
 698 743 698 743 603 656 c 128,-1,5
 508 569 508 569 342 569 c 0,6,7
 227 569 227 569 135 621 c 1,8,-1
 135 754 l 1,9,10
 254 682 254 682 354 682 c 0,11,12
 458 682 458 682 513.5 735.5 c 128,-1,13
 569 789 569 789 569 879 c 0,14,15
 569 942 569 942 524.5 981 c 128,-1,16
 480 1020 480 1020 406 1020 c 0,17,18
 339 1020 339 1020 272 997 c 1,19,-1
 219 1042 l 1,20,-1
 342 1462 l 1,21,-1
 768 1462 l 1,22,-1
 743 1341 l 1,23,-1
 430 1341 l 1,24,-1
 365 1118 l 1,25,26
 408 1130 408 1130 457 1130 c 0,0,1
EndSplineSet
Validated: 1
EndChar

StartChar: sixsuperior
Encoding: 8310 8310 84
Width: 717
GlyphClass: 2
Flags: W
LayerCount: 2
Back
Fore
SplineSet
330 1053 m 1,0,1
 361 1098 361 1098 411.5 1121.5 c 128,-1,2
 462 1145 462 1145 518 1145 c 0,3,4
 614 1145 614 1145 670.5 1082 c 128,-1,5
 727 1019 727 1019 727 915 c 0,6,7
 727 818 727 818 687 737.5 c 128,-1,8
 647 657 647 657 575 612 c 128,-1,9
 503 567 503 567 408 567 c 0,10,11
 293 567 293 567 229.5 639 c 128,-1,12
 166 711 166 711 166 842 c 0,13,14
 166 1012 166 1012 231 1168 c 128,-1,15
 296 1324 296 1324 402.5 1398.5 c 128,-1,16
 509 1473 509 1473 657 1473 c 0,17,18
 724 1473 724 1473 786 1456 c 1,19,-1
 758 1341 l 1,20,21
 699 1360 699 1360 629 1360 c 0,22,23
 517 1360 517 1360 437 1281 c 128,-1,24
 357 1202 357 1202 322 1053 c 1,25,-1
 330 1053 l 1,0,1
420 680 m 0,26,27
 501 680 501 680 549.5 744.5 c 128,-1,28
 598 809 598 809 598 905 c 0,29,30
 598 1034 598 1034 479 1034 c 0,31,32
 432 1034 432 1034 388 1009.5 c 128,-1,33
 344 985 344 985 318.5 945.5 c 128,-1,34
 293 906 293 906 293 838 c 0,35,36
 293 765 293 765 326 722.5 c 128,-1,37
 359 680 359 680 420 680 c 0,26,27
EndSplineSet
Validated: 1
EndChar

StartChar: sevensuperior
Encoding: 8311 8311 85
Width: 717
GlyphClass: 2
Flags: W
LayerCount: 2
Back
Fore
SplineSet
174 586 m 1,0,-1
 641 1348 l 1,1,-1
 250 1348 l 1,2,-1
 274 1462 l 1,3,-1
 813 1462 l 1,4,-1
 795 1368 l 1,5,-1
 328 586 l 1,6,-1
 174 586 l 1,0,-1
EndSplineSet
Validated: 1
EndChar

StartChar: eightsuperior
Encoding: 8312 8312 86
Width: 717
GlyphClass: 2
Flags: W
LayerCount: 2
Back
Fore
SplineSet
539 1479 m 0,0,1
 645 1479 645 1479 707.5 1423 c 128,-1,2
 770 1367 770 1367 770 1278 c 0,3,4
 770 1197 770 1197 715.5 1136.5 c 128,-1,5
 661 1076 661 1076 567 1044 c 1,6,7
 640 997 640 997 670 946 c 128,-1,8
 700 895 700 895 700 831 c 0,9,10
 700 715 700 715 613.5 642 c 128,-1,11
 527 569 527 569 387 569 c 0,12,13
 270 569 270 569 200.5 628 c 128,-1,14
 131 687 131 687 131 788 c 0,15,16
 131 968 131 968 356 1053 c 1,17,18
 295 1099 295 1099 271.5 1141.5 c 128,-1,19
 248 1184 248 1184 248 1247 c 0,20,21
 248 1353 248 1353 328 1416 c 128,-1,22
 408 1479 408 1479 539 1479 c 0,0,1
444 991 m 1,23,24
 344 953 344 953 302 907 c 128,-1,25
 260 861 260 861 260 801 c 0,26,27
 260 742 260 742 300 710 c 128,-1,28
 340 678 340 678 404 678 c 0,29,30
 476 678 476 678 521.5 718.5 c 128,-1,31
 567 759 567 759 567 827 c 0,32,33
 567 876 567 876 532.5 920.5 c 128,-1,34
 498 965 498 965 444 991 c 1,23,24
522 1370 m 0,35,36
 451 1370 451 1370 414 1333.5 c 128,-1,37
 377 1297 377 1297 377 1243 c 0,38,39
 377 1201 377 1201 398 1168 c 128,-1,40
 419 1135 419 1135 475 1098 c 1,41,42
 543 1122 543 1122 573 1144 c 128,-1,43
 603 1166 603 1166 621 1196.5 c 128,-1,44
 639 1227 639 1227 639 1268 c 0,45,46
 639 1316 639 1316 606 1343 c 128,-1,47
 573 1370 573 1370 522 1370 c 0,35,36
EndSplineSet
Validated: 1
EndChar

StartChar: ninesuperior
Encoding: 8313 8313 87
Width: 717
GlyphClass: 2
Flags: W
LayerCount: 2
Back
Fore
SplineSet
598 993 m 1,0,1
 567 948 567 948 516 924.5 c 128,-1,2
 465 901 465 901 410 901 c 0,3,4
 314 901 314 901 257.5 963 c 128,-1,5
 201 1025 201 1025 201 1130 c 0,6,7
 201 1227 201 1227 241 1308 c 128,-1,8
 281 1389 281 1389 353.5 1434 c 128,-1,9
 426 1479 426 1479 520 1479 c 0,10,11
 635 1479 635 1479 698.5 1407 c 128,-1,12
 762 1335 762 1335 762 1204 c 0,13,14
 762 1034 762 1034 696 878 c 128,-1,15
 630 722 630 722 524.5 647.5 c 128,-1,16
 419 573 419 573 270 573 c 0,17,18
 203 573 203 573 141 590 c 1,19,-1
 141 713 l 1,20,21
 202 686 202 686 285 686 c 0,22,23
 406 686 406 686 488.5 765 c 128,-1,24
 571 844 571 844 606 993 c 1,25,-1
 598 993 l 1,0,1
508 1366 m 0,26,27
 429 1366 429 1366 379.5 1302.5 c 128,-1,28
 330 1239 330 1239 330 1141 c 0,29,30
 330 1012 330 1012 449 1012 c 0,31,32
 496 1012 496 1012 540 1036.5 c 128,-1,33
 584 1061 584 1061 609.5 1100.5 c 128,-1,34
 635 1140 635 1140 635 1208 c 0,35,36
 635 1281 635 1281 602 1323.5 c 128,-1,37
 569 1366 569 1366 508 1366 c 0,26,27
EndSplineSet
Validated: 1
EndChar

StartChar: uniFFFC
Encoding: 65532 65532 101
Width: 1229
GlyphClass: 2
Flags: W
LayerCount: 2
Back
Fore
SplineSet
659.5 985 m 128,-1,1
 647 941 647 941 621 909 c 128,-1,2
 595 877 595 877 556 859.5 c 128,-1,3
 517 842 517 842 463 842 c 256,4,5
 409 842 409 842 369.5 859.5 c 128,-1,6
 330 877 330 877 304.5 909 c 128,-1,7
 279 941 279 941 266.5 985 c 128,-1,8
 254 1029 254 1029 254 1083 c 0,9,10
 254 1138 254 1138 266.5 1182.5 c 128,-1,11
 279 1227 279 1227 304.5 1258.5 c 128,-1,12
 330 1290 330 1290 369.5 1307.5 c 128,-1,13
 409 1325 409 1325 463 1325 c 256,14,15
 517 1325 517 1325 556 1307.5 c 128,-1,16
 595 1290 595 1290 621 1258.5 c 128,-1,17
 647 1227 647 1227 659.5 1182.5 c 128,-1,18
 672 1138 672 1138 672 1083 c 0,19,0
 672 1029 672 1029 659.5 985 c 128,-1,1
535 795 m 1,20,-1
 672 795 l 2,21,22
 760 795 760 795 804 768.5 c 128,-1,23
 848 742 848 742 848 676 c 0,24,25
 848 636 848 636 829.5 609 c 128,-1,26
 811 582 811 582 776 575 c 1,27,-1
 776 571 l 1,28,29
 794 568 794 568 809.5 561 c 128,-1,30
 825 554 825 554 836.5 541.5 c 128,-1,31
 848 529 848 529 855 510 c 128,-1,32
 862 491 862 491 862 463 c 0,33,34
 862 398 862 398 818.5 362 c 128,-1,35
 775 326 775 326 700 326 c 2,36,-1
 535 326 l 1,37,-1
 535 795 l 1,20,-1
758 274 m 1,38,-1
 1024 274 l 1,39,-1
 1024 197 l 1,40,-1
 952 197 l 1,41,-1
 952 -45 l 2,42,43
 952 -125 952 -125 908 -163 c 128,-1,44
 864 -201 864 -201 795 -201 c 0,45,46
 764 -201 764 -201 742.5 -198.5 c 128,-1,47
 721 -196 721 -196 709 -193 c 1,48,-1
 709 -111 l 1,49,50
 721 -113 721 -113 740.5 -115 c 128,-1,51
 760 -117 760 -117 784 -117 c 0,52,53
 813 -117 813 -117 832.5 -102.5 c 128,-1,54
 852 -88 852 -88 852 -47 c 2,55,-1
 852 197 l 1,56,-1
 758 197 l 1,57,-1
 758 274 l 1,38,-1
380.5 967.5 m 128,-1,59
 407 926 407 926 463 926 c 0,60,61
 520 926 520 926 545.5 967.5 c 128,-1,62
 571 1009 571 1009 571 1083 c 0,63,64
 571 1158 571 1158 545.5 1199.5 c 128,-1,65
 520 1241 520 1241 463 1241 c 0,66,67
 407 1241 407 1241 380.5 1199.5 c 128,-1,68
 354 1158 354 1158 354 1083 c 0,69,58
 354 1009 354 1009 380.5 967.5 c 128,-1,59
55 1214 m 1,70,-1
 55 1518 l 1,71,-1
 358 1518 l 1,72,-1
 358 1407 l 1,73,-1
 166 1407 l 1,74,-1
 166 1214 l 1,75,-1
 55 1214 l 1,70,-1
55 -383 m 1,76,-1
 55 -80 l 1,77,-1
 166 -80 l 1,78,-1
 166 -274 l 1,79,-1
 358 -274 l 1,80,-1
 358 -383 l 1,81,-1
 55 -383 l 1,76,-1
870 1407 m 1,82,-1
 870 1518 l 1,83,-1
 1174 1518 l 1,84,-1
 1174 1214 l 1,85,-1
 1065 1214 l 1,86,-1
 1065 1407 l 1,87,-1
 870 1407 l 1,82,-1
870 -383 m 1,88,-1
 870 -274 l 1,89,-1
 1065 -274 l 1,90,-1
 1065 -80 l 1,91,-1
 1174 -80 l 1,92,-1
 1174 -383 l 1,93,-1
 870 -383 l 1,88,-1
166 430 m 1,94,-1
 55 430 l 1,95,-1
 55 702 l 1,96,-1
 166 702 l 1,97,-1
 166 430 l 1,94,-1
479 1407 m 1,98,-1
 479 1518 l 1,99,-1
 750 1518 l 1,100,-1
 750 1407 l 1,101,-1
 479 1407 l 1,98,-1
166 39 m 1,102,-1
 55 39 l 1,103,-1
 55 309 l 1,104,-1
 166 309 l 1,105,-1
 166 39 l 1,102,-1
166 823 m 1,106,-1
 55 823 l 1,107,-1
 55 1094 l 1,108,-1
 166 1094 l 1,109,-1
 166 823 l 1,106,-1
1174 430 m 1,110,-1
 1065 430 l 1,111,-1
 1065 702 l 1,112,-1
 1174 702 l 1,113,-1
 1174 430 l 1,110,-1
1174 39 m 1,114,-1
 1065 39 l 1,115,-1
 1065 309 l 1,116,-1
 1174 309 l 1,117,-1
 1174 39 l 1,114,-1
1174 823 m 1,118,-1
 1065 823 l 1,119,-1
 1065 1094 l 1,120,-1
 1174 1094 l 1,121,-1
 1174 823 l 1,118,-1
479 -383 m 1,122,-1
 479 -274 l 1,123,-1
 750 -274 l 1,124,-1
 750 -383 l 1,125,-1
 479 -383 l 1,122,-1
633 530 m 1,126,-1
 633 408 l 1,127,-1
 692 408 l 2,128,129
 730 408 730 408 745 425 c 128,-1,130
 760 442 760 442 760 473 c 0,131,132
 760 498 760 498 745 514 c 128,-1,133
 730 530 730 530 688 530 c 2,134,-1
 633 530 l 1,126,-1
633 610 m 1,135,-1
 684 610 l 2,136,137
 721 610 721 610 735.5 623.5 c 128,-1,138
 750 637 750 637 750 662 c 0,139,140
 750 689 750 689 733.5 701 c 128,-1,141
 717 713 717 713 680 713 c 2,142,-1
 633 713 l 1,143,-1
 633 610 l 1,135,-1
EndSplineSet
Validated: 1
EndChar

StartChar: uniFFFD
Encoding: 65533 65533 102
Width: 1229
GlyphClass: 2
Flags: W
LayerCount: 2
Back
Fore
SplineSet
614 1556 m 1,0,-1
 1227 618 l 1,1,-1
 614 -319 l 1,2,-1
 4 618 l 1,3,-1
 614 1556 l 1,0,-1
668 385 m 1,4,-1
 668 428 l 2,5,6
 668 451 668 451 671.5 468 c 128,-1,7
 675 485 675 485 685 501.5 c 128,-1,8
 695 518 695 518 712.5 535 c 128,-1,9
 730 552 730 552 758 575 c 1,10,11
 793 608 793 608 819.5 636.5 c 128,-1,12
 846 665 846 665 863.5 696 c 128,-1,13
 881 727 881 727 890 762.5 c 128,-1,14
 899 798 899 798 899 844 c 0,15,16
 899 968 899 968 823 1036 c 128,-1,17
 747 1104 747 1104 612 1104 c 0,18,19
 577 1104 577 1104 541 1097 c 128,-1,20
 505 1090 505 1090 470 1077.5 c 128,-1,21
 435 1065 435 1065 402.5 1048.5 c 128,-1,22
 370 1032 370 1032 342 1014 c 1,23,-1
 408 854 l 1,24,25
 463 885 463 885 514 905.5 c 128,-1,26
 565 926 565 926 610 926 c 0,27,28
 663 926 663 926 688 899.5 c 128,-1,29
 713 873 713 873 713 831 c 0,30,31
 713 805 713 805 707.5 785 c 128,-1,32
 702 765 702 765 690 747 c 128,-1,33
 678 729 678 729 659 710.5 c 128,-1,34
 640 692 640 692 612 668 c 0,35,36
 581 640 581 640 559.5 614.5 c 128,-1,37
 538 589 538 589 524.5 562 c 128,-1,38
 511 535 511 535 504.5 505.5 c 128,-1,39
 498 476 498 476 498 440 c 2,40,-1
 498 385 l 1,41,-1
 668 385 l 1,4,-1
477 139 m 0,42,43
 477 74 477 74 509.5 45 c 128,-1,44
 542 16 542 16 592 16 c 0,45,46
 613 16 613 16 633.5 23 c 128,-1,47
 654 30 654 30 670 45 c 128,-1,48
 686 60 686 60 695.5 83.5 c 128,-1,49
 705 107 705 107 705 139 c 0,50,51
 705 173 705 173 695.5 196.5 c 128,-1,52
 686 220 686 220 670 234.5 c 128,-1,53
 654 249 654 249 633.5 255.5 c 128,-1,54
 613 262 613 262 592 262 c 0,55,56
 542 262 542 262 509.5 234 c 128,-1,57
 477 206 477 206 477 139 c 0,42,43
EndSplineSet
Validated: 1
EndChar

StartChar: uni1E3E
Encoding: 7742 7742 103
Width: 1229
GlyphClass: 2
Flags: W
LayerCount: 2
Back
Fore
SplineSet
518 1608 m 1,0,1
 612 1741 612 1741 692 1909 c 1,2,-1
 911 1909 l 1,3,-1
 911 1888 l 1,4,5
 799 1715 799 1715 639 1581 c 1,6,-1
 518 1581 l 1,7,-1
 518 1608 l 1,0,1
532 0 m 1,8,-1
 254 1280 l 1,9,-1
 246 1280 l 1,10,11
 264 1014 264 1014 264 874 c 2,12,-1
 264 0 l 1,13,-1
 113 0 l 1,14,-1
 113 1462 l 1,15,-1
 360 1462 l 1,16,-1
 608 270 l 1,17,-1
 614 270 l 1,18,-1
 864 1462 l 1,19,-1
 1116 1462 l 1,20,-1
 1116 0 l 1,21,-1
 963 0 l 1,22,-1
 963 887 l 2,23,24
 963 989 963 989 977 1278 c 1,25,-1
 969 1278 l 1,26,-1
 686 0 l 1,27,-1
 532 0 l 1,8,-1
EndSplineSet
Validated: 1
EndChar

StartChar: uni1E3F
Encoding: 7743 7743 104
Width: 1229
GlyphClass: 2
Flags: W
LayerCount: 2
Back
Fore
SplineSet
545 1268 m 1,0,1
 639 1401 639 1401 719 1569 c 1,2,-1
 938 1569 l 1,3,-1
 938 1548 l 1,4,5
 826 1375 826 1375 666 1241 c 1,6,-1
 545 1241 l 1,7,-1
 545 1268 l 1,0,1
977 0 m 1,8,-1
 977 707 l 2,9,10
 977 853 977 853 950.5 910 c 128,-1,11
 924 967 924 967 862 967 c 0,12,13
 775 967 775 967 735.5 884 c 128,-1,14
 696 801 696 801 696 606 c 2,15,-1
 696 0 l 1,16,-1
 535 0 l 1,17,-1
 535 707 l 2,18,19
 535 967 535 967 410 967 c 0,20,21
 326 967 326 967 290 887.5 c 128,-1,22
 254 808 254 808 254 569 c 2,23,-1
 254 0 l 1,24,-1
 92 0 l 1,25,-1
 92 1098 l 1,26,-1
 219 1098 l 1,27,-1
 246 950 l 1,28,-1
 256 950 l 1,29,30
 323 1118 323 1118 457 1118 c 0,31,32
 620 1118 620 1118 670 936 c 1,33,-1
 676 936 l 1,34,35
 752 1118 752 1118 895 1118 c 0,36,37
 1023 1118 1023 1118 1081 1025.5 c 128,-1,38
 1139 933 1139 933 1139 717 c 2,39,-1
 1139 0 l 1,40,-1
 977 0 l 1,8,-1
EndSplineSet
Validated: 1
EndChar

StartChar: uni1E00
Encoding: 7680 7680 105
Width: 1229
GlyphClass: 2
Flags: W
LayerCount: 2
Back
Fore
SplineSet
842 -338 m 0,0,1
 842 -389 842 -389 824.5 -429.5 c 128,-1,2
 807 -470 807 -470 776 -498 c 128,-1,3
 745 -526 745 -526 703 -540.5 c 128,-1,4
 661 -555 661 -555 612 -555 c 0,5,6
 562 -555 562 -555 521 -540.5 c 128,-1,7
 480 -526 480 -526 450.5 -498 c 128,-1,8
 421 -470 421 -470 405 -430.5 c 128,-1,9
 389 -391 389 -391 389 -340 c 256,10,11
 389 -289 389 -289 405 -249.5 c 128,-1,12
 421 -210 421 -210 450.5 -182 c 128,-1,13
 480 -154 480 -154 521 -139.5 c 128,-1,14
 562 -125 562 -125 612 -125 c 0,15,16
 660 -125 660 -125 702 -139.5 c 128,-1,17
 744 -154 744 -154 775 -181.5 c 128,-1,18
 806 -209 806 -209 824 -248.5 c 128,-1,19
 842 -288 842 -288 842 -338 c 0,0,1
725 -340 m 256,20,21
 725 -287 725 -287 693.5 -257 c 128,-1,22
 662 -227 662 -227 612 -227 c 0,23,24
 563 -227 563 -227 531.5 -257 c 128,-1,25
 500 -287 500 -287 500 -340 c 256,26,27
 500 -393 500 -393 528.5 -423 c 128,-1,28
 557 -453 557 -453 612 -453 c 0,29,30
 662 -453 662 -453 693.5 -423 c 128,-1,31
 725 -393 725 -393 725 -340 c 256,20,21
1004 0 m 1,32,-1
 860 453 l 1,33,-1
 369 453 l 1,34,-1
 223 0 l 1,35,-1
 33 0 l 1,36,-1
 516 1468 l 1,37,-1
 711 1468 l 1,38,-1
 1196 0 l 1,39,-1
 1004 0 l 1,32,-1
807 618 m 1,40,-1
 674 1042 l 2,41,42
 635 1166 635 1166 612 1268 c 1,43,44
 592 1169 592 1169 566 1085 c 2,45,-1
 422 618 l 1,46,-1
 807 618 l 1,40,-1
EndSplineSet
Validated: 1
EndChar

StartChar: uni1E01
Encoding: 7681 7681 106
Width: 1229
GlyphClass: 2
Flags: W
LayerCount: 2
Back
Fore
SplineSet
835 -338 m 0,0,1
 835 -389 835 -389 817.5 -429.5 c 128,-1,2
 800 -470 800 -470 769 -498 c 128,-1,3
 738 -526 738 -526 696 -540.5 c 128,-1,4
 654 -555 654 -555 605 -555 c 0,5,6
 555 -555 555 -555 514 -540.5 c 128,-1,7
 473 -526 473 -526 443.5 -498 c 128,-1,8
 414 -470 414 -470 398 -430.5 c 128,-1,9
 382 -391 382 -391 382 -340 c 256,10,11
 382 -289 382 -289 398 -249.5 c 128,-1,12
 414 -210 414 -210 443.5 -182 c 128,-1,13
 473 -154 473 -154 514 -139.5 c 128,-1,14
 555 -125 555 -125 605 -125 c 0,15,16
 653 -125 653 -125 695 -139.5 c 128,-1,17
 737 -154 737 -154 768 -181.5 c 128,-1,18
 799 -209 799 -209 817 -248.5 c 128,-1,19
 835 -288 835 -288 835 -338 c 0,0,1
718 -340 m 256,20,21
 718 -287 718 -287 686.5 -257 c 128,-1,22
 655 -227 655 -227 605 -227 c 0,23,24
 556 -227 556 -227 524.5 -257 c 128,-1,25
 493 -287 493 -287 493 -340 c 256,26,27
 493 -393 493 -393 521.5 -423 c 128,-1,28
 550 -453 550 -453 605 -453 c 0,29,30
 655 -453 655 -453 686.5 -423 c 128,-1,31
 718 -393 718 -393 718 -340 c 256,20,21
895 0 m 1,32,-1
 858 152 l 1,33,-1
 850 152 l 1,34,35
 773 55 773 55 692 17.5 c 128,-1,36
 611 -20 611 -20 483 -20 c 0,37,38
 320 -20 320 -20 227.5 66 c 128,-1,39
 135 152 135 152 135 307 c 0,40,41
 135 639 135 639 645 655 c 1,42,-1
 848 662 l 1,43,-1
 848 731 l 2,44,45
 848 967 848 967 604 967 c 0,46,47
 457 967 457 967 276 885 c 1,48,-1
 213 1022 l 1,49,50
 409 1118 409 1118 596 1118 c 0,51,52
 823 1118 823 1118 924.5 1031 c 128,-1,53
 1026 944 1026 944 1026 752 c 2,54,-1
 1026 0 l 1,55,-1
 895 0 l 1,32,-1
846 537 m 1,56,-1
 684 530 l 2,57,58
 488 522 488 522 406 468.5 c 128,-1,59
 324 415 324 415 324 305 c 0,60,61
 324 127 324 127 524 127 c 0,62,63
 671 127 671 127 758.5 208.5 c 128,-1,64
 846 290 846 290 846 438 c 2,65,-1
 846 537 l 1,56,-1
EndSplineSet
Validated: 1
EndChar

StartChar: uni1F4D
Encoding: 8013 8013 107
Width: 1229
GlyphClass: 2
Flags: W
LayerCount: 2
Back
Fore
SplineSet
761 -20 m 0
 229 -20 229 -20 229 735 c 0
 229 1485 229 1485 763 1485 c 0
 1019 1485 1019 1485 1155.5 1289.5 c 0
 1292 1094 1292 1094 1292 733 c 256
 1292 372 1292 372 1154 176 c 0
 1016 -20 1016 -20 761 -20 c 0
761 143 m 0
 934 143 934 143 1014.5 288 c 0
 1095 433 1095 433 1095 733 c 0
 1095 1036 1095 1036 1013.5 1178.5 c 0
 932 1321 932 1321 763 1321 c 0
 426 1321 426 1321 426 733 c 0
 426 143 426 143 761 143 c 0
EndSplineSet
Refer: 108 -1 N 1 0 0 1 -613 0 2
Validated: 1
EndChar

StartChar: dasiaoxia
Encoding: 65559 -1 108
Width: 1229
GlyphClass: 2
Flags: W
LayerCount: 2
Back
Fore
SplineSet
907 1507 m 1,0,1
 903 1447 903 1447 881 1397.5 c 128,-1,2
 859 1348 859 1348 821 1313.5 c 128,-1,3
 783 1279 783 1279 728 1260 c 128,-1,4
 673 1241 673 1241 602 1241 c 0,5,6
 456 1241 456 1241 383.5 1310.5 c 128,-1,7
 311 1380 311 1380 305 1507 c 1,8,-1
 414 1507 l 1,9,10
 418 1464 418 1464 431.5 1439.5 c 128,-1,11
 445 1415 445 1415 469 1402 c 128,-1,12
 493 1389 493 1389 526.5 1385.5 c 128,-1,13
 560 1382 560 1382 604 1382 c 0,14,15
 640 1382 640 1382 672.5 1386.5 c 128,-1,16
 705 1391 705 1391 730.5 1404.5 c 128,-1,17
 756 1418 756 1418 773 1442.5 c 128,-1,18
 790 1467 790 1467 795 1507 c 1,19,-1
 907 1507 l 1,0,1
748 1587 m 0,20,21
 712 1587 712 1587 676 1601 c 128,-1,22
 640 1615 640 1615 605.5 1632 c 128,-1,23
 571 1649 571 1649 539.5 1663 c 128,-1,24
 508 1677 508 1677 479 1677 c 0,25,26
 439 1677 439 1677 418 1656 c 128,-1,27
 397 1635 397 1635 383 1585 c 1,28,-1
 291 1585 l 1,29,30
 296 1633 296 1633 310 1673.5 c 128,-1,31
 324 1714 324 1714 348 1743.5 c 128,-1,32
 372 1773 372 1773 405 1789.5 c 128,-1,33
 438 1806 438 1806 479 1806 c 0,34,35
 517 1806 517 1806 554 1792 c 128,-1,36
 591 1778 591 1778 625.5 1761 c 128,-1,37
 660 1744 660 1744 691 1730 c 128,-1,38
 722 1716 722 1716 748 1716 c 0,39,40
 788 1716 788 1716 809 1737.5 c 128,-1,41
 830 1759 830 1759 844 1808 c 1,42,-1
 936 1808 l 1,43,44
 932 1760 932 1760 917.5 1719.5 c 128,-1,45
 903 1679 903 1679 879 1649.5 c 128,-1,46
 855 1620 855 1620 822 1603.5 c 128,-1,47
 789 1587 789 1587 748 1587 c 0,20,21
EndSplineSet
Validated: 1
EndChar

StartChar: uniFB03
Encoding: 64259 64259 109
Width: 1229
GlyphClass: 2
Flags: W
LayerCount: 2
Back
Fore
SplineSet
1065 0 m 1,0,-1
 901 0 l 1,1,-1
 901 971 l 1,2,-1
 698 971 l 1,3,-1
 698 0 l 1,4,-1
 535 0 l 1,5,-1
 535 971 l 1,6,-1
 330 971 l 1,7,-1
 330 0 l 1,8,-1
 166 0 l 1,9,-1
 166 971 l 1,10,-1
 66 971 l 1,11,-1
 66 1036 l 1,12,-1
 166 1098 l 1,13,-1
 166 1180 l 2,14,15
 166 1286 166 1286 186 1356.5 c 128,-1,16
 206 1427 206 1427 244.5 1469 c 128,-1,17
 283 1511 283 1511 339 1528.5 c 128,-1,18
 395 1546 395 1546 467 1546 c 0,19,20
 516 1546 516 1546 559.5 1535 c 128,-1,21
 603 1524 603 1524 637 1511 c 1,22,23
 675 1540 675 1540 726 1553.5 c 128,-1,24
 777 1567 777 1567 840 1567 c 0,25,26
 892 1567 892 1567 937.5 1555.5 c 128,-1,27
 983 1544 983 1544 1020 1530 c 1,28,-1
 979 1399 l 1,29,30
 950 1410 950 1410 915.5 1418.5 c 128,-1,31
 881 1427 881 1427 844 1427 c 0,32,33
 806 1427 806 1427 778.5 1416 c 128,-1,34
 751 1405 751 1405 733 1379 c 128,-1,35
 715 1353 715 1353 706.5 1309.5 c 128,-1,36
 698 1266 698 1266 698 1202 c 2,37,-1
 698 1098 l 1,38,-1
 1065 1098 l 1,39,-1
 1065 0 l 1,0,-1
330 1098 m 1,40,-1
 535 1098 l 1,41,-1
 535 1200 l 2,42,43
 535 1315 535 1315 559 1393 c 1,44,45
 539 1399 539 1399 516.5 1403 c 128,-1,46
 494 1407 494 1407 471 1407 c 0,47,48
 436 1407 436 1407 409.5 1396 c 128,-1,49
 383 1385 383 1385 365.5 1359 c 128,-1,50
 348 1333 348 1333 339 1289.5 c 128,-1,51
 330 1246 330 1246 330 1182 c 2,52,-1
 330 1098 l 1,40,-1
EndSplineSet
Validated: 1
Ligature2: "'liga' Standard Ligatures in Latin lookup 9 subtable" f f i
EndChar

StartChar: uniFB04
Encoding: 64260 64260 110
Width: 1229
GlyphClass: 2
Flags: W
LayerCount: 2
Back
Fore
SplineSet
840 971 m 1,0,-1
 698 971 l 1,1,-1
 698 0 l 1,2,-1
 535 0 l 1,3,-1
 535 971 l 1,4,-1
 330 971 l 1,5,-1
 330 0 l 1,6,-1
 166 0 l 1,7,-1
 166 971 l 1,8,-1
 66 971 l 1,9,-1
 66 1036 l 1,10,-1
 166 1098 l 1,11,-1
 166 1180 l 2,12,13
 166 1286 166 1286 186 1356.5 c 128,-1,14
 206 1427 206 1427 244.5 1469 c 128,-1,15
 283 1511 283 1511 339 1528.5 c 128,-1,16
 395 1546 395 1546 467 1546 c 0,17,18
 516 1546 516 1546 559.5 1535 c 128,-1,19
 603 1524 603 1524 637 1511 c 1,20,21
 675 1540 675 1540 726 1553.5 c 128,-1,22
 777 1567 777 1567 840 1567 c 0,23,24
 888 1567 888 1567 934 1556 c 1,25,-1
 1065 1556 l 1,26,-1
 1065 0 l 1,27,-1
 901 0 l 1,28,-1
 901 1421 l 1,29,30
 887 1424 887 1424 872.5 1425.5 c 128,-1,31
 858 1427 858 1427 844 1427 c 0,32,33
 806 1427 806 1427 778.5 1416 c 128,-1,34
 751 1405 751 1405 733 1379 c 128,-1,35
 715 1353 715 1353 706.5 1309.5 c 128,-1,36
 698 1266 698 1266 698 1202 c 2,37,-1
 698 1098 l 1,38,-1
 840 1098 l 1,39,-1
 840 971 l 1,0,-1
330 1098 m 1,40,-1
 535 1098 l 1,41,-1
 535 1200 l 2,42,43
 535 1315 535 1315 559 1393 c 1,44,45
 539 1399 539 1399 516.5 1403 c 128,-1,46
 494 1407 494 1407 471 1407 c 0,47,48
 436 1407 436 1407 409.5 1396 c 128,-1,49
 383 1385 383 1385 365.5 1359 c 128,-1,50
 348 1333 348 1333 339 1289.5 c 128,-1,51
 330 1246 330 1246 330 1182 c 2,52,-1
 330 1098 l 1,40,-1
EndSplineSet
Validated: 1
Ligature2: "'liga' Standard Ligatures in Latin lookup 9 subtable" f f l
EndChar

StartChar: uni04C0.alt
Encoding: 65560 -1 111
Width: 1229
GlyphClass: 2
Flags: W
LayerCount: 2
Back
Fore
SplineSet
625 -238 m 0,0,1
 625 -132 625 -132 485 0 c 1,2,-1
 614 0 l 1,3,4
 640 -19 640 -19 668.5 -45 c 128,-1,5
 697 -71 697 -71 720.5 -103 c 128,-1,6
 744 -135 744 -135 759 -172.5 c 128,-1,7
 774 -210 774 -210 774 -252 c 0,8,9
 774 -342 774 -342 724 -394 c 128,-1,10
 674 -446 674 -446 573 -446 c 0,11,12
 544 -446 544 -446 512.5 -442 c 128,-1,13
 481 -438 481 -438 455 -430 c 1,14,-1
 455 -317 l 1,15,16
 469 -321 469 -321 491.5 -323.5 c 128,-1,17
 514 -326 514 -326 539 -326 c 0,18,19
 573 -326 573 -326 599 -304.5 c 128,-1,20
 625 -283 625 -283 625 -238 c 0,0,1
EndSplineSet
Validated: 1
EndChar

StartChar: uni04CF.alt
Encoding: 65561 -1 112
Width: 1229
GlyphClass: 2
Flags: W
LayerCount: 2
Back
Fore
SplineSet
793 166 m 1,0,-1
 793 -129 l 1,1,2
 792 -195 792 -195 779 -246 c 128,-1,3
 766 -297 766 -297 737.5 -332 c 128,-1,4
 709 -367 709 -367 664.5 -385 c 128,-1,5
 620 -403 620 -403 557 -403 c 0,6,7
 519 -403 519 -403 487.5 -394.5 c 128,-1,8
 456 -386 456 -386 434 -377 c 1,9,-1
 434 -227 l 1,10,11
 448 -234 448 -234 477.5 -241 c 128,-1,12
 507 -248 507 -248 541 -248 c 0,13,14
 587 -248 587 -248 612 -223.5 c 128,-1,15
 637 -199 637 -199 637 -150 c 2,16,-1
 637 166 l 1,17,-1
 793 166 l 1,0,-1
EndSplineSet
Validated: 1
EndChar

StartChar: uni1EA0
Encoding: 7840 7840 113
Width: 1229
GlyphClass: 2
Flags: W
LayerCount: 2
Back
Fore
SplineSet
508 -246 m 0,0,1
 508 -186 508 -186 538.5 -158.5 c 128,-1,2
 569 -131 569 -131 614 -131 c 0,3,4
 658 -131 658 -131 689.5 -158.5 c 128,-1,5
 721 -186 721 -186 721 -246 c 0,6,7
 721 -275 721 -275 712.5 -296.5 c 128,-1,8
 704 -318 704 -318 689.5 -332 c 128,-1,9
 675 -346 675 -346 655.5 -353 c 128,-1,10
 636 -360 636 -360 614 -360 c 0,11,12
 569 -360 569 -360 538.5 -332.5 c 128,-1,13
 508 -305 508 -305 508 -246 c 0,0,1
1004 0 m 1,14,-1
 860 453 l 1,15,-1
 369 453 l 1,16,-1
 223 0 l 1,17,-1
 33 0 l 1,18,-1
 516 1468 l 1,19,-1
 711 1468 l 1,20,-1
 1196 0 l 1,21,-1
 1004 0 l 1,14,-1
807 618 m 1,22,-1
 674 1042 l 2,23,24
 635 1166 635 1166 612 1268 c 1,25,26
 592 1169 592 1169 566 1085 c 2,27,-1
 422 618 l 1,28,-1
 807 618 l 1,22,-1
EndSplineSet
Validated: 1
EndChar

StartChar: uni1EA1
Encoding: 7841 7841 114
Width: 1229
GlyphClass: 2
Flags: W
LayerCount: 2
Back
Fore
SplineSet
489 -246 m 0,0,1
 489 -186 489 -186 519.5 -158.5 c 128,-1,2
 550 -131 550 -131 595 -131 c 0,3,4
 639 -131 639 -131 670.5 -158.5 c 128,-1,5
 702 -186 702 -186 702 -246 c 0,6,7
 702 -275 702 -275 693.5 -296.5 c 128,-1,8
 685 -318 685 -318 670.5 -332 c 128,-1,9
 656 -346 656 -346 636.5 -353 c 128,-1,10
 617 -360 617 -360 595 -360 c 0,11,12
 550 -360 550 -360 519.5 -332.5 c 128,-1,13
 489 -305 489 -305 489 -246 c 0,0,1
895 0 m 1,14,-1
 858 152 l 1,15,-1
 850 152 l 1,16,17
 773 55 773 55 692 17.5 c 128,-1,18
 611 -20 611 -20 483 -20 c 0,19,20
 320 -20 320 -20 227.5 66 c 128,-1,21
 135 152 135 152 135 307 c 0,22,23
 135 639 135 639 645 655 c 1,24,-1
 848 662 l 1,25,-1
 848 731 l 2,26,27
 848 967 848 967 604 967 c 0,28,29
 457 967 457 967 276 885 c 1,30,-1
 213 1022 l 1,31,32
 409 1118 409 1118 596 1118 c 0,33,34
 823 1118 823 1118 924.5 1031 c 128,-1,35
 1026 944 1026 944 1026 752 c 2,36,-1
 1026 0 l 1,37,-1
 895 0 l 1,14,-1
846 537 m 1,38,-1
 684 530 l 2,39,40
 488 522 488 522 406 468.5 c 128,-1,41
 324 415 324 415 324 305 c 0,42,43
 324 127 324 127 524 127 c 0,44,45
 671 127 671 127 758.5 208.5 c 128,-1,46
 846 290 846 290 846 438 c 2,47,-1
 846 537 l 1,38,-1
EndSplineSet
Validated: 1
EndChar

StartChar: uni1EA2
Encoding: 7842 7842 115
Width: 1229
GlyphClass: 2
Flags: W
LayerCount: 2
Back
Fore
SplineSet
834 1829 m 0,0,1
 834 1790 834 1790 820.5 1761 c 128,-1,2
 807 1732 807 1732 784.5 1711.5 c 128,-1,3
 762 1691 762 1691 732 1678 c 128,-1,4
 702 1665 702 1665 668 1657 c 1,5,-1
 658 1546 l 1,6,-1
 545 1546 l 1,7,-1
 531 1722 l 1,8,9
 568 1728 568 1728 597.5 1736 c 128,-1,10
 627 1744 627 1744 648 1756 c 128,-1,11
 669 1768 669 1768 680.5 1784.5 c 128,-1,12
 692 1801 692 1801 692 1825 c 256,13,14
 692 1849 692 1849 682 1865 c 128,-1,15
 672 1881 672 1881 654 1890.5 c 128,-1,16
 636 1900 636 1900 611 1903.5 c 128,-1,17
 586 1907 586 1907 557 1907 c 0,18,19
 529 1907 529 1907 503 1905.5 c 128,-1,20
 477 1904 477 1904 461 1901 c 1,21,-1
 461 2009 l 1,22,23
 477 2012 477 2012 502 2014.5 c 128,-1,24
 527 2017 527 2017 568 2017 c 0,25,26
 701 2017 701 2017 767.5 1971.5 c 128,-1,27
 834 1926 834 1926 834 1829 c 0,0,1
1004 0 m 1,28,-1
 860 453 l 1,29,-1
 369 453 l 1,30,-1
 223 0 l 1,31,-1
 33 0 l 1,32,-1
 516 1468 l 1,33,-1
 711 1468 l 1,34,-1
 1196 0 l 1,35,-1
 1004 0 l 1,28,-1
807 618 m 1,36,-1
 674 1042 l 2,37,38
 635 1166 635 1166 612 1268 c 1,39,40
 592 1169 592 1169 566 1085 c 2,41,-1
 422 618 l 1,42,-1
 807 618 l 1,36,-1
EndSplineSet
Validated: 1
EndChar

StartChar: uni1EA3
Encoding: 7843 7843 116
Width: 1229
GlyphClass: 2
Flags: W
LayerCount: 2
Back
Fore
SplineSet
826 1491 m 0,0,1
 826 1452 826 1452 812.5 1423 c 128,-1,2
 799 1394 799 1394 776.5 1373.5 c 128,-1,3
 754 1353 754 1353 724 1340 c 128,-1,4
 694 1327 694 1327 660 1319 c 1,5,-1
 650 1208 l 1,6,-1
 537 1208 l 1,7,-1
 523 1384 l 1,8,9
 560 1390 560 1390 589.5 1398 c 128,-1,10
 619 1406 619 1406 640 1418 c 128,-1,11
 661 1430 661 1430 672.5 1446.5 c 128,-1,12
 684 1463 684 1463 684 1487 c 256,13,14
 684 1511 684 1511 674 1527 c 128,-1,15
 664 1543 664 1543 646 1552.5 c 128,-1,16
 628 1562 628 1562 603 1565.5 c 128,-1,17
 578 1569 578 1569 549 1569 c 0,18,19
 521 1569 521 1569 495 1567.5 c 128,-1,20
 469 1566 469 1566 453 1563 c 1,21,-1
 453 1671 l 1,22,23
 469 1674 469 1674 494 1676.5 c 128,-1,24
 519 1679 519 1679 560 1679 c 0,25,26
 693 1679 693 1679 759.5 1633.5 c 128,-1,27
 826 1588 826 1588 826 1491 c 0,0,1
895 0 m 1,28,-1
 858 152 l 1,29,-1
 850 152 l 1,30,31
 773 55 773 55 692 17.5 c 128,-1,32
 611 -20 611 -20 483 -20 c 0,33,34
 320 -20 320 -20 227.5 66 c 128,-1,35
 135 152 135 152 135 307 c 0,36,37
 135 639 135 639 645 655 c 1,38,-1
 848 662 l 1,39,-1
 848 731 l 2,40,41
 848 967 848 967 604 967 c 0,42,43
 457 967 457 967 276 885 c 1,44,-1
 213 1022 l 1,45,46
 409 1118 409 1118 596 1118 c 0,47,48
 823 1118 823 1118 924.5 1031 c 128,-1,49
 1026 944 1026 944 1026 752 c 2,50,-1
 1026 0 l 1,51,-1
 895 0 l 1,28,-1
846 537 m 1,52,-1
 684 530 l 2,53,54
 488 522 488 522 406 468.5 c 128,-1,55
 324 415 324 415 324 305 c 0,56,57
 324 127 324 127 524 127 c 0,58,59
 671 127 671 127 758.5 208.5 c 128,-1,60
 846 290 846 290 846 438 c 2,61,-1
 846 537 l 1,52,-1
EndSplineSet
Validated: 1
EndChar

StartChar: uni1EA4
Encoding: 7844 7844 117
Width: 1229
GlyphClass: 2
Flags: W
LayerCount: 2
Back
Fore
SplineSet
1004 0 m 1
 860 453 l 1
 369 453 l 1
 223 0 l 1
 33 0 l 1
 516 1468 l 1
 711 1468 l 1
 1196 0 l 1
 1004 0 l 1
807 618 m 1
 674 1042 l 2
 635 1166 635 1166 612 1268 c 1
 592 1169 592 1169 566 1085 c 2
 422 618 l 1
 807 618 l 1
EndSplineSet
Refer: 202 -1 N 1 0 0 1 121 338 2
Validated: 1
EndChar

StartChar: uni1EA5
Encoding: 7845 7845 118
Width: 1229
GlyphClass: 2
Flags: W
LayerCount: 2
Back
Fore
SplineSet
895 0 m 1
 858 152 l 1
 850 152 l 1
 773 55 773 55 692 17.5 c 0
 611 -20 611 -20 483 -20 c 0
 320 -20 320 -20 227.5 66 c 0
 135 152 135 152 135 307 c 0
 135 639 135 639 645 655 c 1
 848 662 l 1
 848 731 l 2
 848 967 848 967 604 967 c 0
 457 967 457 967 276 885 c 1
 213 1022 l 1
 409 1118 409 1118 596 1118 c 0
 823 1118 823 1118 924.5 1031 c 0
 1026 944 1026 944 1026 752 c 2
 1026 0 l 1
 895 0 l 1
846 537 m 1
 684 530 l 2
 488 522 488 522 406 468.5 c 0
 324 415 324 415 324 305 c 0
 324 127 324 127 524 127 c 0
 671 127 671 127 758.5 208.5 c 0
 846 290 846 290 846 438 c 2
 846 537 l 1
EndSplineSet
Refer: 202 -1 N 1 0 0 1 125 0 2
Validated: 1
EndChar

StartChar: uni1EA6
Encoding: 7846 7846 119
Width: 1229
GlyphClass: 2
Flags: W
LayerCount: 2
Back
Fore
SplineSet
1004 0 m 1
 860 453 l 1
 369 453 l 1
 223 0 l 1
 33 0 l 1
 516 1468 l 1
 711 1468 l 1
 1196 0 l 1
 1004 0 l 1
807 618 m 1
 674 1042 l 2
 635 1166 635 1166 612 1268 c 1
 592 1169 592 1169 566 1085 c 2
 422 618 l 1
 807 618 l 1
EndSplineSet
Refer: 203 -1 N 1 0 0 1 -108 338 2
Validated: 1
EndChar

StartChar: uni1EA7
Encoding: 7847 7847 120
Width: 1229
GlyphClass: 2
Flags: W
LayerCount: 2
Back
Fore
SplineSet
895 0 m 1
 858 152 l 1
 850 152 l 1
 773 55 773 55 692 17.5 c 0
 611 -20 611 -20 483 -20 c 0
 320 -20 320 -20 227.5 66 c 0
 135 152 135 152 135 307 c 0
 135 639 135 639 645 655 c 1
 848 662 l 1
 848 731 l 2
 848 967 848 967 604 967 c 0
 457 967 457 967 276 885 c 1
 213 1022 l 1
 409 1118 409 1118 596 1118 c 0
 823 1118 823 1118 924.5 1031 c 0
 1026 944 1026 944 1026 752 c 2
 1026 0 l 1
 895 0 l 1
846 537 m 1
 684 530 l 2
 488 522 488 522 406 468.5 c 0
 324 415 324 415 324 305 c 0
 324 127 324 127 524 127 c 0
 671 127 671 127 758.5 208.5 c 0
 846 290 846 290 846 438 c 2
 846 537 l 1
EndSplineSet
Refer: 203 -1 N 1 0 0 1 -103 0 2
Validated: 1
EndChar

StartChar: uni1EA8
Encoding: 7848 7848 121
Width: 1229
GlyphClass: 2
Flags: W
LayerCount: 2
Back
Fore
SplineSet
1004 0 m 1
 860 453 l 1
 369 453 l 1
 223 0 l 1
 33 0 l 1
 516 1468 l 1
 711 1468 l 1
 1196 0 l 1
 1004 0 l 1
807 618 m 1
 674 1042 l 2
 635 1166 635 1166 612 1268 c 1
 592 1169 592 1169 566 1085 c 2
 422 618 l 1
 807 618 l 1
EndSplineSet
Refer: 204 -1 N 1 0 0 1 88 338 2
Validated: 1
EndChar

StartChar: uni1EA9
Encoding: 7849 7849 122
Width: 1229
GlyphClass: 2
Flags: W
LayerCount: 2
Back
Fore
SplineSet
895 0 m 1
 858 152 l 1
 850 152 l 1
 773 55 773 55 692 17.5 c 0
 611 -20 611 -20 483 -20 c 0
 320 -20 320 -20 227.5 66 c 0
 135 152 135 152 135 307 c 0
 135 639 135 639 645 655 c 1
 848 662 l 1
 848 731 l 2
 848 967 848 967 604 967 c 0
 457 967 457 967 276 885 c 1
 213 1022 l 1
 409 1118 409 1118 596 1118 c 0
 823 1118 823 1118 924.5 1031 c 0
 1026 944 1026 944 1026 752 c 2
 1026 0 l 1
 895 0 l 1
846 537 m 1
 684 530 l 2
 488 522 488 522 406 468.5 c 0
 324 415 324 415 324 305 c 0
 324 127 324 127 524 127 c 0
 671 127 671 127 758.5 208.5 c 0
 846 290 846 290 846 438 c 2
 846 537 l 1
EndSplineSet
Refer: 204 -1 N 1 0 0 1 92 0 2
Validated: 1
EndChar

StartChar: uni1EAA
Encoding: 7850 7850 123
Width: 1229
GlyphClass: 2
Flags: W
LayerCount: 2
Back
Fore
SplineSet
1004 0 m 1
 860 453 l 1
 369 453 l 1
 223 0 l 1
 33 0 l 1
 516 1468 l 1
 711 1468 l 1
 1196 0 l 1
 1004 0 l 1
807 618 m 1
 674 1042 l 2
 635 1166 635 1166 612 1268 c 1
 592 1169 592 1169 566 1085 c 2
 422 618 l 1
 807 618 l 1
EndSplineSet
Refer: 205 -1 N 1 0 0 1 8 338 2
Validated: 1
EndChar

StartChar: uni1EAB
Encoding: 7851 7851 124
Width: 1229
GlyphClass: 2
Flags: W
LayerCount: 2
Back
Fore
SplineSet
895 0 m 1
 858 152 l 1
 850 152 l 1
 773 55 773 55 692 17.5 c 0
 611 -20 611 -20 483 -20 c 0
 320 -20 320 -20 227.5 66 c 0
 135 152 135 152 135 307 c 0
 135 639 135 639 645 655 c 1
 848 662 l 1
 848 731 l 2
 848 967 848 967 604 967 c 0
 457 967 457 967 276 885 c 1
 213 1022 l 1
 409 1118 409 1118 596 1118 c 0
 823 1118 823 1118 924.5 1031 c 0
 1026 944 1026 944 1026 752 c 2
 1026 0 l 1
 895 0 l 1
846 537 m 1
 684 530 l 2
 488 522 488 522 406 468.5 c 0
 324 415 324 415 324 305 c 0
 324 127 324 127 524 127 c 0
 671 127 671 127 758.5 208.5 c 0
 846 290 846 290 846 438 c 2
 846 537 l 1
EndSplineSet
Refer: 205 -1 N 1 0 0 1 12 0 2
Validated: 1
EndChar

StartChar: uni1EAC
Encoding: 7852 7852 125
Width: 1229
GlyphClass: 2
Flags: W
LayerCount: 2
Back
Fore
SplineSet
508 -246 m 0,0,1
 508 -186 508 -186 538.5 -158.5 c 128,-1,2
 569 -131 569 -131 614 -131 c 0,3,4
 658 -131 658 -131 689.5 -158.5 c 128,-1,5
 721 -186 721 -186 721 -246 c 0,6,7
 721 -275 721 -275 712.5 -296.5 c 128,-1,8
 704 -318 704 -318 689.5 -332 c 128,-1,9
 675 -346 675 -346 655.5 -353 c 128,-1,10
 636 -360 636 -360 614 -360 c 0,11,12
 569 -360 569 -360 538.5 -332.5 c 128,-1,13
 508 -305 508 -305 508 -246 c 0,0,1
946 1579 m 1,14,-1
 825 1579 l 1,15,16
 740 1635 740 1635 614 1765 c 1,17,18
 481 1629 481 1629 403 1579 c 1,19,-1
 283 1579 l 1,20,-1
 283 1606 l 1,21,22
 308 1635 308 1635 342 1673 c 0,23,24
 481 1828 481 1828 518 1907 c 1,25,-1
 711 1907 l 1,26,27
 748 1828 748 1828 887 1673 c 1,28,-1
 946 1606 l 1,29,-1
 946 1579 l 1,14,-1
1004 0 m 1,30,-1
 860 453 l 1,31,-1
 369 453 l 1,32,-1
 223 0 l 1,33,-1
 33 0 l 1,34,-1
 516 1468 l 1,35,-1
 711 1468 l 1,36,-1
 1196 0 l 1,37,-1
 1004 0 l 1,30,-1
807 618 m 1,38,-1
 674 1042 l 2,39,40
 635 1166 635 1166 612 1268 c 1,41,42
 592 1169 592 1169 566 1085 c 2,43,-1
 422 618 l 1,44,-1
 807 618 l 1,38,-1
EndSplineSet
Validated: 1
EndChar

StartChar: uni1EAD
Encoding: 7853 7853 126
Width: 1229
GlyphClass: 2
Flags: W
LayerCount: 2
Back
Fore
SplineSet
489 -246 m 0,0,1
 489 -186 489 -186 519.5 -158.5 c 128,-1,2
 550 -131 550 -131 595 -131 c 0,3,4
 639 -131 639 -131 670.5 -158.5 c 128,-1,5
 702 -186 702 -186 702 -246 c 0,6,7
 702 -275 702 -275 693.5 -296.5 c 128,-1,8
 685 -318 685 -318 670.5 -332 c 128,-1,9
 656 -346 656 -346 636.5 -353 c 128,-1,10
 617 -360 617 -360 595 -360 c 0,11,12
 550 -360 550 -360 519.5 -332.5 c 128,-1,13
 489 -305 489 -305 489 -246 c 0,0,1
954 1241 m 1,14,-1
 833 1241 l 1,15,16
 748 1297 748 1297 622 1427 c 1,17,18
 489 1291 489 1291 411 1241 c 1,19,-1
 291 1241 l 1,20,-1
 291 1268 l 1,21,22
 316 1297 316 1297 350 1335 c 0,23,24
 489 1490 489 1490 526 1569 c 1,25,-1
 719 1569 l 1,26,27
 756 1490 756 1490 895 1335 c 1,28,-1
 954 1268 l 1,29,-1
 954 1241 l 1,14,-1
895 0 m 1,30,-1
 858 152 l 1,31,-1
 850 152 l 1,32,33
 773 55 773 55 692 17.5 c 128,-1,34
 611 -20 611 -20 483 -20 c 0,35,36
 320 -20 320 -20 227.5 66 c 128,-1,37
 135 152 135 152 135 307 c 0,38,39
 135 639 135 639 645 655 c 1,40,-1
 848 662 l 1,41,-1
 848 731 l 2,42,43
 848 967 848 967 604 967 c 0,44,45
 457 967 457 967 276 885 c 1,46,-1
 213 1022 l 1,47,48
 409 1118 409 1118 596 1118 c 0,49,50
 823 1118 823 1118 924.5 1031 c 128,-1,51
 1026 944 1026 944 1026 752 c 2,52,-1
 1026 0 l 1,53,-1
 895 0 l 1,30,-1
846 537 m 1,54,-1
 684 530 l 2,55,56
 488 522 488 522 406 468.5 c 128,-1,57
 324 415 324 415 324 305 c 0,58,59
 324 127 324 127 524 127 c 0,60,61
 671 127 671 127 758.5 208.5 c 128,-1,62
 846 290 846 290 846 438 c 2,63,-1
 846 537 l 1,54,-1
EndSplineSet
Validated: 1
EndChar

StartChar: uni1EAE
Encoding: 7854 7854 127
Width: 1229
GlyphClass: 2
Flags: W
LayerCount: 2
Back
Fore
SplineSet
1004 0 m 1
 860 453 l 1
 369 453 l 1
 223 0 l 1
 33 0 l 1
 516 1468 l 1
 711 1468 l 1
 1196 0 l 1
 1004 0 l 1
807 618 m 1
 674 1042 l 2
 635 1166 635 1166 612 1268 c 1
 592 1169 592 1169 566 1085 c 2
 422 618 l 1
 807 618 l 1
EndSplineSet
Refer: 206 -1 N 1 0 0 1 0 338 2
Validated: 1
EndChar

StartChar: uni1EAF
Encoding: 7855 7855 128
Width: 1229
GlyphClass: 2
Flags: W
LayerCount: 2
Back
Fore
SplineSet
895 0 m 1
 858 152 l 1
 850 152 l 1
 773 55 773 55 692 17.5 c 0
 611 -20 611 -20 483 -20 c 0
 320 -20 320 -20 227.5 66 c 0
 135 152 135 152 135 307 c 0
 135 639 135 639 645 655 c 1
 848 662 l 1
 848 731 l 2
 848 967 848 967 604 967 c 0
 457 967 457 967 276 885 c 1
 213 1022 l 1
 409 1118 409 1118 596 1118 c 0
 823 1118 823 1118 924.5 1031 c 0
 1026 944 1026 944 1026 752 c 2
 1026 0 l 1
 895 0 l 1
846 537 m 1
 684 530 l 2
 488 522 488 522 406 468.5 c 0
 324 415 324 415 324 305 c 0
 324 127 324 127 524 127 c 0
 671 127 671 127 758.5 208.5 c 0
 846 290 846 290 846 438 c 2
 846 537 l 1
EndSplineSet
Refer: 206 -1 N 1 0 0 1 -1 0 2
Validated: 1
EndChar

StartChar: uni1EB0
Encoding: 7856 7856 129
Width: 1229
GlyphClass: 2
Flags: W
LayerCount: 2
Back
Fore
SplineSet
1004 0 m 1
 860 453 l 1
 369 453 l 1
 223 0 l 1
 33 0 l 1
 516 1468 l 1
 711 1468 l 1
 1196 0 l 1
 1004 0 l 1
807 618 m 1
 674 1042 l 2
 635 1166 635 1166 612 1268 c 1
 592 1169 592 1169 566 1085 c 2
 422 618 l 1
 807 618 l 1
EndSplineSet
Refer: 207 -1 N 1 0 0 1 0 338 2
Validated: 1
EndChar

StartChar: uni1EB1
Encoding: 7857 7857 130
Width: 1229
GlyphClass: 2
Flags: W
LayerCount: 2
Back
Fore
SplineSet
895 0 m 1
 858 152 l 1
 850 152 l 1
 773 55 773 55 692 17.5 c 0
 611 -20 611 -20 483 -20 c 0
 320 -20 320 -20 227.5 66 c 0
 135 152 135 152 135 307 c 0
 135 639 135 639 645 655 c 1
 848 662 l 1
 848 731 l 2
 848 967 848 967 604 967 c 0
 457 967 457 967 276 885 c 1
 213 1022 l 1
 409 1118 409 1118 596 1118 c 0
 823 1118 823 1118 924.5 1031 c 0
 1026 944 1026 944 1026 752 c 2
 1026 0 l 1
 895 0 l 1
846 537 m 1
 684 530 l 2
 488 522 488 522 406 468.5 c 0
 324 415 324 415 324 305 c 0
 324 127 324 127 524 127 c 0
 671 127 671 127 758.5 208.5 c 0
 846 290 846 290 846 438 c 2
 846 537 l 1
EndSplineSet
Refer: 207 -1 N 1 0 0 1 -1 0 2
Validated: 1
EndChar

StartChar: uni1EB2
Encoding: 7858 7858 131
Width: 1229
GlyphClass: 2
Flags: W
LayerCount: 2
Back
Fore
SplineSet
1004 0 m 1
 860 453 l 1
 369 453 l 1
 223 0 l 1
 33 0 l 1
 516 1468 l 1
 711 1468 l 1
 1196 0 l 1
 1004 0 l 1
807 618 m 1
 674 1042 l 2
 635 1166 635 1166 612 1268 c 1
 592 1169 592 1169 566 1085 c 2
 422 618 l 1
 807 618 l 1
EndSplineSet
Refer: 208 -1 N 1 0 0 1 0 338 2
Validated: 1
EndChar

StartChar: uni1EB3
Encoding: 7859 7859 132
Width: 1229
GlyphClass: 2
Flags: W
LayerCount: 2
Back
Fore
SplineSet
895 0 m 1
 858 152 l 1
 850 152 l 1
 773 55 773 55 692 17.5 c 0
 611 -20 611 -20 483 -20 c 0
 320 -20 320 -20 227.5 66 c 0
 135 152 135 152 135 307 c 0
 135 639 135 639 645 655 c 1
 848 662 l 1
 848 731 l 2
 848 967 848 967 604 967 c 0
 457 967 457 967 276 885 c 1
 213 1022 l 1
 409 1118 409 1118 596 1118 c 0
 823 1118 823 1118 924.5 1031 c 0
 1026 944 1026 944 1026 752 c 2
 1026 0 l 1
 895 0 l 1
846 537 m 1
 684 530 l 2
 488 522 488 522 406 468.5 c 0
 324 415 324 415 324 305 c 0
 324 127 324 127 524 127 c 0
 671 127 671 127 758.5 208.5 c 0
 846 290 846 290 846 438 c 2
 846 537 l 1
EndSplineSet
Refer: 208 -1 N 1 0 0 1 -1 0 2
Validated: 1
EndChar

StartChar: uni1EB4
Encoding: 7860 7860 133
Width: 1229
GlyphClass: 2
Flags: W
LayerCount: 2
Back
Fore
SplineSet
1004 0 m 1
 860 453 l 1
 369 453 l 1
 223 0 l 1
 33 0 l 1
 516 1468 l 1
 711 1468 l 1
 1196 0 l 1
 1004 0 l 1
807 618 m 1
 674 1042 l 2
 635 1166 635 1166 612 1268 c 1
 592 1169 592 1169 566 1085 c 2
 422 618 l 1
 807 618 l 1
EndSplineSet
Refer: 209 -1 N 1 0 0 1 0 338 2
Validated: 1
EndChar

StartChar: uni1EB5
Encoding: 7861 7861 134
Width: 1229
GlyphClass: 2
Flags: W
LayerCount: 2
Back
Fore
SplineSet
895 0 m 1
 858 152 l 1
 850 152 l 1
 773 55 773 55 692 17.5 c 0
 611 -20 611 -20 483 -20 c 0
 320 -20 320 -20 227.5 66 c 0
 135 152 135 152 135 307 c 0
 135 639 135 639 645 655 c 1
 848 662 l 1
 848 731 l 2
 848 967 848 967 604 967 c 0
 457 967 457 967 276 885 c 1
 213 1022 l 1
 409 1118 409 1118 596 1118 c 0
 823 1118 823 1118 924.5 1031 c 0
 1026 944 1026 944 1026 752 c 2
 1026 0 l 1
 895 0 l 1
846 537 m 1
 684 530 l 2
 488 522 488 522 406 468.5 c 0
 324 415 324 415 324 305 c 0
 324 127 324 127 524 127 c 0
 671 127 671 127 758.5 208.5 c 0
 846 290 846 290 846 438 c 2
 846 537 l 1
EndSplineSet
Refer: 209 -1 N 1 0 0 1 -1 0 2
Validated: 1
EndChar

StartChar: uni1EB6
Encoding: 7862 7862 135
Width: 1229
GlyphClass: 2
Flags: W
LayerCount: 2
Back
Fore
SplineSet
508 -246 m 0,0,1
 508 -186 508 -186 538.5 -158.5 c 128,-1,2
 569 -131 569 -131 614 -131 c 0,3,4
 658 -131 658 -131 689.5 -158.5 c 128,-1,5
 721 -186 721 -186 721 -246 c 0,6,7
 721 -275 721 -275 712.5 -296.5 c 128,-1,8
 704 -318 704 -318 689.5 -332 c 128,-1,9
 675 -346 675 -346 655.5 -353 c 128,-1,10
 636 -360 636 -360 614 -360 c 0,11,12
 569 -360 569 -360 538.5 -332.5 c 128,-1,13
 508 -305 508 -305 508 -246 c 0,0,1
912 1856 m 1,14,15
 903 1729 903 1729 823 1654 c 128,-1,16
 743 1579 743 1579 607 1579 c 0,17,18
 327 1579 327 1579 310 1856 c 1,19,-1
 419 1856 l 1,20,21
 426 1780 426 1780 465.5 1755.5 c 128,-1,22
 505 1731 505 1731 609 1731 c 0,23,24
 790 1731 790 1731 800 1856 c 1,25,-1
 912 1856 l 1,14,15
1004 0 m 1,26,-1
 860 453 l 1,27,-1
 369 453 l 1,28,-1
 223 0 l 1,29,-1
 33 0 l 1,30,-1
 516 1468 l 1,31,-1
 711 1468 l 1,32,-1
 1196 0 l 1,33,-1
 1004 0 l 1,26,-1
807 618 m 1,34,-1
 674 1042 l 2,35,36
 635 1166 635 1166 612 1268 c 1,37,38
 592 1169 592 1169 566 1085 c 2,39,-1
 422 618 l 1,40,-1
 807 618 l 1,34,-1
EndSplineSet
Validated: 1
EndChar

StartChar: uni1EB7
Encoding: 7863 7863 136
Width: 1229
GlyphClass: 2
Flags: W
LayerCount: 2
Back
Fore
SplineSet
489 -246 m 0,0,1
 489 -186 489 -186 519.5 -158.5 c 128,-1,2
 550 -131 550 -131 595 -131 c 0,3,4
 639 -131 639 -131 670.5 -158.5 c 128,-1,5
 702 -186 702 -186 702 -246 c 0,6,7
 702 -275 702 -275 693.5 -296.5 c 128,-1,8
 685 -318 685 -318 670.5 -332 c 128,-1,9
 656 -346 656 -346 636.5 -353 c 128,-1,10
 617 -360 617 -360 595 -360 c 0,11,12
 550 -360 550 -360 519.5 -332.5 c 128,-1,13
 489 -305 489 -305 489 -246 c 0,0,1
904 1518 m 1,14,15
 895 1391 895 1391 815 1316 c 128,-1,16
 735 1241 735 1241 599 1241 c 0,17,18
 319 1241 319 1241 302 1518 c 1,19,-1
 411 1518 l 1,20,21
 418 1442 418 1442 457.5 1417.5 c 128,-1,22
 497 1393 497 1393 601 1393 c 0,23,24
 782 1393 782 1393 792 1518 c 1,25,-1
 904 1518 l 1,14,15
895 0 m 1,26,-1
 858 152 l 1,27,-1
 850 152 l 1,28,29
 773 55 773 55 692 17.5 c 128,-1,30
 611 -20 611 -20 483 -20 c 0,31,32
 320 -20 320 -20 227.5 66 c 128,-1,33
 135 152 135 152 135 307 c 0,34,35
 135 639 135 639 645 655 c 1,36,-1
 848 662 l 1,37,-1
 848 731 l 2,38,39
 848 967 848 967 604 967 c 0,40,41
 457 967 457 967 276 885 c 1,42,-1
 213 1022 l 1,43,44
 409 1118 409 1118 596 1118 c 0,45,46
 823 1118 823 1118 924.5 1031 c 128,-1,47
 1026 944 1026 944 1026 752 c 2,48,-1
 1026 0 l 1,49,-1
 895 0 l 1,26,-1
846 537 m 1,50,-1
 684 530 l 2,51,52
 488 522 488 522 406 468.5 c 128,-1,53
 324 415 324 415 324 305 c 0,54,55
 324 127 324 127 524 127 c 0,56,57
 671 127 671 127 758.5 208.5 c 128,-1,58
 846 290 846 290 846 438 c 2,59,-1
 846 537 l 1,50,-1
EndSplineSet
Validated: 1
EndChar

StartChar: uni1EB8
Encoding: 7864 7864 137
Width: 1229
GlyphClass: 2
Flags: W
LayerCount: 2
Back
Fore
SplineSet
531 -246 m 0,0,1
 531 -186 531 -186 561.5 -158.5 c 128,-1,2
 592 -131 592 -131 637 -131 c 0,3,4
 681 -131 681 -131 712.5 -158.5 c 128,-1,5
 744 -186 744 -186 744 -246 c 0,6,7
 744 -275 744 -275 735.5 -296.5 c 128,-1,8
 727 -318 727 -318 712.5 -332 c 128,-1,9
 698 -346 698 -346 678.5 -353 c 128,-1,10
 659 -360 659 -360 637 -360 c 0,11,12
 592 -360 592 -360 561.5 -332.5 c 128,-1,13
 531 -305 531 -305 531 -246 c 0,0,1
1059 0 m 1,14,-1
 217 0 l 1,15,-1
 217 1462 l 1,16,-1
 1059 1462 l 1,17,-1
 1059 1298 l 1,18,-1
 403 1298 l 1,19,-1
 403 846 l 1,20,-1
 1020 846 l 1,21,-1
 1020 684 l 1,22,-1
 403 684 l 1,23,-1
 403 164 l 1,24,-1
 1059 164 l 1,25,-1
 1059 0 l 1,14,-1
EndSplineSet
Validated: 1
EndChar

StartChar: uni1EB9
Encoding: 7865 7865 138
Width: 1229
GlyphClass: 2
Flags: W
LayerCount: 2
Back
Fore
SplineSet
531 -246 m 0
 531 -186 531 -186 561.5 -158.5 c 0
 592 -131 592 -131 637 -131 c 0
 681 -131 681 -131 712.5 -158.5 c 0
 744 -186 744 -186 744 -246 c 0
 744 -275 744 -275 735.5 -296.5 c 0
 727 -318 727 -318 712.5 -332 c 0
 698 -346 698 -346 678.5 -353 c 0
 659 -360 659 -360 637 -360 c 0
 592 -360 592 -360 561.5 -332.5 c 0
 531 -305 531 -305 531 -246 c 0
EndSplineSet
Refer: 6 101 N 1 0 0 1 0 0 3
Validated: 1
EndChar

StartChar: uni1EBA
Encoding: 7866 7866 139
Width: 1229
GlyphClass: 2
Flags: W
LayerCount: 2
Back
Fore
SplineSet
840 1829 m 0,0,1
 840 1790 840 1790 826.5 1761 c 128,-1,2
 813 1732 813 1732 790.5 1711.5 c 128,-1,3
 768 1691 768 1691 738 1678 c 128,-1,4
 708 1665 708 1665 674 1657 c 1,5,-1
 664 1546 l 1,6,-1
 551 1546 l 1,7,-1
 537 1722 l 1,8,9
 574 1728 574 1728 603.5 1736 c 128,-1,10
 633 1744 633 1744 654 1756 c 128,-1,11
 675 1768 675 1768 686.5 1784.5 c 128,-1,12
 698 1801 698 1801 698 1825 c 256,13,14
 698 1849 698 1849 688 1865 c 128,-1,15
 678 1881 678 1881 660 1890.5 c 128,-1,16
 642 1900 642 1900 617 1903.5 c 128,-1,17
 592 1907 592 1907 563 1907 c 0,18,19
 535 1907 535 1907 509 1905.5 c 128,-1,20
 483 1904 483 1904 467 1901 c 1,21,-1
 467 2009 l 1,22,23
 483 2012 483 2012 508 2014.5 c 128,-1,24
 533 2017 533 2017 574 2017 c 0,25,26
 707 2017 707 2017 773.5 1971.5 c 128,-1,27
 840 1926 840 1926 840 1829 c 0,0,1
1059 0 m 1,28,-1
 217 0 l 1,29,-1
 217 1462 l 1,30,-1
 1059 1462 l 1,31,-1
 1059 1298 l 1,32,-1
 403 1298 l 1,33,-1
 403 846 l 1,34,-1
 1020 846 l 1,35,-1
 1020 684 l 1,36,-1
 403 684 l 1,37,-1
 403 164 l 1,38,-1
 1059 164 l 1,39,-1
 1059 0 l 1,28,-1
EndSplineSet
Validated: 1
EndChar

StartChar: uni1EBB
Encoding: 7867 7867 140
Width: 1229
GlyphClass: 2
Flags: W
LayerCount: 2
Back
Fore
SplineSet
858 1491 m 0
 858 1452 858 1452 844.5 1423 c 0
 831 1394 831 1394 808.5 1373.5 c 0
 786 1353 786 1353 756 1340 c 0
 726 1327 726 1327 692 1319 c 1
 682 1208 l 1
 569 1208 l 1
 555 1384 l 1
 592 1390 592 1390 621.5 1398 c 0
 651 1406 651 1406 672 1418 c 0
 693 1430 693 1430 704.5 1446.5 c 0
 716 1463 716 1463 716 1487 c 256
 716 1511 716 1511 706 1527 c 0
 696 1543 696 1543 678 1552.5 c 0
 660 1562 660 1562 635 1565.5 c 0
 610 1569 610 1569 581 1569 c 0
 553 1569 553 1569 527 1567.5 c 0
 501 1566 501 1566 485 1563 c 1
 485 1671 l 1
 501 1674 501 1674 526 1676.5 c 0
 551 1679 551 1679 592 1679 c 0
 725 1679 725 1679 791.5 1633.5 c 0
 858 1588 858 1588 858 1491 c 0
EndSplineSet
Refer: 6 101 N 1 0 0 1 0 0 3
Validated: 1
EndChar

StartChar: uni1EBC
Encoding: 7868 7868 141
Width: 1229
GlyphClass: 2
Flags: W
LayerCount: 2
Back
Fore
SplineSet
383 1579 m 1,0,-1
 279 1579 l 1,1,2
 304 1843 304 1843 490 1843 c 0,3,4
 548 1843 548 1843 651 1787 c 0,5,6
 753 1731 753 1731 787 1731 c 0,7,8
 867 1731 867 1731 893 1845 c 1,9,-1
 998 1845 l 1,10,11
 971 1581 971 1581 787 1581 c 0,12,13
 730 1581 730 1581 630 1638 c 0,14,15
 530 1694 530 1694 490 1694 c 0,16,17
 408 1694 408 1694 383 1579 c 1,0,-1
1059 0 m 1,18,-1
 217 0 l 1,19,-1
 217 1462 l 1,20,-1
 1059 1462 l 1,21,-1
 1059 1298 l 1,22,-1
 403 1298 l 1,23,-1
 403 846 l 1,24,-1
 1020 846 l 1,25,-1
 1020 684 l 1,26,-1
 403 684 l 1,27,-1
 403 164 l 1,28,-1
 1059 164 l 1,29,-1
 1059 0 l 1,18,-1
EndSplineSet
Validated: 1
EndChar

StartChar: uni1EBD
Encoding: 7869 7869 142
Width: 1229
GlyphClass: 2
Flags: W
LayerCount: 2
Back
Fore
SplineSet
391 1241 m 1
 287 1241 l 1
 312 1505 312 1505 498 1505 c 0
 556 1505 556 1505 659 1449 c 0
 761 1393 761 1393 795 1393 c 0
 875 1393 875 1393 901 1507 c 1
 1006 1507 l 1
 979 1243 979 1243 795 1243 c 0
 738 1243 738 1243 638 1300 c 0
 538 1356 538 1356 498 1356 c 0
 416 1356 416 1356 391 1241 c 1
EndSplineSet
Refer: 6 101 N 1 0 0 1 0 0 3
Validated: 1
EndChar

StartChar: uni1EBE
Encoding: 7870 7870 143
Width: 1229
GlyphClass: 2
Flags: W
LayerCount: 2
Back
Fore
SplineSet
1059 0 m 1
 217 0 l 1
 217 1462 l 1
 1059 1462 l 1
 1059 1298 l 1
 403 1298 l 1
 403 846 l 1
 1020 846 l 1
 1020 684 l 1
 403 684 l 1
 403 164 l 1
 1059 164 l 1
 1059 0 l 1
EndSplineSet
Refer: 202 -1 N 1 0 0 1 129 338 2
Validated: 1
EndChar

StartChar: uni1EC0
Encoding: 7872 7872 145
Width: 1229
GlyphClass: 2
Flags: W
LayerCount: 2
Back
Fore
SplineSet
1059 0 m 1
 217 0 l 1
 217 1462 l 1
 1059 1462 l 1
 1059 1298 l 1
 403 1298 l 1
 403 846 l 1
 1020 846 l 1
 1020 684 l 1
 403 684 l 1
 403 164 l 1
 1059 164 l 1
 1059 0 l 1
EndSplineSet
Refer: 203 -1 N 1 0 0 1 -99 338 2
Validated: 1
EndChar

StartChar: uni1EC2
Encoding: 7874 7874 147
Width: 1229
GlyphClass: 2
Flags: W
LayerCount: 2
Back
Fore
SplineSet
1059 0 m 1
 217 0 l 1
 217 1462 l 1
 1059 1462 l 1
 1059 1298 l 1
 403 1298 l 1
 403 846 l 1
 1020 846 l 1
 1020 684 l 1
 403 684 l 1
 403 164 l 1
 1059 164 l 1
 1059 0 l 1
EndSplineSet
Refer: 204 -1 N 1 0 0 1 96 338 2
Validated: 1
EndChar

StartChar: uni1EC4
Encoding: 7876 7876 149
Width: 1229
GlyphClass: 2
Flags: W
LayerCount: 2
Back
Fore
SplineSet
1059 0 m 1
 217 0 l 1
 217 1462 l 1
 1059 1462 l 1
 1059 1298 l 1
 403 1298 l 1
 403 846 l 1
 1020 846 l 1
 1020 684 l 1
 403 684 l 1
 403 164 l 1
 1059 164 l 1
 1059 0 l 1
EndSplineSet
Refer: 205 -1 N 1 0 0 1 16 338 2
Validated: 1
EndChar

StartChar: uni1EC6
Encoding: 7878 7878 151
Width: 1229
GlyphClass: 2
Flags: W
LayerCount: 2
Back
Fore
SplineSet
531 -246 m 0,0,1
 531 -186 531 -186 561.5 -158.5 c 128,-1,2
 592 -131 592 -131 637 -131 c 0,3,4
 681 -131 681 -131 712.5 -158.5 c 128,-1,5
 744 -186 744 -186 744 -246 c 0,6,7
 744 -275 744 -275 735.5 -296.5 c 128,-1,8
 727 -318 727 -318 712.5 -332 c 128,-1,9
 698 -346 698 -346 678.5 -353 c 128,-1,10
 659 -360 659 -360 637 -360 c 0,11,12
 592 -360 592 -360 561.5 -332.5 c 128,-1,13
 531 -305 531 -305 531 -246 c 0,0,1
981 1579 m 1,14,-1
 860 1579 l 1,15,16
 775 1635 775 1635 649 1765 c 1,17,18
 516 1629 516 1629 438 1579 c 1,19,-1
 318 1579 l 1,20,-1
 318 1606 l 1,21,22
 343 1635 343 1635 377 1673 c 0,23,24
 516 1828 516 1828 553 1907 c 1,25,-1
 746 1907 l 1,26,27
 783 1828 783 1828 922 1673 c 1,28,-1
 981 1606 l 1,29,-1
 981 1579 l 1,14,-1
1059 0 m 1,30,-1
 217 0 l 1,31,-1
 217 1462 l 1,32,-1
 1059 1462 l 1,33,-1
 1059 1298 l 1,34,-1
 403 1298 l 1,35,-1
 403 846 l 1,36,-1
 1020 846 l 1,37,-1
 1020 684 l 1,38,-1
 403 684 l 1,39,-1
 403 164 l 1,40,-1
 1059 164 l 1,41,-1
 1059 0 l 1,30,-1
EndSplineSet
Validated: 1
EndChar

StartChar: uni1EC7
Encoding: 7879 7879 152
Width: 1229
GlyphClass: 2
Flags: W
LayerCount: 2
Back
Fore
SplineSet
531 -246 m 0
 531 -186 531 -186 561.5 -158.5 c 0
 592 -131 592 -131 637 -131 c 0
 681 -131 681 -131 712.5 -158.5 c 0
 744 -186 744 -186 744 -246 c 0
 744 -275 744 -275 735.5 -296.5 c 0
 727 -318 727 -318 712.5 -332 c 0
 698 -346 698 -346 678.5 -353 c 0
 659 -360 659 -360 637 -360 c 0
 592 -360 592 -360 561.5 -332.5 c 0
 531 -305 531 -305 531 -246 c 0
962 1241 m 1
 841 1241 l 1
 756 1297 756 1297 630 1427 c 1
 497 1291 497 1291 419 1241 c 1
 299 1241 l 1
 299 1268 l 1
 324 1297 324 1297 358 1335 c 0
 497 1490 497 1490 534 1569 c 1
 727 1569 l 1
 764 1490 764 1490 903 1335 c 1
 962 1268 l 1
 962 1241 l 1
EndSplineSet
Refer: 6 101 N 1 0 0 1 0 0 3
Validated: 1
EndChar

StartChar: uni1EC8.alt
Encoding: 65562 -1 153
Width: 1229
GlyphClass: 2
Flags: W
LayerCount: 2
Back
Fore
SplineSet
793 154 m 1,0,-1
 793 -129 l 1,1,2
 792 -195 792 -195 779 -246 c 128,-1,3
 766 -297 766 -297 737.5 -332 c 128,-1,4
 709 -367 709 -367 664.5 -385 c 128,-1,5
 620 -403 620 -403 557 -403 c 0,6,7
 519 -403 519 -403 487.5 -394.5 c 128,-1,8
 456 -386 456 -386 434 -377 c 1,9,-1
 434 -227 l 1,10,11
 448 -234 448 -234 477.5 -241 c 128,-1,12
 507 -248 507 -248 541 -248 c 0,13,14
 587 -248 587 -248 612 -223.5 c 128,-1,15
 637 -199 637 -199 637 -150 c 2,16,-1
 637 154 l 1,17,-1
 793 154 l 1,0,-1
EndSplineSet
Validated: 1
EndChar

StartChar: uni1EC9
Encoding: 7881 7881 154
Width: 1229
GlyphClass: 2
Flags: W
LayerCount: 2
Back
Fore
SplineSet
848 1491 m 0,0,1
 848 1452 848 1452 834.5 1423 c 128,-1,2
 821 1394 821 1394 798.5 1373.5 c 128,-1,3
 776 1353 776 1353 746 1340 c 128,-1,4
 716 1327 716 1327 682 1319 c 1,5,-1
 672 1208 l 1,6,-1
 559 1208 l 1,7,-1
 545 1384 l 1,8,9
 582 1390 582 1390 611.5 1398 c 128,-1,10
 641 1406 641 1406 662 1418 c 128,-1,11
 683 1430 683 1430 694.5 1446.5 c 128,-1,12
 706 1463 706 1463 706 1487 c 256,13,14
 706 1511 706 1511 696 1527 c 128,-1,15
 686 1543 686 1543 668 1552.5 c 128,-1,16
 650 1562 650 1562 625 1565.5 c 128,-1,17
 600 1569 600 1569 571 1569 c 0,18,19
 543 1569 543 1569 517 1567.5 c 128,-1,20
 491 1566 491 1566 475 1563 c 1,21,-1
 475 1671 l 1,22,23
 491 1674 491 1674 516 1676.5 c 128,-1,24
 541 1679 541 1679 582 1679 c 0,25,26
 715 1679 715 1679 781.5 1633.5 c 128,-1,27
 848 1588 848 1588 848 1491 c 0,0,1
541 954 m 1,28,-1
 272 975 l 1,29,-1
 272 1098 l 1,30,-1
 723 1098 l 1,31,-1
 723 143 l 1,32,-1
 1075 123 l 1,33,-1
 1075 0 l 1,34,-1
 197 0 l 1,35,-1
 197 123 l 1,36,-1
 541 143 l 1,37,-1
 541 954 l 1,28,-1
EndSplineSet
Validated: 1
EndChar

StartChar: uni1ECA.alt
Encoding: 65563 -1 155
Width: 1229
GlyphClass: 2
Flags: W
LayerCount: 2
Back
Fore
SplineSet
1436 -246 m 0
 1436 -186 1436 -186 1466.5 -158.5 c 0
 1497 -131 1497 -131 1542 -131 c 0
 1586 -131 1586 -131 1617.5 -158.5 c 0
 1649 -186 1649 -186 1649 -246 c 0
 1649 -275 1649 -275 1640.5 -296.5 c 0
 1632 -318 1632 -318 1617.5 -332 c 0
 1603 -346 1603 -346 1583.5 -353 c 0
 1564 -360 1564 -360 1542 -360 c 0
 1497 -360 1497 -360 1466.5 -332.5 c 0
 1436 -305 1436 -305 1436 -246 c 0
EndSplineSet
Refer: 5 -1 N 1 0 0 1 0 0 3
Validated: 1
EndChar

StartChar: uni1ECB
Encoding: 7883 7883 156
Width: 1229
GlyphClass: 2
Flags: W
LayerCount: 2
Back
Fore
SplineSet
528 -246 m 0,0,1
 528 -186 528 -186 558.5 -158.5 c 128,-1,2
 589 -131 589 -131 634 -131 c 0,3,4
 678 -131 678 -131 709.5 -158.5 c 128,-1,5
 741 -186 741 -186 741 -246 c 0,6,7
 741 -275 741 -275 732.5 -296.5 c 128,-1,8
 724 -318 724 -318 709.5 -332 c 128,-1,9
 695 -346 695 -346 675.5 -353 c 128,-1,10
 656 -360 656 -360 634 -360 c 0,11,12
 589 -360 589 -360 558.5 -332.5 c 128,-1,13
 528 -305 528 -305 528 -246 c 0,0,1
633 1550 m 0,14,15
 739 1550 739 1550 739 1436 c 0,16,17
 739 1378 739 1378 707.5 1349.5 c 128,-1,18
 676 1321 676 1321 633 1321 c 0,19,20
 526 1321 526 1321 526 1436 c 0,21,22
 526 1550 526 1550 633 1550 c 0,14,15
541 954 m 1,23,-1
 272 975 l 1,24,-1
 272 1098 l 1,25,-1
 723 1098 l 1,26,-1
 723 143 l 1,27,-1
 1075 123 l 1,28,-1
 1075 0 l 1,29,-1
 197 0 l 1,30,-1
 197 123 l 1,31,-1
 541 143 l 1,32,-1
 541 954 l 1,23,-1
EndSplineSet
Validated: 1
EndChar

StartChar: uni1ECC
Encoding: 7884 7884 157
Width: 1229
GlyphClass: 2
Flags: W
LayerCount: 2
Back
Fore
SplineSet
508 -246 m 0,0,1
 508 -186 508 -186 538.5 -158.5 c 128,-1,2
 569 -131 569 -131 614 -131 c 0,3,4
 658 -131 658 -131 689.5 -158.5 c 128,-1,5
 721 -186 721 -186 721 -246 c 0,6,7
 721 -275 721 -275 712.5 -296.5 c 128,-1,8
 704 -318 704 -318 689.5 -332 c 128,-1,9
 675 -346 675 -346 655.5 -353 c 128,-1,10
 636 -360 636 -360 614 -360 c 0,11,12
 569 -360 569 -360 538.5 -332.5 c 128,-1,13
 508 -305 508 -305 508 -246 c 0,0,1
616 -20 m 0,14,15
 84 -20 84 -20 84 735 c 0,16,17
 84 1485 84 1485 618 1485 c 0,18,19
 874 1485 874 1485 1010.5 1289.5 c 128,-1,20
 1147 1094 1147 1094 1147 733 c 256,21,22
 1147 372 1147 372 1009 176 c 128,-1,23
 871 -20 871 -20 616 -20 c 0,14,15
616 143 m 0,24,25
 789 143 789 143 869.5 288 c 128,-1,26
 950 433 950 433 950 733 c 0,27,28
 950 1036 950 1036 868.5 1178.5 c 128,-1,29
 787 1321 787 1321 618 1321 c 0,30,31
 281 1321 281 1321 281 733 c 0,32,33
 281 143 281 143 616 143 c 0,24,25
EndSplineSet
Validated: 1
EndChar

StartChar: uni1ECD
Encoding: 7885 7885 158
Width: 1229
GlyphClass: 2
Flags: W
LayerCount: 2
Back
Fore
SplineSet
508 -246 m 0,0,1
 508 -186 508 -186 538.5 -158.5 c 128,-1,2
 569 -131 569 -131 614 -131 c 0,3,4
 658 -131 658 -131 689.5 -158.5 c 128,-1,5
 721 -186 721 -186 721 -246 c 0,6,7
 721 -275 721 -275 712.5 -296.5 c 128,-1,8
 704 -318 704 -318 689.5 -332 c 128,-1,9
 675 -346 675 -346 655.5 -353 c 128,-1,10
 636 -360 636 -360 614 -360 c 0,11,12
 569 -360 569 -360 538.5 -332.5 c 128,-1,13
 508 -305 508 -305 508 -246 c 0,0,1
610 -20 m 0,14,15
 394 -20 394 -20 254.5 135.5 c 128,-1,16
 115 291 115 291 115 551 c 0,17,18
 115 814 115 814 250.5 966 c 128,-1,19
 386 1118 386 1118 616 1118 c 0,20,21
 834 1118 834 1118 973 963 c 128,-1,22
 1112 808 1112 808 1112 551 c 0,23,24
 1112 286 1112 286 975 133 c 128,-1,25
 838 -20 838 -20 610 -20 c 0,14,15
614 131 m 0,26,27
 924 131 924 131 924 551 c 0,28,29
 924 967 924 967 612 967 c 0,30,31
 303 967 303 967 303 551 c 0,32,33
 303 131 303 131 614 131 c 0,26,27
EndSplineSet
Validated: 1
EndChar

StartChar: uni1ECE
Encoding: 7886 7886 159
Width: 1229
GlyphClass: 2
Flags: W
LayerCount: 2
Back
Fore
SplineSet
824 1829 m 0,0,1
 824 1790 824 1790 810.5 1761 c 128,-1,2
 797 1732 797 1732 774.5 1711.5 c 128,-1,3
 752 1691 752 1691 722 1678 c 128,-1,4
 692 1665 692 1665 658 1657 c 1,5,-1
 648 1546 l 1,6,-1
 535 1546 l 1,7,-1
 521 1722 l 1,8,9
 558 1728 558 1728 587.5 1736 c 128,-1,10
 617 1744 617 1744 638 1756 c 128,-1,11
 659 1768 659 1768 670.5 1784.5 c 128,-1,12
 682 1801 682 1801 682 1825 c 256,13,14
 682 1849 682 1849 672 1865 c 128,-1,15
 662 1881 662 1881 644 1890.5 c 128,-1,16
 626 1900 626 1900 601 1903.5 c 128,-1,17
 576 1907 576 1907 547 1907 c 0,18,19
 519 1907 519 1907 493 1905.5 c 128,-1,20
 467 1904 467 1904 451 1901 c 1,21,-1
 451 2009 l 1,22,23
 467 2012 467 2012 492 2014.5 c 128,-1,24
 517 2017 517 2017 558 2017 c 0,25,26
 691 2017 691 2017 757.5 1971.5 c 128,-1,27
 824 1926 824 1926 824 1829 c 0,0,1
616 -20 m 0,28,29
 84 -20 84 -20 84 735 c 0,30,31
 84 1485 84 1485 618 1485 c 0,32,33
 874 1485 874 1485 1010.5 1289.5 c 128,-1,34
 1147 1094 1147 1094 1147 733 c 256,35,36
 1147 372 1147 372 1009 176 c 128,-1,37
 871 -20 871 -20 616 -20 c 0,28,29
616 143 m 0,38,39
 789 143 789 143 869.5 288 c 128,-1,40
 950 433 950 433 950 733 c 0,41,42
 950 1036 950 1036 868.5 1178.5 c 128,-1,43
 787 1321 787 1321 618 1321 c 0,44,45
 281 1321 281 1321 281 733 c 0,46,47
 281 143 281 143 616 143 c 0,38,39
EndSplineSet
Validated: 1
EndChar

StartChar: uni1ECF
Encoding: 7887 7887 160
Width: 1229
GlyphClass: 2
Flags: W
LayerCount: 2
Back
Fore
SplineSet
832 1491 m 0,0,1
 832 1452 832 1452 818.5 1423 c 128,-1,2
 805 1394 805 1394 782.5 1373.5 c 128,-1,3
 760 1353 760 1353 730 1340 c 128,-1,4
 700 1327 700 1327 666 1319 c 1,5,-1
 656 1208 l 1,6,-1
 543 1208 l 1,7,-1
 529 1384 l 1,8,9
 566 1390 566 1390 595.5 1398 c 128,-1,10
 625 1406 625 1406 646 1418 c 128,-1,11
 667 1430 667 1430 678.5 1446.5 c 128,-1,12
 690 1463 690 1463 690 1487 c 256,13,14
 690 1511 690 1511 680 1527 c 128,-1,15
 670 1543 670 1543 652 1552.5 c 128,-1,16
 634 1562 634 1562 609 1565.5 c 128,-1,17
 584 1569 584 1569 555 1569 c 0,18,19
 527 1569 527 1569 501 1567.5 c 128,-1,20
 475 1566 475 1566 459 1563 c 1,21,-1
 459 1671 l 1,22,23
 475 1674 475 1674 500 1676.5 c 128,-1,24
 525 1679 525 1679 566 1679 c 0,25,26
 699 1679 699 1679 765.5 1633.5 c 128,-1,27
 832 1588 832 1588 832 1491 c 0,0,1
610 -20 m 0,28,29
 394 -20 394 -20 254.5 135.5 c 128,-1,30
 115 291 115 291 115 551 c 0,31,32
 115 814 115 814 250.5 966 c 128,-1,33
 386 1118 386 1118 616 1118 c 0,34,35
 834 1118 834 1118 973 963 c 128,-1,36
 1112 808 1112 808 1112 551 c 0,37,38
 1112 286 1112 286 975 133 c 128,-1,39
 838 -20 838 -20 610 -20 c 0,28,29
614 131 m 0,40,41
 924 131 924 131 924 551 c 0,42,43
 924 967 924 967 612 967 c 0,44,45
 303 967 303 967 303 551 c 0,46,47
 303 131 303 131 614 131 c 0,40,41
EndSplineSet
Validated: 1
EndChar

StartChar: uni1ED0
Encoding: 7888 7888 161
Width: 1229
GlyphClass: 2
Flags: W
LayerCount: 2
Back
Fore
SplineSet
616 -20 m 0
 84 -20 84 -20 84 735 c 0
 84 1485 84 1485 618 1485 c 0
 874 1485 874 1485 1010.5 1289.5 c 0
 1147 1094 1147 1094 1147 733 c 256
 1147 372 1147 372 1009 176 c 0
 871 -20 871 -20 616 -20 c 0
616 143 m 0
 789 143 789 143 869.5 288 c 0
 950 433 950 433 950 733 c 0
 950 1036 950 1036 868.5 1178.5 c 0
 787 1321 787 1321 618 1321 c 0
 281 1321 281 1321 281 733 c 0
 281 143 281 143 616 143 c 0
EndSplineSet
Refer: 202 -1 N 1 0 0 1 115 338 2
Validated: 1
EndChar

StartChar: uni1ED1
Encoding: 7889 7889 162
Width: 1229
GlyphClass: 2
Flags: W
LayerCount: 2
Back
Fore
SplineSet
610 -20 m 0
 394 -20 394 -20 254.5 135.5 c 0
 115 291 115 291 115 551 c 0
 115 814 115 814 250.5 966 c 0
 386 1118 386 1118 616 1118 c 0
 834 1118 834 1118 973 963 c 0
 1112 808 1112 808 1112 551 c 0
 1112 286 1112 286 975 133 c 0
 838 -20 838 -20 610 -20 c 0
614 131 m 0
 924 131 924 131 924 551 c 0
 924 967 924 967 612 967 c 0
 303 967 303 967 303 551 c 0
 303 131 303 131 614 131 c 0
EndSplineSet
Refer: 202 -1 N 1 0 0 1 115 0 2
Validated: 1
EndChar

StartChar: uni1ED2
Encoding: 7890 7890 163
Width: 1229
GlyphClass: 2
Flags: W
LayerCount: 2
Back
Fore
SplineSet
616 -20 m 0
 84 -20 84 -20 84 735 c 0
 84 1485 84 1485 618 1485 c 0
 874 1485 874 1485 1010.5 1289.5 c 0
 1147 1094 1147 1094 1147 733 c 256
 1147 372 1147 372 1009 176 c 0
 871 -20 871 -20 616 -20 c 0
616 143 m 0
 789 143 789 143 869.5 288 c 0
 950 433 950 433 950 733 c 0
 950 1036 950 1036 868.5 1178.5 c 0
 787 1321 787 1321 618 1321 c 0
 281 1321 281 1321 281 733 c 0
 281 143 281 143 616 143 c 0
EndSplineSet
Refer: 203 -1 N 1 0 0 1 -114 338 2
Validated: 1
EndChar

StartChar: uni1ED3
Encoding: 7891 7891 164
Width: 1229
GlyphClass: 2
Flags: W
LayerCount: 2
Back
Fore
SplineSet
610 -20 m 0
 394 -20 394 -20 254.5 135.5 c 0
 115 291 115 291 115 551 c 0
 115 814 115 814 250.5 966 c 0
 386 1118 386 1118 616 1118 c 0
 834 1118 834 1118 973 963 c 0
 1112 808 1112 808 1112 551 c 0
 1112 286 1112 286 975 133 c 0
 838 -20 838 -20 610 -20 c 0
614 131 m 0
 924 131 924 131 924 551 c 0
 924 967 924 967 612 967 c 0
 303 967 303 967 303 551 c 0
 303 131 303 131 614 131 c 0
EndSplineSet
Refer: 203 -1 N 1 0 0 1 -114 0 2
Validated: 1
EndChar

StartChar: uni1ED4
Encoding: 7892 7892 165
Width: 1229
GlyphClass: 2
Flags: W
LayerCount: 2
Back
Fore
SplineSet
616 -20 m 0
 84 -20 84 -20 84 735 c 0
 84 1485 84 1485 618 1485 c 0
 874 1485 874 1485 1010.5 1289.5 c 0
 1147 1094 1147 1094 1147 733 c 256
 1147 372 1147 372 1009 176 c 0
 871 -20 871 -20 616 -20 c 0
616 143 m 0
 789 143 789 143 869.5 288 c 0
 950 433 950 433 950 733 c 0
 950 1036 950 1036 868.5 1178.5 c 0
 787 1321 787 1321 618 1321 c 0
 281 1321 281 1321 281 733 c 0
 281 143 281 143 616 143 c 0
EndSplineSet
Refer: 204 -1 N 1 0 0 1 82 338 2
Validated: 1
EndChar

StartChar: uni1ED5
Encoding: 7893 7893 166
Width: 1229
GlyphClass: 2
Flags: W
LayerCount: 2
Back
Fore
SplineSet
610 -20 m 0
 394 -20 394 -20 254.5 135.5 c 0
 115 291 115 291 115 551 c 0
 115 814 115 814 250.5 966 c 0
 386 1118 386 1118 616 1118 c 0
 834 1118 834 1118 973 963 c 0
 1112 808 1112 808 1112 551 c 0
 1112 286 1112 286 975 133 c 0
 838 -20 838 -20 610 -20 c 0
614 131 m 0
 924 131 924 131 924 551 c 0
 924 967 924 967 612 967 c 0
 303 967 303 967 303 551 c 0
 303 131 303 131 614 131 c 0
EndSplineSet
Refer: 204 -1 N 1 0 0 1 82 0 2
Validated: 1
EndChar

StartChar: uni1ED6
Encoding: 7894 7894 167
Width: 1229
GlyphClass: 2
Flags: W
LayerCount: 2
Back
Fore
SplineSet
616 -20 m 0
 84 -20 84 -20 84 735 c 0
 84 1485 84 1485 618 1485 c 0
 874 1485 874 1485 1010.5 1289.5 c 0
 1147 1094 1147 1094 1147 733 c 256
 1147 372 1147 372 1009 176 c 0
 871 -20 871 -20 616 -20 c 0
616 143 m 0
 789 143 789 143 869.5 288 c 0
 950 433 950 433 950 733 c 0
 950 1036 950 1036 868.5 1178.5 c 0
 787 1321 787 1321 618 1321 c 0
 281 1321 281 1321 281 733 c 0
 281 143 281 143 616 143 c 0
EndSplineSet
Refer: 205 -1 N 1 0 0 1 2 338 2
Validated: 1
EndChar

StartChar: uni1ED7
Encoding: 7895 7895 168
Width: 1229
GlyphClass: 2
Flags: W
LayerCount: 2
Back
Fore
SplineSet
610 -20 m 0
 394 -20 394 -20 254.5 135.5 c 0
 115 291 115 291 115 551 c 0
 115 814 115 814 250.5 966 c 0
 386 1118 386 1118 616 1118 c 0
 834 1118 834 1118 973 963 c 0
 1112 808 1112 808 1112 551 c 0
 1112 286 1112 286 975 133 c 0
 838 -20 838 -20 610 -20 c 0
614 131 m 0
 924 131 924 131 924 551 c 0
 924 967 924 967 612 967 c 0
 303 967 303 967 303 551 c 0
 303 131 303 131 614 131 c 0
EndSplineSet
Refer: 205 -1 N 1 0 0 1 2 0 2
Validated: 1
EndChar

StartChar: uni1ED8
Encoding: 7896 7896 169
Width: 1229
GlyphClass: 2
Flags: W
LayerCount: 2
Back
Fore
SplineSet
508 -246 m 0,0,1
 508 -186 508 -186 538.5 -158.5 c 128,-1,2
 569 -131 569 -131 614 -131 c 0,3,4
 658 -131 658 -131 689.5 -158.5 c 128,-1,5
 721 -186 721 -186 721 -246 c 0,6,7
 721 -275 721 -275 712.5 -296.5 c 128,-1,8
 704 -318 704 -318 689.5 -332 c 128,-1,9
 675 -346 675 -346 655.5 -353 c 128,-1,10
 636 -360 636 -360 614 -360 c 0,11,12
 569 -360 569 -360 538.5 -332.5 c 128,-1,13
 508 -305 508 -305 508 -246 c 0,0,1
946 1579 m 1,14,-1
 825 1579 l 1,15,16
 740 1635 740 1635 614 1765 c 1,17,18
 481 1629 481 1629 403 1579 c 1,19,-1
 283 1579 l 1,20,-1
 283 1606 l 1,21,22
 308 1635 308 1635 342 1673 c 0,23,24
 481 1828 481 1828 518 1907 c 1,25,-1
 711 1907 l 1,26,27
 748 1828 748 1828 887 1673 c 1,28,-1
 946 1606 l 1,29,-1
 946 1579 l 1,14,-1
616 -20 m 0,30,31
 84 -20 84 -20 84 735 c 0,32,33
 84 1485 84 1485 618 1485 c 0,34,35
 874 1485 874 1485 1010.5 1289.5 c 128,-1,36
 1147 1094 1147 1094 1147 733 c 256,37,38
 1147 372 1147 372 1009 176 c 128,-1,39
 871 -20 871 -20 616 -20 c 0,30,31
616 143 m 0,40,41
 789 143 789 143 869.5 288 c 128,-1,42
 950 433 950 433 950 733 c 0,43,44
 950 1036 950 1036 868.5 1178.5 c 128,-1,45
 787 1321 787 1321 618 1321 c 0,46,47
 281 1321 281 1321 281 733 c 0,48,49
 281 143 281 143 616 143 c 0,40,41
EndSplineSet
Validated: 1
EndChar

StartChar: uni1ED9
Encoding: 7897 7897 170
Width: 1229
GlyphClass: 2
Flags: W
LayerCount: 2
Back
Fore
SplineSet
508 -246 m 0,0,1
 508 -186 508 -186 538.5 -158.5 c 128,-1,2
 569 -131 569 -131 614 -131 c 0,3,4
 658 -131 658 -131 689.5 -158.5 c 128,-1,5
 721 -186 721 -186 721 -246 c 0,6,7
 721 -275 721 -275 712.5 -296.5 c 128,-1,8
 704 -318 704 -318 689.5 -332 c 128,-1,9
 675 -346 675 -346 655.5 -353 c 128,-1,10
 636 -360 636 -360 614 -360 c 0,11,12
 569 -360 569 -360 538.5 -332.5 c 128,-1,13
 508 -305 508 -305 508 -246 c 0,0,1
946 1241 m 1,14,-1
 825 1241 l 1,15,16
 740 1297 740 1297 614 1427 c 1,17,18
 481 1291 481 1291 403 1241 c 1,19,-1
 283 1241 l 1,20,-1
 283 1268 l 1,21,22
 308 1297 308 1297 342 1335 c 0,23,24
 481 1490 481 1490 518 1569 c 1,25,-1
 711 1569 l 1,26,27
 748 1490 748 1490 887 1335 c 1,28,-1
 946 1268 l 1,29,-1
 946 1241 l 1,14,-1
610 -20 m 0,30,31
 394 -20 394 -20 254.5 135.5 c 128,-1,32
 115 291 115 291 115 551 c 0,33,34
 115 814 115 814 250.5 966 c 128,-1,35
 386 1118 386 1118 616 1118 c 0,36,37
 834 1118 834 1118 973 963 c 128,-1,38
 1112 808 1112 808 1112 551 c 0,39,40
 1112 286 1112 286 975 133 c 128,-1,41
 838 -20 838 -20 610 -20 c 0,30,31
614 131 m 0,42,43
 924 131 924 131 924 551 c 0,44,45
 924 967 924 967 612 967 c 0,46,47
 303 967 303 967 303 551 c 0,48,49
 303 131 303 131 614 131 c 0,42,43
EndSplineSet
Validated: 1
EndChar

StartChar: uni1EDA
Encoding: 7898 7898 171
Width: 1229
GlyphClass: 2
Flags: W
LayerCount: 2
Back
Fore
SplineSet
1147 733 m 0,0,1
 1147 564 1147 564 1115 425 c 128,-1,2
 1083 286 1083 286 1017 187 c 128,-1,3
 951 88 951 88 851 34 c 128,-1,4
 751 -20 751 -20 616 -20 c 0,5,6
 474 -20 474 -20 373.5 34 c 128,-1,7
 273 88 273 88 208.5 187 c 128,-1,8
 144 286 144 286 114 425.5 c 128,-1,9
 84 565 84 565 84 735 c 256,10,11
 84 905 84 905 114 1043.5 c 128,-1,12
 144 1182 144 1182 208.5 1280 c 128,-1,13
 273 1378 273 1378 374.5 1431.5 c 128,-1,14
 476 1485 476 1485 618 1485 c 0,15,16
 742 1485 742 1485 835.5 1440 c 128,-1,17
 929 1395 929 1395 995 1309 c 1,18,19
 1013 1328 1013 1328 1024.5 1354 c 128,-1,20
 1036 1380 1036 1380 1042.5 1411.5 c 128,-1,21
 1049 1443 1049 1443 1052 1479.5 c 128,-1,22
 1055 1516 1055 1516 1057 1556 c 1,23,-1
 1255 1556 l 1,24,-1
 1270 1534 l 1,25,26
 1259 1482 1259 1482 1242.5 1432.5 c 128,-1,27
 1226 1383 1226 1383 1201.5 1339.5 c 128,-1,28
 1177 1296 1177 1296 1143 1259 c 128,-1,29
 1109 1222 1109 1222 1063 1194 c 1,30,31
 1105 1103 1105 1103 1126 986.5 c 128,-1,32
 1147 870 1147 870 1147 733 c 0,0,1
281 733 m 0,33,34
 281 596 281 596 299 486.5 c 128,-1,35
 317 377 317 377 356.5 300.5 c 128,-1,36
 396 224 396 224 460 183.5 c 128,-1,37
 524 143 524 143 616 143 c 0,38,39
 709 143 709 143 773 183.5 c 128,-1,40
 837 224 837 224 876 300.5 c 128,-1,41
 915 377 915 377 932.5 486.5 c 128,-1,42
 950 596 950 596 950 733 c 0,43,44
 950 871 950 871 932.5 980 c 128,-1,45
 915 1089 915 1089 876 1164.5 c 128,-1,46
 837 1240 837 1240 773.5 1280.5 c 128,-1,47
 710 1321 710 1321 618 1321 c 0,48,49
 525 1321 525 1321 461 1280.5 c 128,-1,50
 397 1240 397 1240 357 1164.5 c 128,-1,51
 317 1089 317 1089 299 980 c 128,-1,52
 281 871 281 871 281 733 c 0,33,34
508 1606 m 1,53,54
 602 1739 602 1739 682 1907 c 1,55,-1
 901 1907 l 1,56,-1
 901 1886 l 1,57,58
 789 1713 789 1713 629 1579 c 1,59,-1
 508 1579 l 1,60,-1
 508 1606 l 1,53,54
EndSplineSet
Validated: 1
EndChar

StartChar: uni1EDB
Encoding: 7899 7899 172
Width: 1229
GlyphClass: 2
Flags: W
LayerCount: 2
Back
Fore
SplineSet
1112 551 m 0,0,1
 1112 414 1112 414 1075 307.5 c 128,-1,2
 1038 201 1038 201 971.5 128.5 c 128,-1,3
 905 56 905 56 813 18 c 128,-1,4
 721 -20 721 -20 610 -20 c 0,5,6
 507 -20 507 -20 417 18 c 128,-1,7
 327 56 327 56 260 128.5 c 128,-1,8
 193 201 193 201 154 307.5 c 128,-1,9
 115 414 115 414 115 551 c 0,10,11
 115 687 115 687 151.5 792.5 c 128,-1,12
 188 898 188 898 254 970.5 c 128,-1,13
 320 1043 320 1043 412.5 1080.5 c 128,-1,14
 505 1118 505 1118 616 1118 c 0,15,16
 713 1118 713 1118 798.5 1085 c 128,-1,17
 884 1052 884 1052 950 987 c 1,18,19
 988 1003 988 1003 1009.5 1031 c 128,-1,20
 1031 1059 1031 1059 1041.5 1095 c 128,-1,21
 1052 1131 1052 1131 1054.5 1174.5 c 128,-1,22
 1057 1218 1057 1218 1057 1266 c 1,23,-1
 1255 1266 l 1,24,-1
 1270 1243 l 1,25,26
 1255 1174 1255 1174 1234 1117 c 128,-1,27
 1213 1060 1213 1060 1184.5 1014.5 c 128,-1,28
 1156 969 1156 969 1118.5 935.5 c 128,-1,29
 1081 902 1081 902 1032 881 c 1,30,31
 1070 815 1070 815 1091 732.5 c 128,-1,32
 1112 650 1112 650 1112 551 c 0,0,1
303 551 m 0,33,34
 303 340 303 340 381.5 235.5 c 128,-1,35
 460 131 460 131 614 131 c 0,36,37
 924 131 924 131 924 551 c 0,38,39
 924 761 924 761 845.5 864 c 128,-1,40
 767 967 767 967 612 967 c 0,41,42
 458 967 458 967 380.5 864 c 128,-1,43
 303 761 303 761 303 551 c 0,33,34
498 1268 m 1,44,45
 592 1401 592 1401 672 1569 c 1,46,-1
 891 1569 l 1,47,-1
 891 1548 l 1,48,49
 779 1375 779 1375 619 1241 c 1,50,-1
 498 1241 l 1,51,-1
 498 1268 l 1,44,45
EndSplineSet
Validated: 1
EndChar

StartChar: uni1EDC
Encoding: 7900 7900 173
Width: 1229
GlyphClass: 2
Flags: W
LayerCount: 2
Back
Fore
SplineSet
1147 733 m 0,0,1
 1147 564 1147 564 1115 425 c 128,-1,2
 1083 286 1083 286 1017 187 c 128,-1,3
 951 88 951 88 851 34 c 128,-1,4
 751 -20 751 -20 616 -20 c 0,5,6
 474 -20 474 -20 373.5 34 c 128,-1,7
 273 88 273 88 208.5 187 c 128,-1,8
 144 286 144 286 114 425.5 c 128,-1,9
 84 565 84 565 84 735 c 256,10,11
 84 905 84 905 114 1043.5 c 128,-1,12
 144 1182 144 1182 208.5 1280 c 128,-1,13
 273 1378 273 1378 374.5 1431.5 c 128,-1,14
 476 1485 476 1485 618 1485 c 0,15,16
 742 1485 742 1485 835.5 1440 c 128,-1,17
 929 1395 929 1395 995 1309 c 1,18,19
 1013 1328 1013 1328 1024.5 1354 c 128,-1,20
 1036 1380 1036 1380 1042.5 1411.5 c 128,-1,21
 1049 1443 1049 1443 1052 1479.5 c 128,-1,22
 1055 1516 1055 1516 1057 1556 c 1,23,-1
 1255 1556 l 1,24,-1
 1270 1534 l 1,25,26
 1259 1482 1259 1482 1242.5 1432.5 c 128,-1,27
 1226 1383 1226 1383 1201.5 1339.5 c 128,-1,28
 1177 1296 1177 1296 1143 1259 c 128,-1,29
 1109 1222 1109 1222 1063 1194 c 1,30,31
 1105 1103 1105 1103 1126 986.5 c 128,-1,32
 1147 870 1147 870 1147 733 c 0,0,1
281 733 m 0,33,34
 281 596 281 596 299 486.5 c 128,-1,35
 317 377 317 377 356.5 300.5 c 128,-1,36
 396 224 396 224 460 183.5 c 128,-1,37
 524 143 524 143 616 143 c 0,38,39
 709 143 709 143 773 183.5 c 128,-1,40
 837 224 837 224 876 300.5 c 128,-1,41
 915 377 915 377 932.5 486.5 c 128,-1,42
 950 596 950 596 950 733 c 0,43,44
 950 871 950 871 932.5 980 c 128,-1,45
 915 1089 915 1089 876 1164.5 c 128,-1,46
 837 1240 837 1240 773.5 1280.5 c 128,-1,47
 710 1321 710 1321 618 1321 c 0,48,49
 525 1321 525 1321 461 1280.5 c 128,-1,50
 397 1240 397 1240 357 1164.5 c 128,-1,51
 317 1089 317 1089 299 980 c 128,-1,52
 281 871 281 871 281 733 c 0,33,34
730 1579 m 1,53,-1
 609 1579 l 1,54,55
 443 1721 443 1721 337 1886 c 1,56,-1
 337 1907 l 1,57,-1
 556 1907 l 1,58,59
 642 1729 642 1729 730 1606 c 1,60,-1
 730 1579 l 1,53,-1
EndSplineSet
Validated: 1
EndChar

StartChar: uni1EDD
Encoding: 7901 7901 174
Width: 1229
GlyphClass: 2
Flags: W
LayerCount: 2
Back
Fore
SplineSet
1112 551 m 0,0,1
 1112 414 1112 414 1075 307.5 c 128,-1,2
 1038 201 1038 201 971.5 128.5 c 128,-1,3
 905 56 905 56 813 18 c 128,-1,4
 721 -20 721 -20 610 -20 c 0,5,6
 507 -20 507 -20 417 18 c 128,-1,7
 327 56 327 56 260 128.5 c 128,-1,8
 193 201 193 201 154 307.5 c 128,-1,9
 115 414 115 414 115 551 c 0,10,11
 115 687 115 687 151.5 792.5 c 128,-1,12
 188 898 188 898 254 970.5 c 128,-1,13
 320 1043 320 1043 412.5 1080.5 c 128,-1,14
 505 1118 505 1118 616 1118 c 0,15,16
 713 1118 713 1118 798.5 1085 c 128,-1,17
 884 1052 884 1052 950 987 c 1,18,19
 988 1003 988 1003 1009.5 1031 c 128,-1,20
 1031 1059 1031 1059 1041.5 1095 c 128,-1,21
 1052 1131 1052 1131 1054.5 1174.5 c 128,-1,22
 1057 1218 1057 1218 1057 1266 c 1,23,-1
 1255 1266 l 1,24,-1
 1270 1243 l 1,25,26
 1255 1174 1255 1174 1234 1117 c 128,-1,27
 1213 1060 1213 1060 1184.5 1014.5 c 128,-1,28
 1156 969 1156 969 1118.5 935.5 c 128,-1,29
 1081 902 1081 902 1032 881 c 1,30,31
 1070 815 1070 815 1091 732.5 c 128,-1,32
 1112 650 1112 650 1112 551 c 0,0,1
303 551 m 0,33,34
 303 340 303 340 381.5 235.5 c 128,-1,35
 460 131 460 131 614 131 c 0,36,37
 924 131 924 131 924 551 c 0,38,39
 924 761 924 761 845.5 864 c 128,-1,40
 767 967 767 967 612 967 c 0,41,42
 458 967 458 967 380.5 864 c 128,-1,43
 303 761 303 761 303 551 c 0,33,34
771 1241 m 1,44,-1
 650 1241 l 1,45,46
 484 1383 484 1383 378 1548 c 1,47,-1
 378 1569 l 1,48,-1
 597 1569 l 1,49,50
 683 1391 683 1391 771 1268 c 1,51,-1
 771 1241 l 1,44,-1
EndSplineSet
Validated: 1
EndChar

StartChar: uni1EDE
Encoding: 7902 7902 175
Width: 1229
GlyphClass: 2
Flags: W
LayerCount: 2
Back
Fore
SplineSet
824 1829 m 0,0,1
 824 1790 824 1790 810.5 1761 c 128,-1,2
 797 1732 797 1732 774.5 1711.5 c 128,-1,3
 752 1691 752 1691 722 1678 c 128,-1,4
 692 1665 692 1665 658 1657 c 1,5,-1
 648 1546 l 1,6,-1
 535 1546 l 1,7,-1
 521 1722 l 1,8,9
 558 1728 558 1728 587.5 1736 c 128,-1,10
 617 1744 617 1744 638 1756 c 128,-1,11
 659 1768 659 1768 670.5 1784.5 c 128,-1,12
 682 1801 682 1801 682 1825 c 256,13,14
 682 1849 682 1849 672 1865 c 128,-1,15
 662 1881 662 1881 644 1890.5 c 128,-1,16
 626 1900 626 1900 601 1903.5 c 128,-1,17
 576 1907 576 1907 547 1907 c 0,18,19
 519 1907 519 1907 493 1905.5 c 128,-1,20
 467 1904 467 1904 451 1901 c 1,21,-1
 451 2009 l 1,22,23
 467 2012 467 2012 492 2014.5 c 128,-1,24
 517 2017 517 2017 558 2017 c 0,25,26
 691 2017 691 2017 757.5 1971.5 c 128,-1,27
 824 1926 824 1926 824 1829 c 0,0,1
1147 733 m 0,28,29
 1147 564 1147 564 1115 425 c 128,-1,30
 1083 286 1083 286 1017 187 c 128,-1,31
 951 88 951 88 851 34 c 128,-1,32
 751 -20 751 -20 616 -20 c 0,33,34
 474 -20 474 -20 373.5 34 c 128,-1,35
 273 88 273 88 208.5 187 c 128,-1,36
 144 286 144 286 114 425.5 c 128,-1,37
 84 565 84 565 84 735 c 256,38,39
 84 905 84 905 114 1043.5 c 128,-1,40
 144 1182 144 1182 208.5 1280 c 128,-1,41
 273 1378 273 1378 374.5 1431.5 c 128,-1,42
 476 1485 476 1485 618 1485 c 0,43,44
 742 1485 742 1485 835.5 1440 c 128,-1,45
 929 1395 929 1395 995 1309 c 1,46,47
 1013 1328 1013 1328 1024.5 1354 c 128,-1,48
 1036 1380 1036 1380 1042.5 1411.5 c 128,-1,49
 1049 1443 1049 1443 1052 1479.5 c 128,-1,50
 1055 1516 1055 1516 1057 1556 c 1,51,-1
 1255 1556 l 1,52,-1
 1270 1534 l 1,53,54
 1259 1482 1259 1482 1242.5 1432.5 c 128,-1,55
 1226 1383 1226 1383 1201.5 1339.5 c 128,-1,56
 1177 1296 1177 1296 1143 1259 c 128,-1,57
 1109 1222 1109 1222 1063 1194 c 1,58,59
 1105 1103 1105 1103 1126 986.5 c 128,-1,60
 1147 870 1147 870 1147 733 c 0,28,29
281 733 m 0,61,62
 281 596 281 596 299 486.5 c 128,-1,63
 317 377 317 377 356.5 300.5 c 128,-1,64
 396 224 396 224 460 183.5 c 128,-1,65
 524 143 524 143 616 143 c 0,66,67
 709 143 709 143 773 183.5 c 128,-1,68
 837 224 837 224 876 300.5 c 128,-1,69
 915 377 915 377 932.5 486.5 c 128,-1,70
 950 596 950 596 950 733 c 0,71,72
 950 871 950 871 932.5 980 c 128,-1,73
 915 1089 915 1089 876 1164.5 c 128,-1,74
 837 1240 837 1240 773.5 1280.5 c 128,-1,75
 710 1321 710 1321 618 1321 c 0,76,77
 525 1321 525 1321 461 1280.5 c 128,-1,78
 397 1240 397 1240 357 1164.5 c 128,-1,79
 317 1089 317 1089 299 980 c 128,-1,80
 281 871 281 871 281 733 c 0,61,62
EndSplineSet
Validated: 1
EndChar

StartChar: uni1EDF
Encoding: 7903 7903 176
Width: 1229
GlyphClass: 2
Flags: W
LayerCount: 2
Back
Fore
SplineSet
832 1491 m 0,0,1
 832 1452 832 1452 818.5 1423 c 128,-1,2
 805 1394 805 1394 782.5 1373.5 c 128,-1,3
 760 1353 760 1353 730 1340 c 128,-1,4
 700 1327 700 1327 666 1319 c 1,5,-1
 656 1208 l 1,6,-1
 543 1208 l 1,7,-1
 529 1384 l 1,8,9
 566 1390 566 1390 595.5 1398 c 128,-1,10
 625 1406 625 1406 646 1418 c 128,-1,11
 667 1430 667 1430 678.5 1446.5 c 128,-1,12
 690 1463 690 1463 690 1487 c 256,13,14
 690 1511 690 1511 680 1527 c 128,-1,15
 670 1543 670 1543 652 1552.5 c 128,-1,16
 634 1562 634 1562 609 1565.5 c 128,-1,17
 584 1569 584 1569 555 1569 c 0,18,19
 527 1569 527 1569 501 1567.5 c 128,-1,20
 475 1566 475 1566 459 1563 c 1,21,-1
 459 1671 l 1,22,23
 475 1674 475 1674 500 1676.5 c 128,-1,24
 525 1679 525 1679 566 1679 c 0,25,26
 699 1679 699 1679 765.5 1633.5 c 128,-1,27
 832 1588 832 1588 832 1491 c 0,0,1
1112 551 m 0,28,29
 1112 414 1112 414 1075 307.5 c 128,-1,30
 1038 201 1038 201 971.5 128.5 c 128,-1,31
 905 56 905 56 813 18 c 128,-1,32
 721 -20 721 -20 610 -20 c 0,33,34
 507 -20 507 -20 417 18 c 128,-1,35
 327 56 327 56 260 128.5 c 128,-1,36
 193 201 193 201 154 307.5 c 128,-1,37
 115 414 115 414 115 551 c 0,38,39
 115 687 115 687 151.5 792.5 c 128,-1,40
 188 898 188 898 254 970.5 c 128,-1,41
 320 1043 320 1043 412.5 1080.5 c 128,-1,42
 505 1118 505 1118 616 1118 c 0,43,44
 713 1118 713 1118 798.5 1085 c 128,-1,45
 884 1052 884 1052 950 987 c 1,46,47
 988 1003 988 1003 1009.5 1031 c 128,-1,48
 1031 1059 1031 1059 1041.5 1095 c 128,-1,49
 1052 1131 1052 1131 1054.5 1174.5 c 128,-1,50
 1057 1218 1057 1218 1057 1266 c 1,51,-1
 1255 1266 l 1,52,-1
 1270 1243 l 1,53,54
 1255 1174 1255 1174 1234 1117 c 128,-1,55
 1213 1060 1213 1060 1184.5 1014.5 c 128,-1,56
 1156 969 1156 969 1118.5 935.5 c 128,-1,57
 1081 902 1081 902 1032 881 c 1,58,59
 1070 815 1070 815 1091 732.5 c 128,-1,60
 1112 650 1112 650 1112 551 c 0,28,29
303 551 m 0,61,62
 303 340 303 340 381.5 235.5 c 128,-1,63
 460 131 460 131 614 131 c 0,64,65
 924 131 924 131 924 551 c 0,66,67
 924 761 924 761 845.5 864 c 128,-1,68
 767 967 767 967 612 967 c 0,69,70
 458 967 458 967 380.5 864 c 128,-1,71
 303 761 303 761 303 551 c 0,61,62
EndSplineSet
Validated: 1
EndChar

StartChar: uni1EE0
Encoding: 7904 7904 177
Width: 1229
GlyphClass: 2
Flags: W
LayerCount: 2
Back
Fore
SplineSet
366 1579 m 1,0,-1
 262 1579 l 1,1,2
 287 1843 287 1843 473 1843 c 0,3,4
 531 1843 531 1843 634 1787 c 0,5,6
 736 1731 736 1731 770 1731 c 0,7,8
 850 1731 850 1731 876 1845 c 1,9,-1
 981 1845 l 1,10,11
 954 1581 954 1581 770 1581 c 0,12,13
 713 1581 713 1581 613 1638 c 0,14,15
 513 1694 513 1694 473 1694 c 0,16,17
 391 1694 391 1694 366 1579 c 1,0,-1
1147 733 m 0,18,19
 1147 564 1147 564 1115 425 c 128,-1,20
 1083 286 1083 286 1017 187 c 128,-1,21
 951 88 951 88 851 34 c 128,-1,22
 751 -20 751 -20 616 -20 c 0,23,24
 474 -20 474 -20 373.5 34 c 128,-1,25
 273 88 273 88 208.5 187 c 128,-1,26
 144 286 144 286 114 425.5 c 128,-1,27
 84 565 84 565 84 735 c 256,28,29
 84 905 84 905 114 1043.5 c 128,-1,30
 144 1182 144 1182 208.5 1280 c 128,-1,31
 273 1378 273 1378 374.5 1431.5 c 128,-1,32
 476 1485 476 1485 618 1485 c 0,33,34
 742 1485 742 1485 835.5 1440 c 128,-1,35
 929 1395 929 1395 995 1309 c 1,36,37
 1013 1328 1013 1328 1024.5 1354 c 128,-1,38
 1036 1380 1036 1380 1042.5 1411.5 c 128,-1,39
 1049 1443 1049 1443 1052 1479.5 c 128,-1,40
 1055 1516 1055 1516 1057 1556 c 1,41,-1
 1255 1556 l 1,42,-1
 1270 1534 l 1,43,44
 1259 1482 1259 1482 1242.5 1432.5 c 128,-1,45
 1226 1383 1226 1383 1201.5 1339.5 c 128,-1,46
 1177 1296 1177 1296 1143 1259 c 128,-1,47
 1109 1222 1109 1222 1063 1194 c 1,48,49
 1105 1103 1105 1103 1126 986.5 c 128,-1,50
 1147 870 1147 870 1147 733 c 0,18,19
281 733 m 0,51,52
 281 596 281 596 299 486.5 c 128,-1,53
 317 377 317 377 356.5 300.5 c 128,-1,54
 396 224 396 224 460 183.5 c 128,-1,55
 524 143 524 143 616 143 c 0,56,57
 709 143 709 143 773 183.5 c 128,-1,58
 837 224 837 224 876 300.5 c 128,-1,59
 915 377 915 377 932.5 486.5 c 128,-1,60
 950 596 950 596 950 733 c 0,61,62
 950 871 950 871 932.5 980 c 128,-1,63
 915 1089 915 1089 876 1164.5 c 128,-1,64
 837 1240 837 1240 773.5 1280.5 c 128,-1,65
 710 1321 710 1321 618 1321 c 0,66,67
 525 1321 525 1321 461 1280.5 c 128,-1,68
 397 1240 397 1240 357 1164.5 c 128,-1,69
 317 1089 317 1089 299 980 c 128,-1,70
 281 871 281 871 281 733 c 0,51,52
EndSplineSet
Validated: 1
EndChar

StartChar: uni1EE1
Encoding: 7905 7905 178
Width: 1229
GlyphClass: 2
Flags: W
LayerCount: 2
Back
Fore
SplineSet
358 1241 m 1,0,-1
 254 1241 l 1,1,2
 279 1505 279 1505 465 1505 c 0,3,4
 523 1505 523 1505 626 1449 c 0,5,6
 728 1393 728 1393 762 1393 c 0,7,8
 842 1393 842 1393 868 1507 c 1,9,-1
 973 1507 l 1,10,11
 946 1243 946 1243 762 1243 c 0,12,13
 705 1243 705 1243 605 1300 c 0,14,15
 505 1356 505 1356 465 1356 c 0,16,17
 383 1356 383 1356 358 1241 c 1,0,-1
1112 551 m 0,18,19
 1112 414 1112 414 1075 307.5 c 128,-1,20
 1038 201 1038 201 971.5 128.5 c 128,-1,21
 905 56 905 56 813 18 c 128,-1,22
 721 -20 721 -20 610 -20 c 0,23,24
 507 -20 507 -20 417 18 c 128,-1,25
 327 56 327 56 260 128.5 c 128,-1,26
 193 201 193 201 154 307.5 c 128,-1,27
 115 414 115 414 115 551 c 0,28,29
 115 687 115 687 151.5 792.5 c 128,-1,30
 188 898 188 898 254 970.5 c 128,-1,31
 320 1043 320 1043 412.5 1080.5 c 128,-1,32
 505 1118 505 1118 616 1118 c 0,33,34
 713 1118 713 1118 798.5 1085 c 128,-1,35
 884 1052 884 1052 950 987 c 1,36,37
 988 1003 988 1003 1009.5 1031 c 128,-1,38
 1031 1059 1031 1059 1041.5 1095 c 128,-1,39
 1052 1131 1052 1131 1054.5 1174.5 c 128,-1,40
 1057 1218 1057 1218 1057 1266 c 1,41,-1
 1255 1266 l 1,42,-1
 1270 1243 l 1,43,44
 1255 1174 1255 1174 1234 1117 c 128,-1,45
 1213 1060 1213 1060 1184.5 1014.5 c 128,-1,46
 1156 969 1156 969 1118.5 935.5 c 128,-1,47
 1081 902 1081 902 1032 881 c 1,48,49
 1070 815 1070 815 1091 732.5 c 128,-1,50
 1112 650 1112 650 1112 551 c 0,18,19
303 551 m 0,51,52
 303 340 303 340 381.5 235.5 c 128,-1,53
 460 131 460 131 614 131 c 0,54,55
 924 131 924 131 924 551 c 0,56,57
 924 761 924 761 845.5 864 c 128,-1,58
 767 967 767 967 612 967 c 0,59,60
 458 967 458 967 380.5 864 c 128,-1,61
 303 761 303 761 303 551 c 0,51,52
EndSplineSet
Validated: 1
EndChar

StartChar: uni1EE2
Encoding: 7906 7906 179
Width: 1229
GlyphClass: 2
Flags: W
LayerCount: 2
Back
Fore
SplineSet
508 -246 m 0,0,1
 508 -186 508 -186 538.5 -158.5 c 128,-1,2
 569 -131 569 -131 614 -131 c 0,3,4
 658 -131 658 -131 689.5 -158.5 c 128,-1,5
 721 -186 721 -186 721 -246 c 0,6,7
 721 -275 721 -275 712.5 -296.5 c 128,-1,8
 704 -318 704 -318 689.5 -332 c 128,-1,9
 675 -346 675 -346 655.5 -353 c 128,-1,10
 636 -360 636 -360 614 -360 c 0,11,12
 569 -360 569 -360 538.5 -332.5 c 128,-1,13
 508 -305 508 -305 508 -246 c 0,0,1
1147 733 m 0,14,15
 1147 564 1147 564 1115 425 c 128,-1,16
 1083 286 1083 286 1017 187 c 128,-1,17
 951 88 951 88 851 34 c 128,-1,18
 751 -20 751 -20 616 -20 c 0,19,20
 474 -20 474 -20 373.5 34 c 128,-1,21
 273 88 273 88 208.5 187 c 128,-1,22
 144 286 144 286 114 425.5 c 128,-1,23
 84 565 84 565 84 735 c 256,24,25
 84 905 84 905 114 1043.5 c 128,-1,26
 144 1182 144 1182 208.5 1280 c 128,-1,27
 273 1378 273 1378 374.5 1431.5 c 128,-1,28
 476 1485 476 1485 618 1485 c 0,29,30
 742 1485 742 1485 835.5 1440 c 128,-1,31
 929 1395 929 1395 995 1309 c 1,32,33
 1013 1328 1013 1328 1024.5 1354 c 128,-1,34
 1036 1380 1036 1380 1042.5 1411.5 c 128,-1,35
 1049 1443 1049 1443 1052 1479.5 c 128,-1,36
 1055 1516 1055 1516 1057 1556 c 1,37,-1
 1255 1556 l 1,38,-1
 1270 1534 l 1,39,40
 1259 1482 1259 1482 1242.5 1432.5 c 128,-1,41
 1226 1383 1226 1383 1201.5 1339.5 c 128,-1,42
 1177 1296 1177 1296 1143 1259 c 128,-1,43
 1109 1222 1109 1222 1063 1194 c 1,44,45
 1105 1103 1105 1103 1126 986.5 c 128,-1,46
 1147 870 1147 870 1147 733 c 0,14,15
281 733 m 0,47,48
 281 596 281 596 299 486.5 c 128,-1,49
 317 377 317 377 356.5 300.5 c 128,-1,50
 396 224 396 224 460 183.5 c 128,-1,51
 524 143 524 143 616 143 c 0,52,53
 709 143 709 143 773 183.5 c 128,-1,54
 837 224 837 224 876 300.5 c 128,-1,55
 915 377 915 377 932.5 486.5 c 128,-1,56
 950 596 950 596 950 733 c 0,57,58
 950 871 950 871 932.5 980 c 128,-1,59
 915 1089 915 1089 876 1164.5 c 128,-1,60
 837 1240 837 1240 773.5 1280.5 c 128,-1,61
 710 1321 710 1321 618 1321 c 0,62,63
 525 1321 525 1321 461 1280.5 c 128,-1,64
 397 1240 397 1240 357 1164.5 c 128,-1,65
 317 1089 317 1089 299 980 c 128,-1,66
 281 871 281 871 281 733 c 0,47,48
EndSplineSet
Validated: 1
EndChar

StartChar: uni1EE3
Encoding: 7907 7907 180
Width: 1229
GlyphClass: 2
Flags: W
LayerCount: 2
Back
Fore
SplineSet
508 -246 m 0,0,1
 508 -186 508 -186 538.5 -158.5 c 128,-1,2
 569 -131 569 -131 614 -131 c 0,3,4
 658 -131 658 -131 689.5 -158.5 c 128,-1,5
 721 -186 721 -186 721 -246 c 0,6,7
 721 -275 721 -275 712.5 -296.5 c 128,-1,8
 704 -318 704 -318 689.5 -332 c 128,-1,9
 675 -346 675 -346 655.5 -353 c 128,-1,10
 636 -360 636 -360 614 -360 c 0,11,12
 569 -360 569 -360 538.5 -332.5 c 128,-1,13
 508 -305 508 -305 508 -246 c 0,0,1
1112 551 m 0,14,15
 1112 414 1112 414 1075 307.5 c 128,-1,16
 1038 201 1038 201 971.5 128.5 c 128,-1,17
 905 56 905 56 813 18 c 128,-1,18
 721 -20 721 -20 610 -20 c 0,19,20
 507 -20 507 -20 417 18 c 128,-1,21
 327 56 327 56 260 128.5 c 128,-1,22
 193 201 193 201 154 307.5 c 128,-1,23
 115 414 115 414 115 551 c 0,24,25
 115 687 115 687 151.5 792.5 c 128,-1,26
 188 898 188 898 254 970.5 c 128,-1,27
 320 1043 320 1043 412.5 1080.5 c 128,-1,28
 505 1118 505 1118 616 1118 c 0,29,30
 713 1118 713 1118 798.5 1085 c 128,-1,31
 884 1052 884 1052 950 987 c 1,32,33
 988 1003 988 1003 1009.5 1031 c 128,-1,34
 1031 1059 1031 1059 1041.5 1095 c 128,-1,35
 1052 1131 1052 1131 1054.5 1174.5 c 128,-1,36
 1057 1218 1057 1218 1057 1266 c 1,37,-1
 1255 1266 l 1,38,-1
 1270 1243 l 1,39,40
 1255 1174 1255 1174 1234 1117 c 128,-1,41
 1213 1060 1213 1060 1184.5 1014.5 c 128,-1,42
 1156 969 1156 969 1118.5 935.5 c 128,-1,43
 1081 902 1081 902 1032 881 c 1,44,45
 1070 815 1070 815 1091 732.5 c 128,-1,46
 1112 650 1112 650 1112 551 c 0,14,15
303 551 m 0,47,48
 303 340 303 340 381.5 235.5 c 128,-1,49
 460 131 460 131 614 131 c 0,50,51
 924 131 924 131 924 551 c 0,52,53
 924 761 924 761 845.5 864 c 128,-1,54
 767 967 767 967 612 967 c 0,55,56
 458 967 458 967 380.5 864 c 128,-1,57
 303 761 303 761 303 551 c 0,47,48
EndSplineSet
Validated: 1
EndChar

StartChar: uni1EE4
Encoding: 7908 7908 181
Width: 1229
GlyphClass: 2
Flags: W
LayerCount: 2
Back
Fore
SplineSet
508 -246 m 0,0,1
 508 -186 508 -186 538.5 -158.5 c 128,-1,2
 569 -131 569 -131 614 -131 c 0,3,4
 658 -131 658 -131 689.5 -158.5 c 128,-1,5
 721 -186 721 -186 721 -246 c 0,6,7
 721 -275 721 -275 712.5 -296.5 c 128,-1,8
 704 -318 704 -318 689.5 -332 c 128,-1,9
 675 -346 675 -346 655.5 -353 c 128,-1,10
 636 -360 636 -360 614 -360 c 0,11,12
 569 -360 569 -360 538.5 -332.5 c 128,-1,13
 508 -305 508 -305 508 -246 c 0,0,1
1104 1464 m 1,14,-1
 1104 516 l 2,15,16
 1104 256 1104 256 978 118 c 128,-1,17
 852 -20 852 -20 608 -20 c 0,18,19
 125 -20 125 -20 125 520 c 2,20,-1
 125 1462 l 1,21,-1
 311 1462 l 1,22,-1
 311 530 l 2,23,24
 311 143 311 143 618 143 c 0,25,26
 913 143 913 143 918 532 c 1,27,-1
 918 1464 l 1,28,-1
 1104 1464 l 1,14,-1
EndSplineSet
Validated: 1
EndChar

StartChar: uni1EE5
Encoding: 7909 7909 182
Width: 1229
GlyphClass: 2
Flags: W
LayerCount: 2
Back
Fore
SplineSet
508 -246 m 0,0,1
 508 -186 508 -186 538.5 -158.5 c 128,-1,2
 569 -131 569 -131 614 -131 c 0,3,4
 658 -131 658 -131 689.5 -158.5 c 128,-1,5
 721 -186 721 -186 721 -246 c 0,6,7
 721 -275 721 -275 712.5 -296.5 c 128,-1,8
 704 -318 704 -318 689.5 -332 c 128,-1,9
 675 -346 675 -346 655.5 -353 c 128,-1,10
 636 -360 636 -360 614 -360 c 0,11,12
 569 -360 569 -360 538.5 -332.5 c 128,-1,13
 508 -305 508 -305 508 -246 c 0,0,1
922 0 m 1,14,-1
 895 147 l 1,15,-1
 885 147 l 1,16,17
 780 -20 780 -20 551 -20 c 0,18,19
 160 -20 160 -20 160 381 c 2,20,-1
 160 1098 l 1,21,-1
 342 1098 l 1,22,-1
 342 391 l 2,23,24
 342 131 342 131 578 131 c 0,25,26
 739 131 739 131 813 223.5 c 128,-1,27
 887 316 887 316 887 528 c 2,28,-1
 887 1098 l 1,29,-1
 1069 1098 l 1,30,-1
 1069 0 l 1,31,-1
 922 0 l 1,14,-1
EndSplineSet
Validated: 1
EndChar

StartChar: uni1EE6
Encoding: 7910 7910 183
Width: 1229
GlyphClass: 2
Flags: W
LayerCount: 2
Back
Fore
SplineSet
824 1829 m 0,0,1
 824 1790 824 1790 810.5 1761 c 128,-1,2
 797 1732 797 1732 774.5 1711.5 c 128,-1,3
 752 1691 752 1691 722 1678 c 128,-1,4
 692 1665 692 1665 658 1657 c 1,5,-1
 648 1546 l 1,6,-1
 535 1546 l 1,7,-1
 521 1722 l 1,8,9
 558 1728 558 1728 587.5 1736 c 128,-1,10
 617 1744 617 1744 638 1756 c 128,-1,11
 659 1768 659 1768 670.5 1784.5 c 128,-1,12
 682 1801 682 1801 682 1825 c 256,13,14
 682 1849 682 1849 672 1865 c 128,-1,15
 662 1881 662 1881 644 1890.5 c 128,-1,16
 626 1900 626 1900 601 1903.5 c 128,-1,17
 576 1907 576 1907 547 1907 c 0,18,19
 519 1907 519 1907 493 1905.5 c 128,-1,20
 467 1904 467 1904 451 1901 c 1,21,-1
 451 2009 l 1,22,23
 467 2012 467 2012 492 2014.5 c 128,-1,24
 517 2017 517 2017 558 2017 c 0,25,26
 691 2017 691 2017 757.5 1971.5 c 128,-1,27
 824 1926 824 1926 824 1829 c 0,0,1
1104 1464 m 1,28,-1
 1104 516 l 2,29,30
 1104 256 1104 256 978 118 c 128,-1,31
 852 -20 852 -20 608 -20 c 0,32,33
 125 -20 125 -20 125 520 c 2,34,-1
 125 1462 l 1,35,-1
 311 1462 l 1,36,-1
 311 530 l 2,37,38
 311 143 311 143 618 143 c 0,39,40
 913 143 913 143 918 532 c 1,41,-1
 918 1464 l 1,42,-1
 1104 1464 l 1,28,-1
EndSplineSet
Validated: 1
EndChar

StartChar: uni1EE7
Encoding: 7911 7911 184
Width: 1229
GlyphClass: 2
Flags: W
LayerCount: 2
Back
Fore
SplineSet
830 1491 m 0,0,1
 830 1452 830 1452 816.5 1423 c 128,-1,2
 803 1394 803 1394 780.5 1373.5 c 128,-1,3
 758 1353 758 1353 728 1340 c 128,-1,4
 698 1327 698 1327 664 1319 c 1,5,-1
 654 1208 l 1,6,-1
 541 1208 l 1,7,-1
 527 1384 l 1,8,9
 564 1390 564 1390 593.5 1398 c 128,-1,10
 623 1406 623 1406 644 1418 c 128,-1,11
 665 1430 665 1430 676.5 1446.5 c 128,-1,12
 688 1463 688 1463 688 1487 c 256,13,14
 688 1511 688 1511 678 1527 c 128,-1,15
 668 1543 668 1543 650 1552.5 c 128,-1,16
 632 1562 632 1562 607 1565.5 c 128,-1,17
 582 1569 582 1569 553 1569 c 0,18,19
 525 1569 525 1569 499 1567.5 c 128,-1,20
 473 1566 473 1566 457 1563 c 1,21,-1
 457 1671 l 1,22,23
 473 1674 473 1674 498 1676.5 c 128,-1,24
 523 1679 523 1679 564 1679 c 0,25,26
 697 1679 697 1679 763.5 1633.5 c 128,-1,27
 830 1588 830 1588 830 1491 c 0,0,1
922 0 m 1,28,-1
 895 147 l 1,29,-1
 885 147 l 1,30,31
 780 -20 780 -20 551 -20 c 0,32,33
 160 -20 160 -20 160 381 c 2,34,-1
 160 1098 l 1,35,-1
 342 1098 l 1,36,-1
 342 391 l 2,37,38
 342 131 342 131 578 131 c 0,39,40
 739 131 739 131 813 223.5 c 128,-1,41
 887 316 887 316 887 528 c 2,42,-1
 887 1098 l 1,43,-1
 1069 1098 l 1,44,-1
 1069 0 l 1,45,-1
 922 0 l 1,28,-1
EndSplineSet
Validated: 1
EndChar

StartChar: uni1EE8
Encoding: 7912 7912 185
Width: 1229
GlyphClass: 2
Flags: W
LayerCount: 2
Back
Fore
SplineSet
950 1462 m 1,0,-1
 950 1268 l 1,1,2
 997 1276 997 1276 1024.5 1302 c 128,-1,3
 1052 1328 1052 1328 1066.5 1366.5 c 128,-1,4
 1081 1405 1081 1405 1085.5 1453.5 c 128,-1,5
 1090 1502 1090 1502 1090 1556 c 1,6,-1
 1288 1556 l 1,7,-1
 1303 1534 l 1,8,9
 1288 1465 1288 1465 1264 1401.5 c 128,-1,10
 1240 1338 1240 1338 1199 1285.5 c 128,-1,11
 1158 1233 1158 1233 1097.5 1195.5 c 128,-1,12
 1037 1158 1037 1158 950 1141 c 1,13,-1
 950 475 l 2,14,15
 950 361 950 361 927.5 269.5 c 128,-1,16
 905 178 905 178 855.5 113.5 c 128,-1,17
 806 49 806 49 726.5 14.5 c 128,-1,18
 647 -20 647 -20 532 -20 c 0,19,20
 424 -20 424 -20 347 12.5 c 128,-1,21
 270 45 270 45 220.5 108 c 128,-1,22
 171 171 171 171 148 264 c 128,-1,23
 125 357 125 357 125 479 c 2,24,-1
 125 1462 l 1,25,-1
 311 1462 l 1,26,-1
 311 489 l 2,27,28
 311 402 311 402 323 337 c 128,-1,29
 335 272 335 272 362 229 c 128,-1,30
 389 186 389 186 433.5 164.5 c 128,-1,31
 478 143 478 143 543 143 c 0,32,33
 610 143 610 143 653 167 c 128,-1,34
 696 191 696 191 720.5 236 c 128,-1,35
 745 281 745 281 754.5 345.5 c 128,-1,36
 764 410 764 410 764 492 c 2,37,-1
 764 1462 l 1,38,-1
 950 1462 l 1,0,-1
417 1606 m 1,39,40
 511 1739 511 1739 591 1907 c 1,41,-1
 810 1907 l 1,42,-1
 810 1886 l 1,43,44
 698 1713 698 1713 538 1579 c 1,45,-1
 417 1579 l 1,46,-1
 417 1606 l 1,39,40
EndSplineSet
Validated: 1
EndChar

StartChar: uni1EE9
Encoding: 7913 7913 186
Width: 1229
GlyphClass: 2
Flags: W
LayerCount: 2
Back
Fore
SplineSet
786 0 m 1,0,-1
 760 147 l 1,1,-1
 752 147 l 1,2,3
 730 104 730 104 700 72.5 c 128,-1,4
 670 41 670 41 634 20.5 c 128,-1,5
 598 0 598 0 558 -10 c 128,-1,6
 518 -20 518 -20 477 -20 c 0,7,8
 398 -20 398 -20 338.5 3 c 128,-1,9
 279 26 279 26 239.5 75 c 128,-1,10
 200 124 200 124 180 200 c 128,-1,11
 160 276 160 276 160 381 c 2,12,-1
 160 1098 l 1,13,-1
 342 1098 l 1,14,-1
 342 391 l 2,15,16
 342 261 342 261 384 196 c 128,-1,17
 426 131 426 131 516 131 c 0,18,19
 582 131 582 131 627 157 c 128,-1,20
 672 183 672 183 700 233.5 c 128,-1,21
 728 284 728 284 740 358 c 128,-1,22
 752 432 752 432 752 528 c 2,23,-1
 752 1098 l 1,24,-1
 934 1098 l 1,25,-1
 934 975 l 1,26,27
 986 981 986 981 1017 1006 c 128,-1,28
 1048 1031 1048 1031 1064 1070 c 128,-1,29
 1080 1109 1080 1109 1085 1159.5 c 128,-1,30
 1090 1210 1090 1210 1090 1266 c 1,31,-1
 1288 1266 l 1,32,-1
 1303 1243 l 1,33,34
 1288 1173 1288 1173 1263 1105 c 128,-1,35
 1238 1037 1238 1037 1195.5 982 c 128,-1,36
 1153 927 1153 927 1089.5 891 c 128,-1,37
 1026 855 1026 855 934 848 c 1,38,-1
 934 0 l 1,39,-1
 786 0 l 1,0,-1
417 1268 m 1,40,41
 511 1401 511 1401 591 1569 c 1,42,-1
 810 1569 l 1,43,-1
 810 1548 l 1,44,45
 698 1375 698 1375 538 1241 c 1,46,-1
 417 1241 l 1,47,-1
 417 1268 l 1,40,41
EndSplineSet
Validated: 1
EndChar

StartChar: uni1EEA
Encoding: 7914 7914 187
Width: 1229
GlyphClass: 2
Flags: W
LayerCount: 2
Back
Fore
SplineSet
950 1462 m 1,0,-1
 950 1268 l 1,1,2
 997 1276 997 1276 1024.5 1302 c 128,-1,3
 1052 1328 1052 1328 1066.5 1366.5 c 128,-1,4
 1081 1405 1081 1405 1085.5 1453.5 c 128,-1,5
 1090 1502 1090 1502 1090 1556 c 1,6,-1
 1288 1556 l 1,7,-1
 1303 1534 l 1,8,9
 1288 1465 1288 1465 1264 1401.5 c 128,-1,10
 1240 1338 1240 1338 1199 1285.5 c 128,-1,11
 1158 1233 1158 1233 1097.5 1195.5 c 128,-1,12
 1037 1158 1037 1158 950 1141 c 1,13,-1
 950 475 l 2,14,15
 950 361 950 361 927.5 269.5 c 128,-1,16
 905 178 905 178 855.5 113.5 c 128,-1,17
 806 49 806 49 726.5 14.5 c 128,-1,18
 647 -20 647 -20 532 -20 c 0,19,20
 424 -20 424 -20 347 12.5 c 128,-1,21
 270 45 270 45 220.5 108 c 128,-1,22
 171 171 171 171 148 264 c 128,-1,23
 125 357 125 357 125 479 c 2,24,-1
 125 1462 l 1,25,-1
 311 1462 l 1,26,-1
 311 489 l 2,27,28
 311 402 311 402 323 337 c 128,-1,29
 335 272 335 272 362 229 c 128,-1,30
 389 186 389 186 433.5 164.5 c 128,-1,31
 478 143 478 143 543 143 c 0,32,33
 610 143 610 143 653 167 c 128,-1,34
 696 191 696 191 720.5 236 c 128,-1,35
 745 281 745 281 754.5 345.5 c 128,-1,36
 764 410 764 410 764 492 c 2,37,-1
 764 1462 l 1,38,-1
 950 1462 l 1,0,-1
665 1579 m 1,39,-1
 544 1579 l 1,40,41
 378 1721 378 1721 272 1886 c 1,42,-1
 272 1907 l 1,43,-1
 491 1907 l 1,44,45
 577 1729 577 1729 665 1606 c 1,46,-1
 665 1579 l 1,39,-1
EndSplineSet
Validated: 1
EndChar

StartChar: uni1EEB
Encoding: 7915 7915 188
Width: 1229
GlyphClass: 2
Flags: W
LayerCount: 2
Back
Fore
SplineSet
786 0 m 1,0,-1
 760 147 l 1,1,-1
 752 147 l 1,2,3
 730 104 730 104 700 72.5 c 128,-1,4
 670 41 670 41 634 20.5 c 128,-1,5
 598 0 598 0 558 -10 c 128,-1,6
 518 -20 518 -20 477 -20 c 0,7,8
 398 -20 398 -20 338.5 3 c 128,-1,9
 279 26 279 26 239.5 75 c 128,-1,10
 200 124 200 124 180 200 c 128,-1,11
 160 276 160 276 160 381 c 2,12,-1
 160 1098 l 1,13,-1
 342 1098 l 1,14,-1
 342 391 l 2,15,16
 342 261 342 261 384 196 c 128,-1,17
 426 131 426 131 516 131 c 0,18,19
 582 131 582 131 627 157 c 128,-1,20
 672 183 672 183 700 233.5 c 128,-1,21
 728 284 728 284 740 358 c 128,-1,22
 752 432 752 432 752 528 c 2,23,-1
 752 1098 l 1,24,-1
 934 1098 l 1,25,-1
 934 975 l 1,26,27
 986 981 986 981 1017 1006 c 128,-1,28
 1048 1031 1048 1031 1064 1070 c 128,-1,29
 1080 1109 1080 1109 1085 1159.5 c 128,-1,30
 1090 1210 1090 1210 1090 1266 c 1,31,-1
 1288 1266 l 1,32,-1
 1303 1243 l 1,33,34
 1288 1173 1288 1173 1263 1105 c 128,-1,35
 1238 1037 1238 1037 1195.5 982 c 128,-1,36
 1153 927 1153 927 1089.5 891 c 128,-1,37
 1026 855 1026 855 934 848 c 1,38,-1
 934 0 l 1,39,-1
 786 0 l 1,0,-1
662 1241 m 1,40,-1
 541 1241 l 1,41,42
 375 1383 375 1383 269 1548 c 1,43,-1
 269 1569 l 1,44,-1
 488 1569 l 1,45,46
 574 1391 574 1391 662 1268 c 1,47,-1
 662 1241 l 1,40,-1
EndSplineSet
Validated: 1
EndChar

StartChar: uni1EEC
Encoding: 7916 7916 189
Width: 1229
GlyphClass: 2
Flags: W
LayerCount: 2
Back
Fore
SplineSet
763 1829 m 0,0,1
 763 1790 763 1790 749.5 1761 c 128,-1,2
 736 1732 736 1732 713.5 1711.5 c 128,-1,3
 691 1691 691 1691 661 1678 c 128,-1,4
 631 1665 631 1665 597 1657 c 1,5,-1
 587 1546 l 1,6,-1
 474 1546 l 1,7,-1
 460 1722 l 1,8,9
 497 1728 497 1728 526.5 1736 c 128,-1,10
 556 1744 556 1744 577 1756 c 128,-1,11
 598 1768 598 1768 609.5 1784.5 c 128,-1,12
 621 1801 621 1801 621 1825 c 256,13,14
 621 1849 621 1849 611 1865 c 128,-1,15
 601 1881 601 1881 583 1890.5 c 128,-1,16
 565 1900 565 1900 540 1903.5 c 128,-1,17
 515 1907 515 1907 486 1907 c 0,18,19
 458 1907 458 1907 432 1905.5 c 128,-1,20
 406 1904 406 1904 390 1901 c 1,21,-1
 390 2009 l 1,22,23
 406 2012 406 2012 431 2014.5 c 128,-1,24
 456 2017 456 2017 497 2017 c 0,25,26
 630 2017 630 2017 696.5 1971.5 c 128,-1,27
 763 1926 763 1926 763 1829 c 0,0,1
950 1462 m 1,28,-1
 950 1268 l 1,29,30
 997 1276 997 1276 1024.5 1302 c 128,-1,31
 1052 1328 1052 1328 1066.5 1366.5 c 128,-1,32
 1081 1405 1081 1405 1085.5 1453.5 c 128,-1,33
 1090 1502 1090 1502 1090 1556 c 1,34,-1
 1288 1556 l 1,35,-1
 1303 1534 l 1,36,37
 1288 1465 1288 1465 1264 1401.5 c 128,-1,38
 1240 1338 1240 1338 1199 1285.5 c 128,-1,39
 1158 1233 1158 1233 1097.5 1195.5 c 128,-1,40
 1037 1158 1037 1158 950 1141 c 1,41,-1
 950 475 l 2,42,43
 950 361 950 361 927.5 269.5 c 128,-1,44
 905 178 905 178 855.5 113.5 c 128,-1,45
 806 49 806 49 726.5 14.5 c 128,-1,46
 647 -20 647 -20 532 -20 c 0,47,48
 424 -20 424 -20 347 12.5 c 128,-1,49
 270 45 270 45 220.5 108 c 128,-1,50
 171 171 171 171 148 264 c 128,-1,51
 125 357 125 357 125 479 c 2,52,-1
 125 1462 l 1,53,-1
 311 1462 l 1,54,-1
 311 489 l 2,55,56
 311 402 311 402 323 337 c 128,-1,57
 335 272 335 272 362 229 c 128,-1,58
 389 186 389 186 433.5 164.5 c 128,-1,59
 478 143 478 143 543 143 c 0,60,61
 610 143 610 143 653 167 c 128,-1,62
 696 191 696 191 720.5 236 c 128,-1,63
 745 281 745 281 754.5 345.5 c 128,-1,64
 764 410 764 410 764 492 c 2,65,-1
 764 1462 l 1,66,-1
 950 1462 l 1,28,-1
EndSplineSet
Validated: 1
EndChar

StartChar: uni1EED
Encoding: 7917 7917 190
Width: 1229
GlyphClass: 2
Flags: W
LayerCount: 2
Back
Fore
SplineSet
771 1491 m 0,0,1
 771 1452 771 1452 757.5 1423 c 128,-1,2
 744 1394 744 1394 721.5 1373.5 c 128,-1,3
 699 1353 699 1353 669 1340 c 128,-1,4
 639 1327 639 1327 605 1319 c 1,5,-1
 595 1208 l 1,6,-1
 482 1208 l 1,7,-1
 468 1384 l 1,8,9
 505 1390 505 1390 534.5 1398 c 128,-1,10
 564 1406 564 1406 585 1418 c 128,-1,11
 606 1430 606 1430 617.5 1446.5 c 128,-1,12
 629 1463 629 1463 629 1487 c 256,13,14
 629 1511 629 1511 619 1527 c 128,-1,15
 609 1543 609 1543 591 1552.5 c 128,-1,16
 573 1562 573 1562 548 1565.5 c 128,-1,17
 523 1569 523 1569 494 1569 c 0,18,19
 466 1569 466 1569 440 1567.5 c 128,-1,20
 414 1566 414 1566 398 1563 c 1,21,-1
 398 1671 l 1,22,23
 414 1674 414 1674 439 1676.5 c 128,-1,24
 464 1679 464 1679 505 1679 c 0,25,26
 638 1679 638 1679 704.5 1633.5 c 128,-1,27
 771 1588 771 1588 771 1491 c 0,0,1
786 0 m 1,28,-1
 760 147 l 1,29,-1
 752 147 l 1,30,31
 730 104 730 104 700 72.5 c 128,-1,32
 670 41 670 41 634 20.5 c 128,-1,33
 598 0 598 0 558 -10 c 128,-1,34
 518 -20 518 -20 477 -20 c 0,35,36
 398 -20 398 -20 338.5 3 c 128,-1,37
 279 26 279 26 239.5 75 c 128,-1,38
 200 124 200 124 180 200 c 128,-1,39
 160 276 160 276 160 381 c 2,40,-1
 160 1098 l 1,41,-1
 342 1098 l 1,42,-1
 342 391 l 2,43,44
 342 261 342 261 384 196 c 128,-1,45
 426 131 426 131 516 131 c 0,46,47
 582 131 582 131 627 157 c 128,-1,48
 672 183 672 183 700 233.5 c 128,-1,49
 728 284 728 284 740 358 c 128,-1,50
 752 432 752 432 752 528 c 2,51,-1
 752 1098 l 1,52,-1
 934 1098 l 1,53,-1
 934 975 l 1,54,55
 986 981 986 981 1017 1006 c 128,-1,56
 1048 1031 1048 1031 1064 1070 c 128,-1,57
 1080 1109 1080 1109 1085 1159.5 c 128,-1,58
 1090 1210 1090 1210 1090 1266 c 1,59,-1
 1288 1266 l 1,60,-1
 1303 1243 l 1,61,62
 1288 1173 1288 1173 1263 1105 c 128,-1,63
 1238 1037 1238 1037 1195.5 982 c 128,-1,64
 1153 927 1153 927 1089.5 891 c 128,-1,65
 1026 855 1026 855 934 848 c 1,66,-1
 934 0 l 1,67,-1
 786 0 l 1,28,-1
EndSplineSet
Validated: 1
EndChar

StartChar: uni1EEE
Encoding: 7918 7918 191
Width: 1229
GlyphClass: 2
Flags: W
LayerCount: 2
Back
Fore
SplineSet
300 1579 m 1,0,-1
 196 1579 l 1,1,2
 221 1843 221 1843 407 1843 c 0,3,4
 465 1843 465 1843 568 1787 c 0,5,6
 670 1731 670 1731 704 1731 c 0,7,8
 784 1731 784 1731 810 1845 c 1,9,-1
 915 1845 l 1,10,11
 888 1581 888 1581 704 1581 c 0,12,13
 647 1581 647 1581 547 1638 c 0,14,15
 447 1694 447 1694 407 1694 c 0,16,17
 325 1694 325 1694 300 1579 c 1,0,-1
950 1462 m 1,18,-1
 950 1268 l 1,19,20
 997 1276 997 1276 1024.5 1302 c 128,-1,21
 1052 1328 1052 1328 1066.5 1366.5 c 128,-1,22
 1081 1405 1081 1405 1085.5 1453.5 c 128,-1,23
 1090 1502 1090 1502 1090 1556 c 1,24,-1
 1288 1556 l 1,25,-1
 1303 1534 l 1,26,27
 1288 1465 1288 1465 1264 1401.5 c 128,-1,28
 1240 1338 1240 1338 1199 1285.5 c 128,-1,29
 1158 1233 1158 1233 1097.5 1195.5 c 128,-1,30
 1037 1158 1037 1158 950 1141 c 1,31,-1
 950 475 l 2,32,33
 950 361 950 361 927.5 269.5 c 128,-1,34
 905 178 905 178 855.5 113.5 c 128,-1,35
 806 49 806 49 726.5 14.5 c 128,-1,36
 647 -20 647 -20 532 -20 c 0,37,38
 424 -20 424 -20 347 12.5 c 128,-1,39
 270 45 270 45 220.5 108 c 128,-1,40
 171 171 171 171 148 264 c 128,-1,41
 125 357 125 357 125 479 c 2,42,-1
 125 1462 l 1,43,-1
 311 1462 l 1,44,-1
 311 489 l 2,45,46
 311 402 311 402 323 337 c 128,-1,47
 335 272 335 272 362 229 c 128,-1,48
 389 186 389 186 433.5 164.5 c 128,-1,49
 478 143 478 143 543 143 c 0,50,51
 610 143 610 143 653 167 c 128,-1,52
 696 191 696 191 720.5 236 c 128,-1,53
 745 281 745 281 754.5 345.5 c 128,-1,54
 764 410 764 410 764 492 c 2,55,-1
 764 1462 l 1,56,-1
 950 1462 l 1,18,-1
EndSplineSet
Validated: 1
EndChar

StartChar: uni1EEF
Encoding: 7919 7919 192
Width: 1229
GlyphClass: 2
Flags: W
LayerCount: 2
Back
Fore
SplineSet
308 1241 m 1,0,-1
 204 1241 l 1,1,2
 229 1505 229 1505 415 1505 c 0,3,4
 473 1505 473 1505 576 1449 c 0,5,6
 678 1393 678 1393 712 1393 c 0,7,8
 792 1393 792 1393 818 1507 c 1,9,-1
 923 1507 l 1,10,11
 896 1243 896 1243 712 1243 c 0,12,13
 655 1243 655 1243 555 1300 c 0,14,15
 455 1356 455 1356 415 1356 c 0,16,17
 333 1356 333 1356 308 1241 c 1,0,-1
786 0 m 1,18,-1
 760 147 l 1,19,-1
 752 147 l 1,20,21
 730 104 730 104 700 72.5 c 128,-1,22
 670 41 670 41 634 20.5 c 128,-1,23
 598 0 598 0 558 -10 c 128,-1,24
 518 -20 518 -20 477 -20 c 0,25,26
 398 -20 398 -20 338.5 3 c 128,-1,27
 279 26 279 26 239.5 75 c 128,-1,28
 200 124 200 124 180 200 c 128,-1,29
 160 276 160 276 160 381 c 2,30,-1
 160 1098 l 1,31,-1
 342 1098 l 1,32,-1
 342 391 l 2,33,34
 342 261 342 261 384 196 c 128,-1,35
 426 131 426 131 516 131 c 0,36,37
 582 131 582 131 627 157 c 128,-1,38
 672 183 672 183 700 233.5 c 128,-1,39
 728 284 728 284 740 358 c 128,-1,40
 752 432 752 432 752 528 c 2,41,-1
 752 1098 l 1,42,-1
 934 1098 l 1,43,-1
 934 975 l 1,44,45
 986 981 986 981 1017 1006 c 128,-1,46
 1048 1031 1048 1031 1064 1070 c 128,-1,47
 1080 1109 1080 1109 1085 1159.5 c 128,-1,48
 1090 1210 1090 1210 1090 1266 c 1,49,-1
 1288 1266 l 1,50,-1
 1303 1243 l 1,51,52
 1288 1173 1288 1173 1263 1105 c 128,-1,53
 1238 1037 1238 1037 1195.5 982 c 128,-1,54
 1153 927 1153 927 1089.5 891 c 128,-1,55
 1026 855 1026 855 934 848 c 1,56,-1
 934 0 l 1,57,-1
 786 0 l 1,18,-1
EndSplineSet
Validated: 1
EndChar

StartChar: uni1EF0
Encoding: 7920 7920 193
Width: 1229
GlyphClass: 2
Flags: W
LayerCount: 2
Back
Fore
SplineSet
437 -246 m 0,0,1
 437 -186 437 -186 467.5 -158.5 c 128,-1,2
 498 -131 498 -131 543 -131 c 0,3,4
 587 -131 587 -131 618.5 -158.5 c 128,-1,5
 650 -186 650 -186 650 -246 c 0,6,7
 650 -275 650 -275 641.5 -296.5 c 128,-1,8
 633 -318 633 -318 618.5 -332 c 128,-1,9
 604 -346 604 -346 584.5 -353 c 128,-1,10
 565 -360 565 -360 543 -360 c 0,11,12
 498 -360 498 -360 467.5 -332.5 c 128,-1,13
 437 -305 437 -305 437 -246 c 0,0,1
950 1462 m 1,14,-1
 950 1268 l 1,15,16
 997 1276 997 1276 1024.5 1302 c 128,-1,17
 1052 1328 1052 1328 1066.5 1366.5 c 128,-1,18
 1081 1405 1081 1405 1085.5 1453.5 c 128,-1,19
 1090 1502 1090 1502 1090 1556 c 1,20,-1
 1288 1556 l 1,21,-1
 1303 1534 l 1,22,23
 1288 1465 1288 1465 1264 1401.5 c 128,-1,24
 1240 1338 1240 1338 1199 1285.5 c 128,-1,25
 1158 1233 1158 1233 1097.5 1195.5 c 128,-1,26
 1037 1158 1037 1158 950 1141 c 1,27,-1
 950 475 l 2,28,29
 950 361 950 361 927.5 269.5 c 128,-1,30
 905 178 905 178 855.5 113.5 c 128,-1,31
 806 49 806 49 726.5 14.5 c 128,-1,32
 647 -20 647 -20 532 -20 c 0,33,34
 424 -20 424 -20 347 12.5 c 128,-1,35
 270 45 270 45 220.5 108 c 128,-1,36
 171 171 171 171 148 264 c 128,-1,37
 125 357 125 357 125 479 c 2,38,-1
 125 1462 l 1,39,-1
 311 1462 l 1,40,-1
 311 489 l 2,41,42
 311 402 311 402 323 337 c 128,-1,43
 335 272 335 272 362 229 c 128,-1,44
 389 186 389 186 433.5 164.5 c 128,-1,45
 478 143 478 143 543 143 c 0,46,47
 610 143 610 143 653 167 c 128,-1,48
 696 191 696 191 720.5 236 c 128,-1,49
 745 281 745 281 754.5 345.5 c 128,-1,50
 764 410 764 410 764 492 c 2,51,-1
 764 1462 l 1,52,-1
 950 1462 l 1,14,-1
EndSplineSet
Validated: 1
EndChar

StartChar: uni1EF1
Encoding: 7921 7921 194
Width: 1229
GlyphClass: 2
Flags: W
LayerCount: 2
Back
Fore
SplineSet
441 -246 m 0,0,1
 441 -186 441 -186 471.5 -158.5 c 128,-1,2
 502 -131 502 -131 547 -131 c 0,3,4
 591 -131 591 -131 622.5 -158.5 c 128,-1,5
 654 -186 654 -186 654 -246 c 0,6,7
 654 -275 654 -275 645.5 -296.5 c 128,-1,8
 637 -318 637 -318 622.5 -332 c 128,-1,9
 608 -346 608 -346 588.5 -353 c 128,-1,10
 569 -360 569 -360 547 -360 c 0,11,12
 502 -360 502 -360 471.5 -332.5 c 128,-1,13
 441 -305 441 -305 441 -246 c 0,0,1
786 0 m 1,14,-1
 760 147 l 1,15,-1
 752 147 l 1,16,17
 730 104 730 104 700 72.5 c 128,-1,18
 670 41 670 41 634 20.5 c 128,-1,19
 598 0 598 0 558 -10 c 128,-1,20
 518 -20 518 -20 477 -20 c 0,21,22
 398 -20 398 -20 338.5 3 c 128,-1,23
 279 26 279 26 239.5 75 c 128,-1,24
 200 124 200 124 180 200 c 128,-1,25
 160 276 160 276 160 381 c 2,26,-1
 160 1098 l 1,27,-1
 342 1098 l 1,28,-1
 342 391 l 2,29,30
 342 261 342 261 384 196 c 128,-1,31
 426 131 426 131 516 131 c 0,32,33
 582 131 582 131 627 157 c 128,-1,34
 672 183 672 183 700 233.5 c 128,-1,35
 728 284 728 284 740 358 c 128,-1,36
 752 432 752 432 752 528 c 2,37,-1
 752 1098 l 1,38,-1
 934 1098 l 1,39,-1
 934 975 l 1,40,41
 986 981 986 981 1017 1006 c 128,-1,42
 1048 1031 1048 1031 1064 1070 c 128,-1,43
 1080 1109 1080 1109 1085 1159.5 c 128,-1,44
 1090 1210 1090 1210 1090 1266 c 1,45,-1
 1288 1266 l 1,46,-1
 1303 1243 l 1,47,48
 1288 1173 1288 1173 1263 1105 c 128,-1,49
 1238 1037 1238 1037 1195.5 982 c 128,-1,50
 1153 927 1153 927 1089.5 891 c 128,-1,51
 1026 855 1026 855 934 848 c 1,52,-1
 934 0 l 1,53,-1
 786 0 l 1,14,-1
EndSplineSet
Validated: 1
EndChar

StartChar: uni1EF4
Encoding: 7924 7924 195
Width: 1229
GlyphClass: 2
Flags: W
LayerCount: 2
Back
Fore
SplineSet
507 -246 m 0,0,1
 507 -186 507 -186 537.5 -158.5 c 128,-1,2
 568 -131 568 -131 613 -131 c 0,3,4
 657 -131 657 -131 688.5 -158.5 c 128,-1,5
 720 -186 720 -186 720 -246 c 0,6,7
 720 -275 720 -275 711.5 -296.5 c 128,-1,8
 703 -318 703 -318 688.5 -332 c 128,-1,9
 674 -346 674 -346 654.5 -353 c 128,-1,10
 635 -360 635 -360 613 -360 c 0,11,12
 568 -360 568 -360 537.5 -332.5 c 128,-1,13
 507 -305 507 -305 507 -246 c 0,0,1
612 723 m 1,14,-1
 993 1462 l 1,15,-1
 1194 1462 l 1,16,-1
 707 569 l 1,17,-1
 707 0 l 1,18,-1
 520 0 l 1,19,-1
 520 559 l 1,20,-1
 33 1462 l 1,21,-1
 236 1462 l 1,22,-1
 612 723 l 1,14,-1
EndSplineSet
Validated: 1
EndChar

StartChar: uni1EF5
Encoding: 7925 7925 196
Width: 1229
GlyphClass: 2
Flags: W
LayerCount: 2
Back
Fore
SplineSet
811 -246 m 0,0,1
 811 -186 811 -186 841.5 -158.5 c 128,-1,2
 872 -131 872 -131 917 -131 c 0,3,4
 961 -131 961 -131 992.5 -158.5 c 128,-1,5
 1024 -186 1024 -186 1024 -246 c 0,6,7
 1024 -275 1024 -275 1015.5 -296.5 c 128,-1,8
 1007 -318 1007 -318 992.5 -332 c 128,-1,9
 978 -346 978 -346 958.5 -353 c 128,-1,10
 939 -360 939 -360 917 -360 c 0,11,12
 872 -360 872 -360 841.5 -332.5 c 128,-1,13
 811 -305 811 -305 811 -246 c 0,0,1
82 1098 m 1,14,-1
 270 1098 l 1,15,-1
 532 444 l 2,16,17
 614 239 614 239 621 154 c 1,18,-1
 627 154 l 1,19,20
 650 266 650 266 717 446 c 2,21,-1
 956 1098 l 1,22,-1
 1145 1098 l 1,23,-1
 670 -143 l 2,24,25
 603 -317 603 -317 514 -404.5 c 128,-1,26
 425 -492 425 -492 268 -492 c 0,27,28
 182 -492 182 -492 100 -475 c 1,29,-1
 100 -330 l 1,30,31
 162 -342 162 -342 236 -342 c 0,32,33
 332 -342 332 -342 385.5 -301 c 128,-1,34
 439 -260 439 -260 481 -160 c 1,35,-1
 539 -10 l 1,36,-1
 82 1098 l 1,14,-1
EndSplineSet
Validated: 1
EndChar

StartChar: uni1EF6
Encoding: 7926 7926 197
Width: 1229
GlyphClass: 2
Flags: W
LayerCount: 2
Back
Fore
SplineSet
821 1829 m 0,0,1
 821 1790 821 1790 807.5 1761 c 128,-1,2
 794 1732 794 1732 771.5 1711.5 c 128,-1,3
 749 1691 749 1691 719 1678 c 128,-1,4
 689 1665 689 1665 655 1657 c 1,5,-1
 645 1546 l 1,6,-1
 532 1546 l 1,7,-1
 518 1722 l 1,8,9
 555 1728 555 1728 584.5 1736 c 128,-1,10
 614 1744 614 1744 635 1756 c 128,-1,11
 656 1768 656 1768 667.5 1784.5 c 128,-1,12
 679 1801 679 1801 679 1825 c 256,13,14
 679 1849 679 1849 669 1865 c 128,-1,15
 659 1881 659 1881 641 1890.5 c 128,-1,16
 623 1900 623 1900 598 1903.5 c 128,-1,17
 573 1907 573 1907 544 1907 c 0,18,19
 516 1907 516 1907 490 1905.5 c 128,-1,20
 464 1904 464 1904 448 1901 c 1,21,-1
 448 2009 l 1,22,23
 464 2012 464 2012 489 2014.5 c 128,-1,24
 514 2017 514 2017 555 2017 c 0,25,26
 688 2017 688 2017 754.5 1971.5 c 128,-1,27
 821 1926 821 1926 821 1829 c 0,0,1
612 723 m 1,28,-1
 993 1462 l 1,29,-1
 1194 1462 l 1,30,-1
 707 569 l 1,31,-1
 707 0 l 1,32,-1
 520 0 l 1,33,-1
 520 559 l 1,34,-1
 33 1462 l 1,35,-1
 236 1462 l 1,36,-1
 612 723 l 1,28,-1
EndSplineSet
Validated: 1
EndChar

StartChar: uni1EF7
Encoding: 7927 7927 198
Width: 1229
GlyphClass: 2
Flags: W
LayerCount: 2
Back
Fore
SplineSet
821 1491 m 0,0,1
 821 1452 821 1452 807.5 1423 c 128,-1,2
 794 1394 794 1394 771.5 1373.5 c 128,-1,3
 749 1353 749 1353 719 1340 c 128,-1,4
 689 1327 689 1327 655 1319 c 1,5,-1
 645 1208 l 1,6,-1
 532 1208 l 1,7,-1
 518 1384 l 1,8,9
 555 1390 555 1390 584.5 1398 c 128,-1,10
 614 1406 614 1406 635 1418 c 128,-1,11
 656 1430 656 1430 667.5 1446.5 c 128,-1,12
 679 1463 679 1463 679 1487 c 256,13,14
 679 1511 679 1511 669 1527 c 128,-1,15
 659 1543 659 1543 641 1552.5 c 128,-1,16
 623 1562 623 1562 598 1565.5 c 128,-1,17
 573 1569 573 1569 544 1569 c 0,18,19
 516 1569 516 1569 490 1567.5 c 128,-1,20
 464 1566 464 1566 448 1563 c 1,21,-1
 448 1671 l 1,22,23
 464 1674 464 1674 489 1676.5 c 128,-1,24
 514 1679 514 1679 555 1679 c 0,25,26
 688 1679 688 1679 754.5 1633.5 c 128,-1,27
 821 1588 821 1588 821 1491 c 0,0,1
82 1098 m 1,28,-1
 270 1098 l 1,29,-1
 532 444 l 2,30,31
 614 239 614 239 621 154 c 1,32,-1
 627 154 l 1,33,34
 650 266 650 266 717 446 c 2,35,-1
 956 1098 l 1,36,-1
 1145 1098 l 1,37,-1
 670 -143 l 2,38,39
 603 -317 603 -317 514 -404.5 c 128,-1,40
 425 -492 425 -492 268 -492 c 0,41,42
 182 -492 182 -492 100 -475 c 1,43,-1
 100 -330 l 1,44,45
 162 -342 162 -342 236 -342 c 0,46,47
 332 -342 332 -342 385.5 -301 c 128,-1,48
 439 -260 439 -260 481 -160 c 1,49,-1
 539 -10 l 1,50,-1
 82 1098 l 1,28,-1
EndSplineSet
Validated: 1
EndChar

StartChar: uni1EF8
Encoding: 7928 7928 199
Width: 1229
GlyphClass: 2
Flags: W
LayerCount: 2
Back
Fore
SplineSet
370 1579 m 1,0,-1
 266 1579 l 1,1,2
 291 1843 291 1843 477 1843 c 0,3,4
 535 1843 535 1843 638 1787 c 0,5,6
 740 1731 740 1731 774 1731 c 0,7,8
 854 1731 854 1731 880 1845 c 1,9,-1
 985 1845 l 1,10,11
 958 1581 958 1581 774 1581 c 0,12,13
 717 1581 717 1581 617 1638 c 0,14,15
 517 1694 517 1694 477 1694 c 0,16,17
 395 1694 395 1694 370 1579 c 1,0,-1
612 723 m 1,18,-1
 993 1462 l 1,19,-1
 1194 1462 l 1,20,-1
 707 569 l 1,21,-1
 707 0 l 1,22,-1
 520 0 l 1,23,-1
 520 559 l 1,24,-1
 33 1462 l 1,25,-1
 236 1462 l 1,26,-1
 612 723 l 1,18,-1
EndSplineSet
Validated: 1
EndChar

StartChar: uni1EF9
Encoding: 7929 7929 200
Width: 1229
GlyphClass: 2
Flags: W
LayerCount: 2
Back
Fore
SplineSet
370 1241 m 1,0,-1
 266 1241 l 1,1,2
 291 1505 291 1505 477 1505 c 0,3,4
 535 1505 535 1505 638 1449 c 0,5,6
 740 1393 740 1393 774 1393 c 0,7,8
 854 1393 854 1393 880 1507 c 1,9,-1
 985 1507 l 1,10,11
 958 1243 958 1243 774 1243 c 0,12,13
 717 1243 717 1243 617 1300 c 0,14,15
 517 1356 517 1356 477 1356 c 0,16,17
 395 1356 395 1356 370 1241 c 1,0,-1
82 1098 m 1,18,-1
 270 1098 l 1,19,-1
 532 444 l 2,20,21
 614 239 614 239 621 154 c 1,22,-1
 627 154 l 1,23,24
 650 266 650 266 717 446 c 2,25,-1
 956 1098 l 1,26,-1
 1145 1098 l 1,27,-1
 670 -143 l 2,28,29
 603 -317 603 -317 514 -404.5 c 128,-1,30
 425 -492 425 -492 268 -492 c 0,31,32
 182 -492 182 -492 100 -475 c 1,33,-1
 100 -330 l 1,34,35
 162 -342 162 -342 236 -342 c 0,36,37
 332 -342 332 -342 385.5 -301 c 128,-1,38
 439 -260 439 -260 481 -160 c 1,39,-1
 539 -10 l 1,40,-1
 82 1098 l 1,18,-1
EndSplineSet
Validated: 1
EndChar

StartChar: uni20AB
Encoding: 8363 8363 201
Width: 1229
GlyphClass: 2
Flags: W
LayerCount: 2
Back
Fore
SplineSet
1071 -324 m 1,0,-1
 199 -324 l 1,1,-1
 199 -184 l 1,2,-1
 1071 -184 l 1,3,-1
 1071 -324 l 1,0,-1
897 147 m 1,4,-1
 889 147 l 1,5,6
 866 113 866 113 835.5 82.5 c 128,-1,7
 805 52 805 52 766 29 c 128,-1,8
 727 6 727 6 678 -7 c 128,-1,9
 629 -20 629 -20 567 -20 c 0,10,11
 470 -20 470 -20 391 15 c 128,-1,12
 312 50 312 50 255.5 119 c 128,-1,13
 199 188 199 188 168 290 c 128,-1,14
 137 392 137 392 137 526 c 0,15,16
 137 661 137 661 168 764 c 128,-1,17
 199 867 199 867 255.5 936.5 c 128,-1,18
 312 1006 312 1006 391 1041.5 c 128,-1,19
 470 1077 470 1077 567 1077 c 0,20,21
 628 1077 628 1077 677 1064.5 c 128,-1,22
 726 1052 726 1052 765.5 1030 c 128,-1,23
 805 1008 805 1008 835.5 979 c 128,-1,24
 866 950 866 950 889 918 c 1,25,-1
 901 918 l 1,26,27
 898 951 898 951 895 982 c 0,28,29
 893 1008 893 1008 891 1035.5 c 128,-1,30
 889 1063 889 1063 889 1079 c 2,31,-1
 889 1237 l 1,32,-1
 510 1237 l 1,33,-1
 510 1374 l 1,34,-1
 889 1374 l 1,35,-1
 889 1556 l 1,36,-1
 1071 1556 l 1,37,-1
 1071 1374 l 1,38,-1
 1227 1374 l 1,39,-1
 1227 1237 l 1,40,-1
 1071 1237 l 1,41,-1
 1071 0 l 1,42,-1
 924 0 l 1,43,-1
 897 147 l 1,4,-1
600 131 m 0,44,45
 679 131 679 131 733.5 153 c 128,-1,46
 788 175 788 175 821.5 219.5 c 128,-1,47
 855 264 855 264 871 330.5 c 128,-1,48
 887 397 887 397 889 487 c 1,49,-1
 889 526 l 2,50,51
 889 623 889 623 875 697.5 c 128,-1,52
 861 772 861 772 827 823 c 128,-1,53
 793 874 793 874 737.5 900 c 128,-1,54
 682 926 682 926 598 926 c 0,55,56
 458 926 458 926 392 823 c 128,-1,57
 326 720 326 720 326 524 c 0,58,59
 326 326 326 326 392 228.5 c 128,-1,60
 458 131 458 131 600 131 c 0,44,45
EndSplineSet
Validated: 1
EndChar

StartChar: circumflexacutecomb
Encoding: 65564 -1 202
Width: 0
GlyphClass: 2
Flags: W
LayerCount: 2
Back
Fore
SplineSet
-524 1526 m 1,0,-1
 -350 1526 l 1,1,2
 -334 1473 -334 1473 -291 1398.5 c 128,-1,3
 -248 1324 -248 1324 -201 1264 c 1,4,-1
 -207 1241 l 1,5,-1
 -264 1241 l 1,6,7
 -361 1298 -361 1298 -455 1407 c 1,8,9
 -599 1299 -599 1299 -719 1241 c 1,10,-1
 -793 1241 l 1,11,-1
 -784 1268 l 1,12,13
 -709 1332 -709 1332 -633.5 1407 c 128,-1,14
 -558 1482 -558 1482 -524 1526 c 1,0,-1
-246 1460 m 1,15,-1
 -200 1507 l 2,16,17
 -106 1601 -106 1601 -63 1663 c 1,18,-1
 106 1663 l 1,19,-1
 106 1638 l 1,20,21
 63 1595 63 1595 -9 1536.5 c 128,-1,22
 -81 1478 -81 1478 -150 1436 c 1,23,-1
 -246 1436 l 1,24,-1
 -246 1460 l 1,15,-1
EndSplineSet
Validated: 1
EndChar

StartChar: circumflexgravecomb
Encoding: 65565 -1 203
Width: 0
GlyphClass: 2
Flags: W
LayerCount: 2
Back
Fore
SplineSet
-524 1526 m 1,0,-1
 -350 1526 l 1,1,2
 -334 1473 -334 1473 -291 1398.5 c 128,-1,3
 -248 1324 -248 1324 -201 1264 c 1,4,-1
 -207 1241 l 1,5,-1
 -264 1241 l 1,6,7
 -361 1298 -361 1298 -455 1407 c 1,8,9
 -599 1299 -599 1299 -719 1241 c 1,10,-1
 -793 1241 l 1,11,-1
 -784 1268 l 1,12,13
 -709 1332 -709 1332 -633.5 1407 c 128,-1,14
 -558 1482 -558 1482 -524 1526 c 1,0,-1
-762 1436 m 1,15,16
 -829 1497 -829 1497 -936 1640 c 1,17,-1
 -938 1663 l 1,18,-1
 -801 1663 l 1,19,20
 -745 1551 -745 1551 -680 1458 c 1,21,-1
 -680 1436 l 1,22,-1
 -762 1436 l 1,15,16
EndSplineSet
Validated: 1
EndChar

StartChar: circumflexhookcomb
Encoding: 65566 -1 204
Width: 0
GlyphClass: 2
Flags: W
LayerCount: 2
Back
Fore
SplineSet
-524 1526 m 1,0,-1
 -350 1526 l 1,1,2
 -334 1473 -334 1473 -291 1398.5 c 128,-1,3
 -248 1324 -248 1324 -201 1264 c 1,4,-1
 -207 1241 l 1,5,-1
 -264 1241 l 1,6,7
 -361 1298 -361 1298 -455 1407 c 1,8,9
 -599 1299 -599 1299 -719 1241 c 1,10,-1
 -793 1241 l 1,11,-1
 -784 1268 l 1,12,13
 -709 1332 -709 1332 -633.5 1407 c 128,-1,14
 -558 1482 -558 1482 -524 1526 c 1,0,-1
-221 1450 m 1,15,-1
 -213 1544 l 1,16,17
 -144 1555 -144 1555 -110 1575 c 128,-1,18
 -76 1595 -76 1595 -76 1630 c 0,19,20
 -76 1661 -76 1661 -99 1671 c 128,-1,21
 -122 1681 -122 1681 -162 1681 c 0,22,23
 -204 1681 -204 1681 -233 1673 c 1,24,-1
 -233 1751 l 1,25,26
 -211 1757 -211 1757 -145 1757 c 0,27,28
 -59 1757 -59 1757 -15 1727 c 128,-1,29
 29 1697 29 1697 29 1640 c 0,30,31
 29 1575 29 1575 -13 1540.5 c 128,-1,32
 -55 1506 -55 1506 -127 1489 c 1,33,-1
 -141 1450 l 1,34,-1
 -221 1450 l 1,15,-1
EndSplineSet
Validated: 1
EndChar

StartChar: circumflextildecomb
Encoding: 65567 -1 205
Width: 0
GlyphClass: 2
Flags: W
LayerCount: 2
Back
Fore
SplineSet
-264 1589 m 0,0,1
 -303 1589 -303 1589 -340 1604 c 128,-1,2
 -377 1619 -377 1619 -411 1637.5 c 128,-1,3
 -445 1656 -445 1656 -476.5 1671 c 128,-1,4
 -508 1686 -508 1686 -537 1686 c 0,5,6
 -580 1686 -580 1686 -606.5 1663 c 128,-1,7
 -633 1640 -633 1640 -657 1587 c 1,8,-1
 -758 1587 l 1,9,10
 -700 1806 -700 1806 -526 1806 c 0,11,12
 -484 1806 -484 1806 -446 1791 c 128,-1,13
 -408 1776 -408 1776 -374 1758 c 128,-1,14
 -340 1740 -340 1740 -310 1725 c 128,-1,15
 -280 1710 -280 1710 -254 1710 c 0,16,17
 -216 1710 -216 1710 -190.5 1729.5 c 128,-1,18
 -165 1749 -165 1749 -133 1808 c 1,19,-1
 -33 1808 l 1,20,21
 -97 1589 -97 1589 -264 1589 c 0,0,1
-522 1528 m 1,22,-1
 -348 1528 l 1,23,24
 -333 1477 -333 1477 -289.5 1399.5 c 128,-1,25
 -246 1322 -246 1322 -199 1264 c 1,26,-1
 -207 1241 l 1,27,-1
 -264 1241 l 1,28,29
 -355 1296 -355 1296 -453 1409 c 1,30,31
 -586 1304 -586 1304 -717 1241 c 1,32,-1
 -791 1241 l 1,33,-1
 -784 1268 l 1,34,35
 -599 1427 -599 1427 -522 1528 c 1,22,-1
EndSplineSet
Validated: 1
EndChar

StartChar: breveacutecomb
Encoding: 65568 -1 206
Width: 0
GlyphClass: 2
Flags: W
LayerCount: 2
Back
Fore
SplineSet
-487 1241 m 0,0,1
 -607 1241 -607 1241 -680.5 1310 c 128,-1,2
 -754 1379 -754 1379 -758 1497 c 1,3,-1
 -651 1497 l 1,4,5
 -637 1432 -637 1432 -593.5 1405 c 128,-1,6
 -550 1378 -550 1378 -473 1378 c 0,7,8
 -325 1378 -325 1378 -272 1497 c 1,9,-1
 -160 1497 l 1,10,11
 -194 1372 -194 1372 -278 1306.5 c 128,-1,12
 -362 1241 -362 1241 -487 1241 c 0,0,1
-508 1524 m 1,13,14
 -403 1619 -403 1619 -330 1729 c 1,15,-1
 -158 1729 l 1,16,-1
 -158 1706 l 1,17,18
 -202 1662 -202 1662 -282.5 1601 c 128,-1,19
 -363 1540 -363 1540 -432 1501 c 1,20,-1
 -508 1501 l 1,21,-1
 -508 1524 l 1,13,14
EndSplineSet
Validated: 1
EndChar

StartChar: brevegravecomb
Encoding: 65569 -1 207
Width: 0
GlyphClass: 2
Flags: W
LayerCount: 2
Back
Fore
SplineSet
-473 1501 m 1,0,1
 -587 1610 -587 1610 -659 1706 c 1,2,-1
 -653 1729 l 1,3,-1
 -514 1729 l 1,4,5
 -465 1631 -465 1631 -393 1528 c 1,6,-1
 -401 1501 l 1,7,-1
 -473 1501 l 1,0,1
-487 1241 m 0,8,9
 -607 1241 -607 1241 -680.5 1310 c 128,-1,10
 -754 1379 -754 1379 -758 1497 c 1,11,-1
 -651 1497 l 1,12,13
 -637 1432 -637 1432 -593.5 1405 c 128,-1,14
 -550 1378 -550 1378 -473 1378 c 0,15,16
 -325 1378 -325 1378 -272 1497 c 1,17,-1
 -160 1497 l 1,18,19
 -194 1372 -194 1372 -278 1306.5 c 128,-1,20
 -362 1241 -362 1241 -487 1241 c 0,8,9
EndSplineSet
Validated: 1
EndChar

StartChar: brevehookcomb
Encoding: 65570 -1 208
Width: 0
GlyphClass: 2
Flags: W
LayerCount: 2
Back
Fore
SplineSet
-524 1483 m 1,0,-1
 -518 1579 l 1,1,2
 -449 1590 -449 1590 -414 1609.5 c 128,-1,3
 -379 1629 -379 1629 -379 1669 c 0,4,5
 -379 1698 -379 1698 -402 1708 c 128,-1,6
 -425 1718 -425 1718 -465 1718 c 0,7,8
 -502 1718 -502 1718 -537 1710 c 1,9,-1
 -537 1790 l 1,10,11
 -507 1798 -507 1798 -449 1798 c 0,12,13
 -362 1798 -362 1798 -316 1767.5 c 128,-1,14
 -270 1737 -270 1737 -270 1677 c 0,15,16
 -270 1612 -270 1612 -313 1576.5 c 128,-1,17
 -356 1541 -356 1541 -428 1524 c 1,18,-1
 -444 1483 l 1,19,-1
 -524 1483 l 1,0,-1
-487 1241 m 0,20,21
 -607 1241 -607 1241 -680.5 1310 c 128,-1,22
 -754 1379 -754 1379 -758 1497 c 1,23,-1
 -651 1497 l 1,24,25
 -637 1432 -637 1432 -593.5 1405 c 128,-1,26
 -550 1378 -550 1378 -473 1378 c 0,27,28
 -325 1378 -325 1378 -272 1497 c 1,29,-1
 -160 1497 l 1,30,31
 -194 1372 -194 1372 -278 1306.5 c 128,-1,32
 -362 1241 -362 1241 -487 1241 c 0,20,21
EndSplineSet
Validated: 1
EndChar

StartChar: brevetildecomb
Encoding: 65571 -1 209
Width: 0
GlyphClass: 2
Flags: W
LayerCount: 2
Back
Fore
SplineSet
-285 1587 m 0,0,1
 -324 1587 -324 1587 -360.5 1602 c 128,-1,2
 -397 1617 -397 1617 -431 1635 c 128,-1,3
 -465 1653 -465 1653 -496.5 1668 c 128,-1,4
 -528 1683 -528 1683 -557 1683 c 0,5,6
 -600 1683 -600 1683 -626.5 1660.5 c 128,-1,7
 -653 1638 -653 1638 -678 1585 c 1,8,-1
 -778 1585 l 1,9,10
 -721 1806 -721 1806 -545 1806 c 0,11,12
 -503 1806 -503 1806 -465.5 1791 c 128,-1,13
 -428 1776 -428 1776 -394.5 1758 c 128,-1,14
 -361 1740 -361 1740 -331 1725 c 128,-1,15
 -301 1710 -301 1710 -274 1710 c 0,16,17
 -237 1710 -237 1710 -212.5 1728 c 128,-1,18
 -188 1746 -188 1746 -154 1808 c 1,19,-1
 -53 1808 l 1,20,21
 -118 1587 -118 1587 -285 1587 c 0,0,1
-487 1241 m 0,22,23
 -607 1241 -607 1241 -680.5 1310 c 128,-1,24
 -754 1379 -754 1379 -758 1497 c 1,25,-1
 -651 1497 l 1,26,27
 -637 1432 -637 1432 -593.5 1405 c 128,-1,28
 -550 1378 -550 1378 -473 1378 c 0,29,30
 -325 1378 -325 1378 -272 1497 c 1,31,-1
 -160 1497 l 1,32,33
 -194 1372 -194 1372 -278 1306.5 c 128,-1,34
 -362 1241 -362 1241 -487 1241 c 0,22,23
EndSplineSet
Validated: 1
EndChar

StartChar: cyrillichookleft
Encoding: 65572 -1 210
Width: 420
GlyphClass: 2
Flags: W
LayerCount: 2
Back
Fore
SplineSet
-66 -328 m 0,0,1
 -9 -328 -9 -328 23 -291.5 c 128,-1,2
 55 -255 55 -255 55 -186 c 0,3,4
 55 -84 55 -84 14 0 c 1,5,-1
 131 0 l 1,6,7
 156 -41 156 -41 173 -97 c 128,-1,8
 190 -153 190 -153 190 -205 c 0,9,10
 190 -318 190 -318 125 -379 c 128,-1,11
 60 -440 60 -440 -63 -440 c 0,12,13
 -128 -440 -128 -440 -172 -426 c 1,14,-1
 -150 -319 l 1,15,16
 -114 -328 -114 -328 -66 -328 c 0,0,1
EndSplineSet
Validated: 1
EndChar

StartChar: cyrillicbighookUC
Encoding: 65573 -1 211
Width: 397
GlyphClass: 2
Flags: W
LayerCount: 2
Back
Fore
SplineSet
377 139 m 1,0,-1
 311 -172 l 2,1,2
 287 -283 287 -283 230.5 -337 c 128,-1,3
 174 -391 174 -391 76 -391 c 0,4,5
 11 -391 11 -391 -29 -371 c 1,6,-1
 -29 -229 l 1,7,8
 26 -248 26 -248 63 -248 c 0,9,10
 108 -248 108 -248 134 -222.5 c 128,-1,11
 160 -197 160 -197 174 -135 c 2,12,-1
 233 139 l 1,13,-1
 377 139 l 1,0,-1
EndSplineSet
Validated: 1
EndChar

StartChar: cyrillicbighookLC
Encoding: 65574 -1 212
Width: 397
GlyphClass: 2
Flags: W
LayerCount: 2
Back
Fore
SplineSet
377 139 m 1,0,-1
 311 -172 l 2,1,2
 287 -283 287 -283 230.5 -337 c 128,-1,3
 174 -391 174 -391 76 -391 c 0,4,5
 11 -391 11 -391 -29 -371 c 1,6,-1
 -29 -229 l 1,7,8
 26 -248 26 -248 63 -248 c 0,9,10
 108 -248 108 -248 134 -222.5 c 128,-1,11
 160 -197 160 -197 174 -135 c 2,12,-1
 233 139 l 1,13,-1
 377 139 l 1,0,-1
EndSplineSet
Validated: 1
EndChar

StartChar: one.pnum
Encoding: 65575 -1 213
Width: 768
GlyphClass: 2
Flags: W
LayerCount: 2
Back
Fore
SplineSet
591 0 m 5,0,-1
 415 0 l 5,1,-1
 415 913 l 6,2,3
 415 1035 415 1035 423 1274 c 5,4,5
 384 1231 384 1231 302 1161 c 5,6,-1
 155 1040 l 5,7,-1
 58 1163 l 5,8,-1
 441 1462 l 5,9,-1
 591 1462 l 5,10,-1
 591 0 l 5,0,-1
EndSplineSet
Validated: 1
Substitution2: "'tnum' Tabular Numbers in Latin lookup 6 subtable" one
Substitution2: "'onum' Oldstyle Figures in Latin lookup 3 subtable" one.os
EndChar

StartChar: zero.os
Encoding: 65576 -1 214
Width: 1135
GlyphClass: 2
Flags: W
LayerCount: 2
Back
Fore
SplineSet
1034 707 m 0,0,1
 1034 504 1034 504 963.5 330.5 c 128,-1,2
 893 157 893 157 773 68.5 c 128,-1,3
 653 -20 653 -20 494 -20 c 0,4,5
 305 -20 305 -20 201.5 96.5 c 128,-1,6
 98 213 98 213 98 414 c 0,7,8
 98 621 98 621 167.5 786.5 c 128,-1,9
 237 952 237 952 363 1044.5 c 128,-1,10
 489 1137 489 1137 647 1137 c 0,11,12
 828 1137 828 1137 931 1022.5 c 128,-1,13
 1034 908 1034 908 1034 707 c 0,0,1
637 995 m 0,14,15
 533 995 533 995 449 920 c 128,-1,16
 365 845 365 845 317.5 710 c 128,-1,17
 270 575 270 575 270 412 c 0,18,19
 270 271 270 271 331 195 c 128,-1,20
 392 119 392 119 506 119 c 0,21,22
 609 119 609 119 689 190.5 c 128,-1,23
 769 262 769 262 816.5 402.5 c 128,-1,24
 864 543 864 543 864 711 c 0,25,26
 864 848 864 848 807.5 921.5 c 128,-1,27
 751 995 751 995 637 995 c 0,14,15
EndSplineSet
Validated: 1
Substitution2: "'lnum' Lining Figures in Latin lookup 7 subtable" zero
Substitution2: "'tnum' Tabular Numbers in Latin lookup 5 subtable" zero
EndChar

StartChar: one.os
Encoding: 65577 -1 215
Width: 735
GlyphClass: 2
Flags: W
LayerCount: 2
Back
Fore
SplineSet
399 0 m 1,0,-1
 236 0 l 1,1,-1
 360 575 l 2,2,3
 372 633 372 633 402 757 c 128,-1,4
 432 881 432 881 451 938 c 1,5,6
 423 909 423 909 379.5 873.5 c 128,-1,7
 336 838 336 838 152 711 c 1,8,-1
 74 819 l 1,9,-1
 496 1116 l 1,10,-1
 635 1116 l 1,11,-1
 399 0 l 1,0,-1
EndSplineSet
Validated: 1
Substitution2: "'lnum' Lining Figures in Latin lookup 7 subtable" one.pnum
Substitution2: "'tnum' Tabular Numbers in Latin lookup 5 subtable" one
EndChar

StartChar: two.os
Encoding: 65578 -1 216
Width: 991
GlyphClass: 2
Flags: W
LayerCount: 2
Back
Fore
SplineSet
805 0 m 1,0,-1
 -43 0 l 1,1,-1
 -14 133 l 1,2,-1
 416 446 l 2,3,4
 565 554 565 554 625.5 612 c 128,-1,5
 686 670 686 670 712.5 721.5 c 128,-1,6
 739 773 739 773 739 834 c 0,7,8
 739 908 739 908 695.5 951.5 c 128,-1,9
 652 995 652 995 567 995 c 0,10,11
 493 995 493 995 417.5 963.5 c 128,-1,12
 342 932 342 932 236 850 c 1,13,-1
 154 961 l 1,14,15
 276 1061 276 1061 376 1099 c 128,-1,16
 476 1137 476 1137 586 1137 c 0,17,18
 741 1137 741 1137 824 1061 c 128,-1,19
 907 985 907 985 907 852 c 0,20,21
 907 768 907 768 874 697.5 c 128,-1,22
 841 627 841 627 777.5 562 c 128,-1,23
 714 497 714 497 575 401 c 128,-1,24
 436 305 436 305 227 162 c 1,25,-1
 227 154 l 1,26,-1
 836 154 l 1,27,-1
 805 0 l 1,0,-1
EndSplineSet
Validated: 1
Substitution2: "'lnum' Lining Figures in Latin lookup 7 subtable" two
Substitution2: "'tnum' Tabular Numbers in Latin lookup 5 subtable" two
EndChar

StartChar: three.os
Encoding: 65579 -1 217
Width: 991
GlyphClass: 2
Flags: W
LayerCount: 2
Back
Fore
SplineSet
890 814 m 0,0,1
 890 658 890 658 789 549.5 c 128,-1,2
 688 441 688 441 509 409 c 1,3,-1
 509 400 l 1,4,5
 633 377 633 377 704 293.5 c 128,-1,6
 775 210 775 210 775 85 c 0,7,8
 775 -48 775 -48 713 -149.5 c 128,-1,9
 651 -251 651 -251 532 -308 c 128,-1,10
 413 -365 413 -365 249 -365 c 0,11,12
 39 -365 39 -365 -136 -286 c 1,13,-1
 -136 -122 l 1,14,15
 -42 -171 -42 -171 63 -197.5 c 128,-1,16
 168 -224 168 -224 253 -224 c 0,17,18
 415 -224 415 -224 505 -144.5 c 128,-1,19
 595 -65 595 -65 595 73 c 0,20,21
 595 204 595 204 516 271.5 c 128,-1,22
 437 339 437 339 296 339 c 2,23,-1
 165 339 l 1,24,-1
 196 482 l 1,25,-1
 335 482 l 2,26,27
 500 482 500 482 609 569 c 128,-1,28
 718 656 718 656 718 796 c 0,29,30
 718 888 718 888 660 942 c 128,-1,31
 602 996 602 996 503 996 c 0,32,33
 423 996 423 996 346 969 c 128,-1,34
 269 942 269 942 171 876 c 1,35,-1
 91 994 l 1,36,37
 286 1138 286 1138 515 1138 c 0,38,39
 694 1138 694 1138 792 1051 c 128,-1,40
 890 964 890 964 890 814 c 0,0,1
EndSplineSet
Validated: 1
Substitution2: "'lnum' Lining Figures in Latin lookup 7 subtable" three
Substitution2: "'tnum' Tabular Numbers in Latin lookup 5 subtable" three
EndChar

StartChar: four.os
Encoding: 65580 -1 218
Width: 1106
GlyphClass: 2
Flags: W
LayerCount: 2
Back
Fore
SplineSet
963 27 m 1,0,-1
 754 27 l 1,1,-1
 676 -344 l 1,2,-1
 514 -344 l 1,3,-1
 590 27 l 1,4,-1
 -57 27 l 1,5,-1
 -33 150 l 1,6,-1
 782 1116 l 1,7,-1
 985 1116 l 1,8,-1
 782 160 l 1,9,-1
 991 160 l 1,10,-1
 963 27 l 1,0,-1
618 160 m 1,11,-1
 690 494 l 2,12,13
 716 614 716 614 748 727.5 c 128,-1,14
 780 841 780 841 809 946 c 1,15,-1
 801 948 l 1,16,17
 706 809 706 809 649 745 c 2,18,-1
 156 160 l 1,19,-1
 618 160 l 1,11,-1
EndSplineSet
Validated: 1
Substitution2: "'lnum' Lining Figures in Latin lookup 7 subtable" four
Substitution2: "'tnum' Tabular Numbers in Latin lookup 5 subtable" four
EndChar

StartChar: five.os
Encoding: 65581 -1 219
Width: 1032
GlyphClass: 2
Flags: W
LayerCount: 2
Back
Fore
SplineSet
484 548 m 0,0,1
 666 548 666 548 773.5 443.5 c 128,-1,2
 881 339 881 339 881 161 c 0,3,4
 881 0 881 0 808 -122 c 128,-1,5
 735 -244 735 -244 604 -304.5 c 128,-1,6
 473 -365 473 -365 296 -365 c 0,7,8
 103 -365 103 -365 -34 -286 c 1,9,-1
 -34 -122 l 1,10,11
 130 -224 130 -224 300 -224 c 0,12,13
 491 -224 491 -224 598 -128 c 128,-1,14
 705 -32 705 -32 705 140 c 0,15,16
 705 266 705 266 631.5 339.5 c 128,-1,17
 558 413 558 413 427 413 c 0,18,19
 379 413 379 413 330 406.5 c 128,-1,20
 281 400 281 400 191 376 c 1,21,-1
 117 433 l 1,22,-1
 314 1117 l 1,23,-1
 982 1117 l 1,24,-1
 949 964 l 1,25,-1
 427 964 l 1,26,-1
 300 525 l 1,27,28
 387 548 387 548 484 548 c 0,0,1
EndSplineSet
Validated: 1
Substitution2: "'lnum' Lining Figures in Latin lookup 7 subtable" five
Substitution2: "'tnum' Tabular Numbers in Latin lookup 5 subtable" five
EndChar

StartChar: six.os
Encoding: 65582 -1 220
Width: 1106
GlyphClass: 2
Flags: W
LayerCount: 2
Back
Fore
SplineSet
943 1464 m 1,0,-1
 943 1309 l 1,1,2
 872 1333 872 1333 777 1333 c 0,3,4
 553 1333 553 1333 440.5 1192 c 128,-1,5
 328 1051 328 1051 318 745 c 1,6,-1
 330 745 l 1,7,8
 425 915 425 915 637 915 c 0,9,10
 832 915 832 915 942.5 796 c 128,-1,11
 1053 677 1053 677 1053 471 c 0,12,13
 1053 243 1053 243 932.5 111.5 c 128,-1,14
 812 -20 812 -20 609 -20 c 0,15,16
 391 -20 391 -20 261.5 148.5 c 128,-1,17
 132 317 132 317 132 625 c 0,18,19
 132 1483 132 1483 771 1483 c 0,20,21
 875 1483 875 1483 943 1464 c 1,0,-1
877 471 m 0,22,23
 877 616 877 616 808.5 694 c 128,-1,24
 740 772 740 772 613 772 c 256,25,26
 486 772 486 772 400 691 c 128,-1,27
 314 610 314 610 314 506 c 0,28,29
 314 354 314 354 395 243.5 c 128,-1,30
 476 133 476 133 607 133 c 0,31,32
 734 133 734 133 805.5 221 c 128,-1,33
 877 309 877 309 877 471 c 0,22,23
EndSplineSet
Validated: 1
Substitution2: "'lnum' Lining Figures in Latin lookup 7 subtable" six
Substitution2: "'tnum' Tabular Numbers in Latin lookup 5 subtable" six
EndChar

StartChar: seven.os
Encoding: 65583 -1 221
Width: 971
GlyphClass: 2
Flags: W
LayerCount: 2
Back
Fore
SplineSet
-1 -345 m 1,0,-1
 767 968 l 1,1,-1
 48 968 l 1,2,-1
 79 1117 l 1,3,-1
 970 1117 l 1,4,-1
 943 978 l 1,5,-1
 179 -345 l 1,6,-1
 -1 -345 l 1,0,-1
EndSplineSet
Validated: 1
Substitution2: "'lnum' Lining Figures in Latin lookup 7 subtable" seven
Substitution2: "'tnum' Tabular Numbers in Latin lookup 5 subtable" seven
EndChar

StartChar: eight.os
Encoding: 65584 -1 222
Width: 1094
GlyphClass: 2
Flags: W
LayerCount: 2
Back
Fore
SplineSet
728 774 m 1,0,1
 1037 614 1037 614 1037 381 c 0,2,3
 1037 200 1037 200 911 90 c 128,-1,4
 785 -20 785 -20 578 -20 c 0,5,6
 362 -20 362 -20 241 83.5 c 128,-1,7
 120 187 120 187 120 373 c 0,8,9
 120 630 120 630 402 766 c 1,10,11
 167 912 167 912 167 1135 c 0,12,13
 167 1296 167 1296 283.5 1390.5 c 128,-1,14
 400 1485 400 1485 578 1485 c 0,15,16
 762 1485 762 1485 876 1390 c 128,-1,17
 990 1295 990 1295 990 1133 c 0,18,19
 990 903 990 903 728 774 c 1,0,1
580 848 m 1,20,21
 812 951 812 951 812 1126 c 0,22,23
 812 1227 812 1227 749 1280 c 128,-1,24
 686 1333 686 1333 576 1333 c 0,25,26
 470 1333 470 1333 407.5 1280 c 128,-1,27
 345 1227 345 1227 345 1126 c 0,28,29
 345 1036 345 1036 394.5 973.5 c 128,-1,30
 444 911 444 911 580 848 c 1,20,21
552 696 m 1,31,32
 298 575 298 575 298 371 c 0,33,34
 298 131 298 131 574 131 c 0,35,36
 710 131 710 131 784.5 196.5 c 128,-1,37
 859 262 859 262 859 379 c 0,38,39
 859 469 859 469 796 538.5 c 128,-1,40
 733 608 733 608 582 682 c 1,41,-1
 552 696 l 1,31,32
EndSplineSet
Validated: 1
Substitution2: "'lnum' Lining Figures in Latin lookup 7 subtable" eight
Substitution2: "'tnum' Tabular Numbers in Latin lookup 5 subtable" eight
EndChar

StartChar: nine.os
Encoding: 65585 -1 223
Width: 1081
GlyphClass: 2
Flags: W
LayerCount: 2
Back
Fore
SplineSet
976 689 m 0,0,1
 976 495 976 495 920 282.5 c 128,-1,2
 864 70 864 70 772.5 -77.5 c 128,-1,3
 681 -225 681 -225 551 -295 c 128,-1,4
 421 -365 421 -365 249 -365 c 0,5,6
 113 -365 113 -365 7 -331 c 1,7,-1
 7 -173 l 1,8,9
 141 -220 141 -220 253 -220 c 0,10,11
 455 -220 455 -220 580 -79 c 128,-1,12
 705 62 705 62 769 362 c 1,13,-1
 759 362 l 1,14,15
 708 287 708 287 626.5 243.5 c 128,-1,16
 545 200 545 200 446 200 c 0,17,18
 277 200 277 200 185 298.5 c 128,-1,19
 93 397 93 397 93 587 c 0,20,21
 93 740 93 740 157.5 867.5 c 128,-1,22
 222 995 222 995 337.5 1066.5 c 128,-1,23
 453 1138 453 1138 597 1138 c 0,24,25
 777 1138 777 1138 876.5 1023.5 c 128,-1,26
 976 909 976 909 976 689 c 0,0,1
591 996 m 0,27,28
 441 996 441 996 350 883 c 128,-1,29
 259 770 259 770 259 593 c 0,30,31
 259 469 259 469 313.5 403 c 128,-1,32
 368 337 368 337 476 337 c 0,33,34
 552 337 552 337 616 365.5 c 128,-1,35
 680 394 680 394 724.5 447 c 128,-1,36
 769 500 769 500 789.5 561 c 128,-1,37
 810 622 810 622 810 712 c 0,38,39
 810 843 810 843 751 919.5 c 128,-1,40
 692 996 692 996 591 996 c 0,27,28
EndSplineSet
Validated: 1
Substitution2: "'lnum' Lining Figures in Latin lookup 7 subtable" nine
Substitution2: "'tnum' Tabular Numbers in Latin lookup 5 subtable" nine
EndChar

StartChar: ff
Encoding: 64256 64256 224
Width: 1292
GlyphClass: 2
Flags: W
LayerCount: 2
Back
Fore
SplineSet
545 -492 m 0,0,1
 474 -492 474 -492 420 -471 c 1,2,-1
 420 -330 l 1,3,4
 481 -352 481 -352 535 -352 c 0,5,6
 603 -352 603 -352 646 -294.5 c 128,-1,7
 689 -237 689 -237 715 -113 c 2,8,-1
 942 969 l 1,9,-1
 461 969 l 1,10,-1
 229 -129 l 2,11,12
 190 -318 190 -318 109 -405 c 128,-1,13
 28 -492 28 -492 -104 -492 c 0,14,15
 -173 -492 -173 -492 -229 -471 c 1,16,-1
 -229 -330 l 1,17,18
 -165 -352 -165 -352 -117 -352 c 0,19,20
 -47 -352 -47 -352 -3 -294 c 128,-1,21
 41 -236 41 -236 66 -113 c 2,22,-1
 293 969 l 1,23,-1
 100 969 l 1,24,-1
 113 1036 l 1,25,-1
 319 1102 l 1,26,-1
 342 1202 l 2,27,28
 388 1402 388 1402 469.5 1484.5 c 128,-1,29
 551 1567 551 1567 711 1567 c 0,30,31
 751 1567 751 1567 809 1555.5 c 128,-1,32
 867 1544 867 1544 899 1530 c 1,33,-1
 856 1401 l 1,34,35
 780 1430 780 1430 719 1430 c 0,36,37
 632 1430 632 1430 585.5 1381.5 c 128,-1,38
 539 1333 539 1333 510 1204 c 2,39,-1
 485 1096 l 1,40,-1
 967 1096 l 1,41,-1
 991 1204 l 2,42,43
 1036 1401 1036 1401 1117 1484 c 128,-1,44
 1198 1567 1198 1567 1360 1567 c 0,45,46
 1401 1567 1401 1567 1457.5 1556 c 128,-1,47
 1514 1545 1514 1545 1550 1530 c 1,48,-1
 1505 1401 l 1,49,50
 1429 1430 1429 1430 1368 1430 c 0,51,52
 1279 1430 1279 1430 1233 1379 c 128,-1,53
 1187 1328 1187 1328 1159 1204 c 2,54,-1
 1135 1096 l 1,55,-1
 1374 1096 l 1,56,-1
 1348 969 l 1,57,-1
 1110 969 l 1,58,-1
 879 -129 l 2,59,60
 836 -324 836 -324 755.5 -408 c 128,-1,61
 675 -492 675 -492 545 -492 c 0,0,1
EndSplineSet
Validated: 1
Ligature2: "'liga' Standard Ligatures in Latin lookup 9 subtable" f f
EndChar

StartChar: uni2120
Encoding: 8480 8480 225
Width: 1561
GlyphClass: 2
Flags: W
LayerCount: 2
Back
Fore
SplineSet
950 741 m 1,0,-1
 762 1292 l 1,1,-1
 756 1292 l 1,2,-1
 760 1182 l 1,3,-1
 760 741 l 1,4,-1
 641 741 l 1,5,-1
 641 1462 l 1,6,-1
 819 1462 l 1,7,-1
 1004 905 l 1,8,-1
 1196 1462 l 1,9,-1
 1366 1462 l 1,10,-1
 1366 741 l 1,11,-1
 1245 741 l 1,12,-1
 1245 1171 l 1,13,-1
 1249 1292 l 1,14,-1
 1243 1292 l 1,15,-1
 1044 741 l 1,16,-1
 950 741 l 1,0,-1
537 950 m 0,17,18
 537 848 537 848 466 790.5 c 128,-1,19
 395 733 395 733 274 733 c 0,20,21
 148 733 148 733 82 766 c 1,22,-1
 82 874 l 1,23,24
 176 834 176 834 274 834 c 0,25,26
 418 834 418 834 418 940 c 0,27,28
 418 984 418 984 392 1009 c 128,-1,29
 366 1034 366 1034 272 1071 c 0,30,31
 167 1114 167 1114 129.5 1160 c 128,-1,32
 92 1206 92 1206 92 1274 c 0,33,34
 92 1363 92 1363 155 1418 c 128,-1,35
 218 1473 218 1473 319 1473 c 0,36,37
 428 1473 428 1473 522 1436 c 1,38,-1
 487 1337 l 1,39,40
 407 1372 407 1372 328 1372 c 0,41,42
 275 1372 275 1372 242 1348.5 c 128,-1,43
 209 1325 209 1325 209 1282 c 0,44,45
 209 1242 209 1242 236.5 1216.5 c 128,-1,46
 264 1191 264 1191 348 1157 c 0,47,48
 463 1109 463 1109 500 1064.5 c 128,-1,49
 537 1020 537 1020 537 950 c 0,17,18
EndSplineSet
Validated: 1
EndChar

StartChar: g.alt
Encoding: 65586 -1 226
Width: 1182
GlyphClass: 2
Flags: W
LayerCount: 2
Back
Fore
SplineSet
449 119 m 0,0,1
 542 119 542 119 639.5 212.5 c 128,-1,2
 737 306 737 306 797.5 451.5 c 128,-1,3
 858 597 858 597 858 748 c 0,4,5
 858 859 858 859 805.5 917 c 128,-1,6
 753 975 753 975 651 975 c 0,7,8
 550 975 550 975 462 890.5 c 128,-1,9
 374 806 374 806 322 657.5 c 128,-1,10
 270 509 270 509 270 346 c 0,11,12
 270 119 270 119 449 119 c 0,0,1
776 209 m 1,13,-1
 768 209 l 1,14,15
 673 88 673 88 583 34 c 128,-1,16
 493 -20 493 -20 397 -20 c 0,17,18
 257 -20 257 -20 177.5 77.5 c 128,-1,19
 98 175 98 175 98 350 c 0,20,21
 98 562 98 562 170.5 742 c 128,-1,22
 243 922 243 922 366.5 1019 c 128,-1,23
 490 1116 490 1116 641 1116 c 0,24,25
 830 1116 830 1116 918 924 c 1,26,-1
 928 924 l 1,27,-1
 995 1096 l 1,28,-1
 1122 1096 l 1,29,-1
 872 -68 l 2,30,31
 827 -284 827 -284 707 -388 c 128,-1,32
 587 -492 587 -492 377 -492 c 0,33,34
 195 -492 195 -492 53 -422 c 1,35,-1
 53 -266 l 1,36,37
 115 -302 115 -302 205 -327 c 128,-1,38
 295 -352 295 -352 375 -352 c 0,39,40
 515 -352 515 -352 594.5 -284 c 128,-1,41
 674 -216 674 -216 705 -78 c 0,42,43
 741 88 741 88 776 209 c 1,13,-1
EndSplineSet
Validated: 1
EndChar

StartChar: gcircumflex.alt
Encoding: 65587 -1 227
Width: 1182
GlyphClass: 2
Flags: W
LayerCount: 2
Back
Fore
SplineSet
971 1241 m 1
 850 1241 l 1
 765 1297 765 1297 639 1427 c 1
 506 1291 506 1291 428 1241 c 1
 308 1241 l 1
 308 1268 l 1
 333 1297 333 1297 367 1335 c 0
 506 1490 506 1490 543 1569 c 1
 736 1569 l 1
 773 1490 773 1490 912 1335 c 1
 971 1268 l 1
 971 1241 l 1
EndSplineSet
Refer: 226 -1 N 1 0 0 1 0 0 3
Validated: 1
EndChar

StartChar: gbreve.alt
Encoding: 65588 -1 228
Width: 1182
GlyphClass: 2
Flags: W
LayerCount: 2
Back
Fore
SplineSet
923 1518 m 1
 914 1391 914 1391 834 1316 c 0
 754 1241 754 1241 618 1241 c 0
 338 1241 338 1241 321 1518 c 1
 430 1518 l 1
 437 1442 437 1442 476.5 1417.5 c 0
 516 1393 516 1393 620 1393 c 0
 801 1393 801 1393 811 1518 c 1
 923 1518 l 1
EndSplineSet
Refer: 226 -1 N 1 0 0 1 0 0 3
Validated: 1
EndChar

StartChar: gdot.alt
Encoding: 65589 -1 229
Width: 1182
GlyphClass: 2
Flags: W
LayerCount: 2
Back
Fore
SplineSet
905 1509 m 0
 1012 1509 1012 1509 1012 1395 c 0
 1012 1280 1012 1280 905 1280 c 0
 799 1280 799 1280 799 1395 c 0
 799 1509 799 1509 905 1509 c 0
EndSplineSet
Refer: 226 -1 N 1 0 0 1 0 0 3
Validated: 1
EndChar

StartChar: uni1EC8
Encoding: 7880 7880 231
Width: 1229
GlyphClass: 2
Flags: W
LayerCount: 2
Back
Fore
SplineSet
832 1829 m 0,0,1
 832 1790 832 1790 818.5 1761 c 128,-1,2
 805 1732 805 1732 782.5 1711.5 c 128,-1,3
 760 1691 760 1691 730 1678 c 128,-1,4
 700 1665 700 1665 666 1657 c 1,5,-1
 656 1546 l 1,6,-1
 543 1546 l 1,7,-1
 529 1722 l 1,8,9
 566 1728 566 1728 595.5 1736 c 128,-1,10
 625 1744 625 1744 646 1756 c 128,-1,11
 667 1768 667 1768 678.5 1784.5 c 128,-1,12
 690 1801 690 1801 690 1825 c 256,13,14
 690 1849 690 1849 680 1865 c 128,-1,15
 670 1881 670 1881 652 1890.5 c 128,-1,16
 634 1900 634 1900 609 1903.5 c 128,-1,17
 584 1907 584 1907 555 1907 c 0,18,19
 527 1907 527 1907 501 1905.5 c 128,-1,20
 475 1904 475 1904 459 1901 c 1,21,-1
 459 2009 l 1,22,23
 475 2012 475 2012 500 2014.5 c 128,-1,24
 525 2017 525 2017 566 2017 c 0,25,26
 699 2017 699 2017 765.5 1971.5 c 128,-1,27
 832 1926 832 1926 832 1829 c 0,0,1
1001 0 m 1,28,-1
 225 0 l 1,29,-1
 225 123 l 1,30,-1
 520 143 l 1,31,-1
 520 1319 l 1,32,-1
 225 1339 l 1,33,-1
 225 1462 l 1,34,-1
 1001 1462 l 1,35,-1
 1001 1339 l 1,36,-1
 707 1319 l 1,37,-1
 707 143 l 1,38,-1
 1001 123 l 1,39,-1
 1001 0 l 1,28,-1
EndSplineSet
Validated: 1
Substitution2: "'ss03' Style Set 3 in Latin lookup 1 subtable" uni1EC8.alt
EndChar

StartChar: uni1ECA
Encoding: 7882 7882 232
Width: 1229
GlyphClass: 2
Flags: W
LayerCount: 2
Back
Fore
SplineSet
508 -246 m 0,0,1
 508 -186 508 -186 538.5 -158.5 c 128,-1,2
 569 -131 569 -131 614 -131 c 0,3,4
 658 -131 658 -131 689.5 -158.5 c 128,-1,5
 721 -186 721 -186 721 -246 c 0,6,7
 721 -275 721 -275 712.5 -296.5 c 128,-1,8
 704 -318 704 -318 689.5 -332 c 128,-1,9
 675 -346 675 -346 655.5 -353 c 128,-1,10
 636 -360 636 -360 614 -360 c 0,11,12
 569 -360 569 -360 538.5 -332.5 c 128,-1,13
 508 -305 508 -305 508 -246 c 0,0,1
1001 0 m 1,14,-1
 225 0 l 1,15,-1
 225 123 l 1,16,-1
 520 143 l 1,17,-1
 520 1319 l 1,18,-1
 225 1339 l 1,19,-1
 225 1462 l 1,20,-1
 1001 1462 l 1,21,-1
 1001 1339 l 1,22,-1
 707 1319 l 1,23,-1
 707 143 l 1,24,-1
 1001 123 l 1,25,-1
 1001 0 l 1,14,-1
EndSplineSet
Validated: 1
Substitution2: "'ss03' Style Set 3 in Latin lookup 1 subtable" uni1ECA.alt
EndChar

StartChar: uni223E
Encoding: 8766 8766 233
Width: 1229
Flags: W
LayerCount: 2
Back
Fore
SplineSet
684 111 m 1,0,-1
 684 -119 l 1,1,-1
 547 -119 l 1,2,-1
 547 102 l 1,3,4
 319 102 319 102 182 172 c 1,5,-1
 182 344 l 1,6,7
 378 252 378 252 547 252 c 1,8,-1
 547 686 l 1,9,10
 354 750 354 750 276.5 831.5 c 128,-1,11
 199 913 199 913 199 1051 c 0,12,13
 199 1182 199 1182 291 1268 c 128,-1,14
 383 1354 383 1354 547 1374 c 1,15,-1
 547 1554 l 1,16,-1
 684 1554 l 1,17,-1
 684 1378 l 1,18,19
 871 1369 871 1369 1020 1300 c 1,20,-1
 954 1155 l 1,21,22
 814 1217 814 1217 684 1227 c 1,23,-1
 684 805 l 1,24,25
 883 737 883 737 963.5 656.5 c 128,-1,26
 1044 576 1044 576 1044 446 c 0,27,28
 1044 166 1044 166 684 111 c 1,0,-1
547 854 m 1,29,-1
 547 1223 l 1,30,31
 375 1194 375 1194 375 1049 c 0,32,33
 375 971 375 971 415.5 928 c 128,-1,34
 456 885 456 885 547 854 c 1,29,-1
684 635 m 1,35,-1
 684 262 l 1,36,37
 868 290 868 290 868 446 c 0,38,39
 868 573 868 573 684 635 c 1,35,-1
EndSplineSet
Validated: 1
EndChar

StartChar: uni224C
Encoding: 8780 8780 234
Width: 1229
Flags: W
LayerCount: 2
Back
Fore
SplineSet
1069 0 m 5,0,-1
 158 0 l 5,1,-1
 158 156 l 5,2,-1
 508 537 l 6,3,4
 703 750 703 750 765 854.5 c 132,-1,5
 827 959 827 959 827 1085 c 4,6,7
 827 1198 827 1198 763.5 1263.5 c 132,-1,8
 700 1329 700 1329 592 1329 c 4,9,10
 432 1329 432 1329 274 1192 c 5,11,-1
 172 1311 l 5,12,13
 364 1483 364 1483 594 1483 c 4,14,15
 788 1483 788 1483 900 1377 c 132,-1,16
 1012 1271 1012 1271 1012 1092 c 4,17,18
 1012 973 1012 973 953 848 c 132,-1,19
 894 723 894 723 662 473 c 5,20,-1
 381 174 l 5,21,-1
 381 166 l 5,22,-1
 1069 166 l 5,23,-1
 1069 0 l 5,0,-1
EndSplineSet
Validated: 1
EndChar

StartChar: equivalence
Encoding: 8801 8801 235
Width: 1229
Flags: W
LayerCount: 2
Back
Fore
SplineSet
672 772 m 1,0,-1
 1094 772 l 1,1,-1
 1094 55 l 1,2,3
 899 -20 899 -20 674 -20 c 0,4,5
 412 -20 412 -20 264.5 179.5 c 128,-1,6
 117 379 117 379 117 733 c 0,7,8
 117 1084 117 1084 279 1283.5 c 128,-1,9
 441 1483 441 1483 725 1483 c 0,10,11
 917 1483 917 1483 1071 1397 c 1,12,-1
 999 1235 l 1,13,14
 853 1319 853 1319 719 1319 c 0,15,16
 527 1319 527 1319 420 1163.5 c 128,-1,17
 313 1008 313 1008 313 731 c 0,18,19
 313 143 313 143 707 143 c 0,20,21
 804 143 804 143 909 172 c 1,22,-1
 909 608 l 1,23,-1
 672 608 l 1,24,-1
 672 772 l 1,0,-1
EndSplineSet
Validated: 1
EndChar

StartChar: uni2262
Encoding: 8802 8802 236
Width: 1229
Flags: W
LayerCount: 2
Back
Fore
SplineSet
1094 0 m 1,0,-1
 907 0 l 1,1,-1
 907 682 l 1,2,-1
 322 682 l 1,3,-1
 322 0 l 1,4,-1
 135 0 l 1,5,-1
 135 1462 l 1,6,-1
 322 1462 l 1,7,-1
 322 846 l 1,8,-1
 907 846 l 1,9,-1
 907 1462 l 1,10,-1
 1094 1462 l 1,11,-1
 1094 0 l 1,0,-1
EndSplineSet
Validated: 1
EndChar

StartChar: uni2263
Encoding: 8803 8803 237
Width: 1229
Flags: W
LayerCount: 2
Back
Fore
SplineSet
1001 0 m 1,0,-1
 225 0 l 1,1,-1
 225 123 l 1,2,-1
 520 143 l 1,3,-1
 520 1319 l 1,4,-1
 225 1339 l 1,5,-1
 225 1462 l 1,6,-1
 1001 1462 l 1,7,-1
 1001 1339 l 1,8,-1
 707 1319 l 1,9,-1
 707 143 l 1,10,-1
 1001 123 l 1,11,-1
 1001 0 l 1,0,-1
EndSplineSet
Validated: 1
EndChar

StartChar: uni2266
Encoding: 8806 8806 238
Width: 1229
Flags: W
LayerCount: 2
Back
Fore
SplineSet
233 0 m 1,0,-1
 233 1462 l 1,1,-1
 420 1462 l 1,2,-1
 420 166 l 1,3,-1
 1055 166 l 1,4,-1
 1055 0 l 1,5,-1
 233 0 l 1,0,-1
EndSplineSet
Validated: 1
EndChar

StartChar: uni2267
Encoding: 8807 8807 239
Width: 1229
Flags: W
LayerCount: 2
Back
Fore
SplineSet
532 0 m 1,0,-1
 254 1280 l 1,1,-1
 246 1280 l 1,2,3
 264 1014 264 1014 264 874 c 2,4,-1
 264 0 l 1,5,-1
 113 0 l 1,6,-1
 113 1462 l 1,7,-1
 360 1462 l 1,8,-1
 608 270 l 1,9,-1
 614 270 l 1,10,-1
 864 1462 l 1,11,-1
 1116 1462 l 1,12,-1
 1116 0 l 1,13,-1
 963 0 l 1,14,-1
 963 887 l 2,15,16
 963 989 963 989 977 1278 c 1,17,-1
 969 1278 l 1,18,-1
 686 0 l 1,19,-1
 532 0 l 1,0,-1
EndSplineSet
Validated: 1
EndChar

